G04 MADE WITH FRITZING*
G04 WWW.FRITZING.ORG*
G04 DOUBLE SIDED*
G04 HOLES PLATED*
G04 CONTOUR ON CENTER OF CONTOUR VECTOR*
%ASAXBY*%
%FSLAX23Y23*%
%MOIN*%
%OFA0B0*%
%SFA1.0B1.0*%
%ADD10C,0.094488*%
%ADD11C,0.075361*%
%ADD12C,0.062992*%
%ADD13C,0.075000*%
%ADD14C,0.074000*%
%ADD15R,0.062992X0.062992*%
%ADD16C,0.024000*%
%ADD17R,0.001000X0.001000*%
%LNCOPPER1*%
G90*
G70*
G54D10*
X2000Y1725D03*
X300Y825D03*
X640Y1305D03*
X190Y935D03*
X760Y825D03*
X760Y1215D03*
X390Y675D03*
X1150Y255D03*
X200Y555D03*
G54D11*
X100Y2045D03*
X200Y2045D03*
X300Y2045D03*
X400Y2045D03*
X500Y2045D03*
X600Y2045D03*
X700Y2045D03*
X800Y2045D03*
X900Y2045D03*
X1000Y2045D03*
X1100Y2045D03*
X1200Y2045D03*
X1300Y2045D03*
X1400Y2045D03*
X1500Y2045D03*
X1600Y2045D03*
X1700Y2045D03*
X1800Y2045D03*
X1900Y2045D03*
X2000Y2045D03*
X2000Y2145D03*
X1900Y2145D03*
X1800Y2145D03*
X1700Y2145D03*
X1600Y2145D03*
X1500Y2145D03*
X1400Y2145D03*
X1300Y2145D03*
X1200Y2145D03*
X1100Y2145D03*
X1000Y2145D03*
X900Y2145D03*
X800Y2145D03*
X700Y2145D03*
X600Y2145D03*
X500Y2145D03*
X400Y2145D03*
X300Y2145D03*
X200Y2145D03*
X100Y2145D03*
G54D12*
X930Y1885D03*
X832Y1885D03*
G54D13*
X1060Y1595D03*
X1060Y1195D03*
X940Y1595D03*
X940Y1195D03*
X140Y1685D03*
X540Y1685D03*
X140Y1785D03*
X540Y1785D03*
X1060Y1885D03*
X1460Y1885D03*
G54D14*
X2000Y845D03*
X1990Y745D03*
X2000Y645D03*
X1990Y545D03*
X2000Y845D03*
X1990Y745D03*
X2000Y645D03*
X1990Y545D03*
X590Y255D03*
X490Y265D03*
X390Y255D03*
X290Y265D03*
X590Y255D03*
X490Y265D03*
X390Y255D03*
X290Y265D03*
X1500Y245D03*
X1600Y235D03*
X1700Y245D03*
X1800Y235D03*
X1500Y245D03*
X1600Y235D03*
X1700Y245D03*
X1800Y235D03*
X390Y1305D03*
X440Y1380D03*
X490Y1305D03*
X390Y1305D03*
X440Y1380D03*
X490Y1305D03*
X89Y1307D03*
X139Y1382D03*
X189Y1307D03*
X89Y1307D03*
X139Y1382D03*
X189Y1307D03*
G54D15*
X930Y1885D03*
G54D16*
X760Y852D02*
X760Y1188D01*
D02*
X733Y825D02*
X327Y825D01*
D02*
X600Y2215D02*
X600Y2177D01*
D02*
X1300Y1725D02*
X1300Y2014D01*
D02*
X1973Y1725D02*
X1300Y1725D01*
D02*
X240Y1856D02*
X240Y1685D01*
D02*
X200Y1856D02*
X240Y1856D01*
D02*
X200Y2014D02*
X200Y1856D01*
D02*
X240Y1685D02*
X512Y1685D01*
D02*
X140Y1757D02*
X140Y1714D01*
D02*
X100Y1785D02*
X112Y1785D01*
D02*
X100Y2014D02*
X100Y1785D01*
D02*
X30Y1584D02*
X30Y2216D01*
D02*
X30Y2216D02*
X200Y2216D01*
D02*
X200Y2216D02*
X200Y2177D01*
D02*
X912Y1595D02*
X30Y1584D01*
D02*
X2088Y1885D02*
X2088Y2215D01*
D02*
X2088Y2215D02*
X600Y2215D01*
D02*
X1489Y1885D02*
X2088Y1885D01*
D02*
X1032Y1885D02*
X957Y1885D01*
D02*
X600Y1885D02*
X805Y1885D01*
D02*
X600Y2014D02*
X600Y1885D01*
D02*
X300Y2014D02*
X300Y1785D01*
D02*
X300Y1785D02*
X512Y1785D01*
D02*
X940Y675D02*
X940Y1167D01*
D02*
X417Y675D02*
X940Y675D01*
D02*
X190Y675D02*
X363Y675D01*
D02*
X190Y908D02*
X190Y675D01*
D02*
X1060Y1224D02*
X1060Y1305D01*
D02*
X1060Y1305D02*
X667Y1305D01*
D02*
X1032Y1595D02*
X969Y1595D01*
D02*
X1060Y555D02*
X1060Y1167D01*
D02*
X227Y555D02*
X1060Y555D01*
D02*
X1159Y1594D02*
X1089Y1595D01*
D02*
X1150Y282D02*
X1159Y1594D01*
G54D17*
X1282Y1505D02*
X1285Y1505D01*
X1313Y1505D02*
X1316Y1505D01*
X1557Y1505D02*
X1567Y1505D01*
X1590Y1505D02*
X1593Y1505D01*
X1281Y1504D02*
X1286Y1504D01*
X1312Y1504D02*
X1317Y1504D01*
X1557Y1504D02*
X1567Y1504D01*
X1589Y1504D02*
X1594Y1504D01*
X1281Y1503D02*
X1287Y1503D01*
X1311Y1503D02*
X1317Y1503D01*
X1557Y1503D02*
X1568Y1503D01*
X1588Y1503D02*
X1594Y1503D01*
X1281Y1502D02*
X1287Y1502D01*
X1311Y1502D02*
X1318Y1502D01*
X1557Y1502D02*
X1568Y1502D01*
X1588Y1502D02*
X1595Y1502D01*
X1281Y1501D02*
X1287Y1501D01*
X1311Y1501D02*
X1318Y1501D01*
X1557Y1501D02*
X1569Y1501D01*
X1588Y1501D02*
X1595Y1501D01*
X1281Y1500D02*
X1287Y1500D01*
X1311Y1500D02*
X1318Y1500D01*
X1557Y1500D02*
X1569Y1500D01*
X1588Y1500D02*
X1595Y1500D01*
X1281Y1499D02*
X1287Y1499D01*
X1311Y1499D02*
X1318Y1499D01*
X1557Y1499D02*
X1570Y1499D01*
X1588Y1499D02*
X1595Y1499D01*
X1281Y1498D02*
X1287Y1498D01*
X1311Y1498D02*
X1318Y1498D01*
X1557Y1498D02*
X1570Y1498D01*
X1588Y1498D02*
X1595Y1498D01*
X1281Y1497D02*
X1287Y1497D01*
X1311Y1497D02*
X1318Y1497D01*
X1557Y1497D02*
X1570Y1497D01*
X1588Y1497D02*
X1595Y1497D01*
X1281Y1496D02*
X1288Y1496D01*
X1310Y1496D02*
X1318Y1496D01*
X1557Y1496D02*
X1571Y1496D01*
X1588Y1496D02*
X1595Y1496D01*
X1281Y1495D02*
X1288Y1495D01*
X1310Y1495D02*
X1318Y1495D01*
X1557Y1495D02*
X1571Y1495D01*
X1588Y1495D02*
X1595Y1495D01*
X1281Y1494D02*
X1289Y1494D01*
X1309Y1494D02*
X1318Y1494D01*
X1557Y1494D02*
X1572Y1494D01*
X1588Y1494D02*
X1595Y1494D01*
X1281Y1493D02*
X1290Y1493D01*
X1308Y1493D02*
X1317Y1493D01*
X1557Y1493D02*
X1572Y1493D01*
X1588Y1493D02*
X1595Y1493D01*
X1282Y1492D02*
X1291Y1492D01*
X1307Y1492D02*
X1316Y1492D01*
X1557Y1492D02*
X1573Y1492D01*
X1588Y1492D02*
X1595Y1492D01*
X1283Y1491D02*
X1292Y1491D01*
X1307Y1491D02*
X1315Y1491D01*
X1557Y1491D02*
X1573Y1491D01*
X1588Y1491D02*
X1595Y1491D01*
X1284Y1490D02*
X1292Y1490D01*
X1306Y1490D02*
X1315Y1490D01*
X1557Y1490D02*
X1564Y1490D01*
X1566Y1490D02*
X1573Y1490D01*
X1588Y1490D02*
X1595Y1490D01*
X1284Y1489D02*
X1293Y1489D01*
X1305Y1489D02*
X1314Y1489D01*
X1347Y1489D02*
X1361Y1489D01*
X1394Y1489D02*
X1396Y1489D01*
X1424Y1489D02*
X1426Y1489D01*
X1449Y1489D02*
X1451Y1489D01*
X1464Y1489D02*
X1475Y1489D01*
X1557Y1489D02*
X1564Y1489D01*
X1566Y1489D02*
X1574Y1489D01*
X1588Y1489D02*
X1595Y1489D01*
X1623Y1489D02*
X1640Y1489D01*
X1670Y1489D02*
X1672Y1489D01*
X1679Y1489D02*
X1683Y1489D01*
X1695Y1489D02*
X1697Y1489D01*
X1735Y1489D02*
X1749Y1489D01*
X1285Y1488D02*
X1294Y1488D01*
X1304Y1488D02*
X1313Y1488D01*
X1345Y1488D02*
X1364Y1488D01*
X1392Y1488D02*
X1397Y1488D01*
X1423Y1488D02*
X1427Y1488D01*
X1448Y1488D02*
X1452Y1488D01*
X1463Y1488D02*
X1478Y1488D01*
X1557Y1488D02*
X1564Y1488D01*
X1567Y1488D02*
X1574Y1488D01*
X1588Y1488D02*
X1595Y1488D01*
X1621Y1488D02*
X1643Y1488D01*
X1669Y1488D02*
X1673Y1488D01*
X1677Y1488D02*
X1686Y1488D01*
X1692Y1488D02*
X1700Y1488D01*
X1732Y1488D02*
X1752Y1488D01*
X1286Y1487D02*
X1295Y1487D01*
X1303Y1487D02*
X1312Y1487D01*
X1343Y1487D02*
X1366Y1487D01*
X1392Y1487D02*
X1398Y1487D01*
X1422Y1487D02*
X1428Y1487D01*
X1447Y1487D02*
X1453Y1487D01*
X1461Y1487D02*
X1479Y1487D01*
X1557Y1487D02*
X1564Y1487D01*
X1567Y1487D02*
X1575Y1487D01*
X1588Y1487D02*
X1595Y1487D01*
X1621Y1487D02*
X1644Y1487D01*
X1668Y1487D02*
X1687Y1487D01*
X1691Y1487D02*
X1701Y1487D01*
X1731Y1487D02*
X1753Y1487D01*
X1287Y1486D02*
X1295Y1486D01*
X1303Y1486D02*
X1311Y1486D01*
X1342Y1486D02*
X1367Y1486D01*
X1391Y1486D02*
X1398Y1486D01*
X1422Y1486D02*
X1428Y1486D01*
X1447Y1486D02*
X1453Y1486D01*
X1460Y1486D02*
X1480Y1486D01*
X1557Y1486D02*
X1564Y1486D01*
X1568Y1486D02*
X1575Y1486D01*
X1588Y1486D02*
X1595Y1486D01*
X1620Y1486D02*
X1646Y1486D01*
X1668Y1486D02*
X1702Y1486D01*
X1730Y1486D02*
X1755Y1486D01*
X1287Y1485D02*
X1296Y1485D01*
X1302Y1485D02*
X1311Y1485D01*
X1341Y1485D02*
X1368Y1485D01*
X1391Y1485D02*
X1398Y1485D01*
X1422Y1485D02*
X1428Y1485D01*
X1447Y1485D02*
X1453Y1485D01*
X1459Y1485D02*
X1481Y1485D01*
X1557Y1485D02*
X1564Y1485D01*
X1568Y1485D02*
X1576Y1485D01*
X1588Y1485D02*
X1595Y1485D01*
X1620Y1485D02*
X1646Y1485D01*
X1668Y1485D02*
X1703Y1485D01*
X1729Y1485D02*
X1756Y1485D01*
X1288Y1484D02*
X1297Y1484D01*
X1301Y1484D02*
X1310Y1484D01*
X1340Y1484D02*
X1369Y1484D01*
X1391Y1484D02*
X1398Y1484D01*
X1422Y1484D02*
X1428Y1484D01*
X1447Y1484D02*
X1453Y1484D01*
X1458Y1484D02*
X1482Y1484D01*
X1557Y1484D02*
X1564Y1484D01*
X1569Y1484D02*
X1576Y1484D01*
X1588Y1484D02*
X1595Y1484D01*
X1621Y1484D02*
X1647Y1484D01*
X1668Y1484D02*
X1704Y1484D01*
X1727Y1484D02*
X1757Y1484D01*
X1289Y1483D02*
X1298Y1483D01*
X1300Y1483D02*
X1309Y1483D01*
X1339Y1483D02*
X1370Y1483D01*
X1391Y1483D02*
X1398Y1483D01*
X1422Y1483D02*
X1428Y1483D01*
X1447Y1483D02*
X1453Y1483D01*
X1457Y1483D02*
X1483Y1483D01*
X1557Y1483D02*
X1564Y1483D01*
X1569Y1483D02*
X1577Y1483D01*
X1588Y1483D02*
X1595Y1483D01*
X1621Y1483D02*
X1648Y1483D01*
X1668Y1483D02*
X1704Y1483D01*
X1726Y1483D02*
X1758Y1483D01*
X1290Y1482D02*
X1308Y1482D01*
X1338Y1482D02*
X1371Y1482D01*
X1391Y1482D02*
X1398Y1482D01*
X1422Y1482D02*
X1428Y1482D01*
X1447Y1482D02*
X1453Y1482D01*
X1456Y1482D02*
X1483Y1482D01*
X1557Y1482D02*
X1564Y1482D01*
X1569Y1482D02*
X1577Y1482D01*
X1588Y1482D02*
X1595Y1482D01*
X1623Y1482D02*
X1648Y1482D01*
X1668Y1482D02*
X1705Y1482D01*
X1726Y1482D02*
X1759Y1482D01*
X1291Y1481D02*
X1308Y1481D01*
X1337Y1481D02*
X1347Y1481D01*
X1362Y1481D02*
X1372Y1481D01*
X1391Y1481D02*
X1398Y1481D01*
X1422Y1481D02*
X1428Y1481D01*
X1447Y1481D02*
X1465Y1481D01*
X1475Y1481D02*
X1483Y1481D01*
X1557Y1481D02*
X1564Y1481D01*
X1570Y1481D02*
X1577Y1481D01*
X1588Y1481D02*
X1595Y1481D01*
X1641Y1481D02*
X1648Y1481D01*
X1668Y1481D02*
X1679Y1481D01*
X1683Y1481D02*
X1695Y1481D01*
X1698Y1481D02*
X1705Y1481D01*
X1725Y1481D02*
X1735Y1481D01*
X1750Y1481D02*
X1759Y1481D01*
X1291Y1480D02*
X1307Y1480D01*
X1337Y1480D02*
X1346Y1480D01*
X1363Y1480D02*
X1372Y1480D01*
X1391Y1480D02*
X1398Y1480D01*
X1422Y1480D02*
X1428Y1480D01*
X1447Y1480D02*
X1464Y1480D01*
X1476Y1480D02*
X1484Y1480D01*
X1557Y1480D02*
X1564Y1480D01*
X1570Y1480D02*
X1578Y1480D01*
X1588Y1480D02*
X1595Y1480D01*
X1641Y1480D02*
X1649Y1480D01*
X1668Y1480D02*
X1678Y1480D01*
X1683Y1480D02*
X1693Y1480D01*
X1698Y1480D02*
X1705Y1480D01*
X1725Y1480D02*
X1733Y1480D01*
X1751Y1480D02*
X1760Y1480D01*
X1292Y1479D02*
X1306Y1479D01*
X1337Y1479D02*
X1345Y1479D01*
X1364Y1479D02*
X1372Y1479D01*
X1391Y1479D02*
X1398Y1479D01*
X1422Y1479D02*
X1428Y1479D01*
X1447Y1479D02*
X1463Y1479D01*
X1477Y1479D02*
X1484Y1479D01*
X1557Y1479D02*
X1564Y1479D01*
X1571Y1479D02*
X1578Y1479D01*
X1588Y1479D02*
X1595Y1479D01*
X1642Y1479D02*
X1649Y1479D01*
X1668Y1479D02*
X1677Y1479D01*
X1683Y1479D02*
X1692Y1479D01*
X1698Y1479D02*
X1705Y1479D01*
X1724Y1479D02*
X1732Y1479D01*
X1752Y1479D02*
X1760Y1479D01*
X1293Y1478D02*
X1305Y1478D01*
X1336Y1478D02*
X1344Y1478D01*
X1365Y1478D02*
X1373Y1478D01*
X1392Y1478D02*
X1398Y1478D01*
X1422Y1478D02*
X1428Y1478D01*
X1447Y1478D02*
X1462Y1478D01*
X1477Y1478D02*
X1484Y1478D01*
X1557Y1478D02*
X1564Y1478D01*
X1571Y1478D02*
X1579Y1478D01*
X1588Y1478D02*
X1595Y1478D01*
X1642Y1478D02*
X1649Y1478D01*
X1668Y1478D02*
X1676Y1478D01*
X1683Y1478D02*
X1691Y1478D01*
X1698Y1478D02*
X1705Y1478D01*
X1724Y1478D02*
X1731Y1478D01*
X1753Y1478D02*
X1760Y1478D01*
X1294Y1477D02*
X1304Y1477D01*
X1336Y1477D02*
X1343Y1477D01*
X1366Y1477D02*
X1373Y1477D01*
X1392Y1477D02*
X1398Y1477D01*
X1422Y1477D02*
X1428Y1477D01*
X1447Y1477D02*
X1461Y1477D01*
X1477Y1477D02*
X1484Y1477D01*
X1557Y1477D02*
X1564Y1477D01*
X1572Y1477D02*
X1579Y1477D01*
X1588Y1477D02*
X1595Y1477D01*
X1642Y1477D02*
X1649Y1477D01*
X1668Y1477D02*
X1675Y1477D01*
X1683Y1477D02*
X1690Y1477D01*
X1698Y1477D02*
X1705Y1477D01*
X1724Y1477D02*
X1731Y1477D01*
X1754Y1477D02*
X1761Y1477D01*
X1294Y1476D02*
X1304Y1476D01*
X1336Y1476D02*
X1343Y1476D01*
X1366Y1476D02*
X1373Y1476D01*
X1392Y1476D02*
X1398Y1476D01*
X1422Y1476D02*
X1428Y1476D01*
X1447Y1476D02*
X1460Y1476D01*
X1477Y1476D02*
X1484Y1476D01*
X1557Y1476D02*
X1564Y1476D01*
X1572Y1476D02*
X1580Y1476D01*
X1588Y1476D02*
X1595Y1476D01*
X1642Y1476D02*
X1649Y1476D01*
X1668Y1476D02*
X1674Y1476D01*
X1683Y1476D02*
X1690Y1476D01*
X1698Y1476D02*
X1705Y1476D01*
X1724Y1476D02*
X1730Y1476D01*
X1754Y1476D02*
X1761Y1476D01*
X1295Y1475D02*
X1303Y1475D01*
X1336Y1475D02*
X1343Y1475D01*
X1366Y1475D02*
X1373Y1475D01*
X1392Y1475D02*
X1398Y1475D01*
X1422Y1475D02*
X1428Y1475D01*
X1447Y1475D02*
X1458Y1475D01*
X1477Y1475D02*
X1484Y1475D01*
X1557Y1475D02*
X1564Y1475D01*
X1573Y1475D02*
X1580Y1475D01*
X1588Y1475D02*
X1595Y1475D01*
X1642Y1475D02*
X1649Y1475D01*
X1668Y1475D02*
X1674Y1475D01*
X1683Y1475D02*
X1690Y1475D01*
X1698Y1475D02*
X1705Y1475D01*
X1724Y1475D02*
X1730Y1475D01*
X1754Y1475D02*
X1761Y1475D01*
X1296Y1474D02*
X1302Y1474D01*
X1336Y1474D02*
X1343Y1474D01*
X1366Y1474D02*
X1373Y1474D01*
X1392Y1474D02*
X1398Y1474D01*
X1422Y1474D02*
X1428Y1474D01*
X1447Y1474D02*
X1457Y1474D01*
X1478Y1474D02*
X1483Y1474D01*
X1557Y1474D02*
X1564Y1474D01*
X1573Y1474D02*
X1580Y1474D01*
X1588Y1474D02*
X1595Y1474D01*
X1642Y1474D02*
X1649Y1474D01*
X1668Y1474D02*
X1674Y1474D01*
X1683Y1474D02*
X1690Y1474D01*
X1698Y1474D02*
X1705Y1474D01*
X1724Y1474D02*
X1730Y1474D01*
X1754Y1474D02*
X1761Y1474D01*
X1296Y1473D02*
X1302Y1473D01*
X1336Y1473D02*
X1343Y1473D01*
X1366Y1473D02*
X1373Y1473D01*
X1392Y1473D02*
X1398Y1473D01*
X1422Y1473D02*
X1428Y1473D01*
X1447Y1473D02*
X1456Y1473D01*
X1478Y1473D02*
X1483Y1473D01*
X1557Y1473D02*
X1564Y1473D01*
X1573Y1473D02*
X1581Y1473D01*
X1588Y1473D02*
X1595Y1473D01*
X1623Y1473D02*
X1640Y1473D01*
X1642Y1473D02*
X1649Y1473D01*
X1668Y1473D02*
X1674Y1473D01*
X1683Y1473D02*
X1690Y1473D01*
X1698Y1473D02*
X1705Y1473D01*
X1724Y1473D02*
X1730Y1473D01*
X1754Y1473D02*
X1761Y1473D01*
X1296Y1472D02*
X1302Y1472D01*
X1336Y1472D02*
X1343Y1472D01*
X1366Y1472D02*
X1373Y1472D01*
X1392Y1472D02*
X1398Y1472D01*
X1422Y1472D02*
X1428Y1472D01*
X1447Y1472D02*
X1455Y1472D01*
X1480Y1472D02*
X1480Y1472D01*
X1557Y1472D02*
X1564Y1472D01*
X1574Y1472D02*
X1581Y1472D01*
X1588Y1472D02*
X1595Y1472D01*
X1619Y1472D02*
X1649Y1472D01*
X1668Y1472D02*
X1674Y1472D01*
X1683Y1472D02*
X1690Y1472D01*
X1698Y1472D02*
X1705Y1472D01*
X1724Y1472D02*
X1730Y1472D01*
X1754Y1472D02*
X1761Y1472D01*
X1296Y1471D02*
X1302Y1471D01*
X1336Y1471D02*
X1343Y1471D01*
X1366Y1471D02*
X1373Y1471D01*
X1392Y1471D02*
X1398Y1471D01*
X1422Y1471D02*
X1428Y1471D01*
X1447Y1471D02*
X1454Y1471D01*
X1557Y1471D02*
X1564Y1471D01*
X1574Y1471D02*
X1582Y1471D01*
X1588Y1471D02*
X1595Y1471D01*
X1618Y1471D02*
X1649Y1471D01*
X1668Y1471D02*
X1674Y1471D01*
X1683Y1471D02*
X1690Y1471D01*
X1698Y1471D02*
X1705Y1471D01*
X1724Y1471D02*
X1730Y1471D01*
X1754Y1471D02*
X1761Y1471D01*
X1296Y1470D02*
X1302Y1470D01*
X1336Y1470D02*
X1343Y1470D01*
X1366Y1470D02*
X1373Y1470D01*
X1392Y1470D02*
X1398Y1470D01*
X1422Y1470D02*
X1428Y1470D01*
X1447Y1470D02*
X1453Y1470D01*
X1557Y1470D02*
X1564Y1470D01*
X1575Y1470D02*
X1582Y1470D01*
X1588Y1470D02*
X1595Y1470D01*
X1616Y1470D02*
X1649Y1470D01*
X1668Y1470D02*
X1674Y1470D01*
X1683Y1470D02*
X1690Y1470D01*
X1698Y1470D02*
X1705Y1470D01*
X1724Y1470D02*
X1731Y1470D01*
X1754Y1470D02*
X1761Y1470D01*
X1296Y1469D02*
X1302Y1469D01*
X1336Y1469D02*
X1343Y1469D01*
X1366Y1469D02*
X1373Y1469D01*
X1392Y1469D02*
X1399Y1469D01*
X1422Y1469D02*
X1428Y1469D01*
X1447Y1469D02*
X1453Y1469D01*
X1557Y1469D02*
X1564Y1469D01*
X1575Y1469D02*
X1583Y1469D01*
X1588Y1469D02*
X1595Y1469D01*
X1616Y1469D02*
X1649Y1469D01*
X1668Y1469D02*
X1674Y1469D01*
X1683Y1469D02*
X1690Y1469D01*
X1698Y1469D02*
X1705Y1469D01*
X1724Y1469D02*
X1761Y1469D01*
X1296Y1468D02*
X1302Y1468D01*
X1336Y1468D02*
X1343Y1468D01*
X1366Y1468D02*
X1373Y1468D01*
X1392Y1468D02*
X1399Y1468D01*
X1422Y1468D02*
X1428Y1468D01*
X1447Y1468D02*
X1453Y1468D01*
X1557Y1468D02*
X1564Y1468D01*
X1576Y1468D02*
X1583Y1468D01*
X1588Y1468D02*
X1595Y1468D01*
X1615Y1468D02*
X1649Y1468D01*
X1668Y1468D02*
X1674Y1468D01*
X1683Y1468D02*
X1690Y1468D01*
X1698Y1468D02*
X1705Y1468D01*
X1724Y1468D02*
X1761Y1468D01*
X1296Y1467D02*
X1302Y1467D01*
X1336Y1467D02*
X1343Y1467D01*
X1366Y1467D02*
X1373Y1467D01*
X1392Y1467D02*
X1399Y1467D01*
X1422Y1467D02*
X1428Y1467D01*
X1447Y1467D02*
X1453Y1467D01*
X1557Y1467D02*
X1564Y1467D01*
X1576Y1467D02*
X1584Y1467D01*
X1588Y1467D02*
X1595Y1467D01*
X1614Y1467D02*
X1649Y1467D01*
X1668Y1467D02*
X1674Y1467D01*
X1683Y1467D02*
X1690Y1467D01*
X1699Y1467D02*
X1705Y1467D01*
X1724Y1467D02*
X1761Y1467D01*
X1296Y1466D02*
X1302Y1466D01*
X1336Y1466D02*
X1343Y1466D01*
X1366Y1466D02*
X1373Y1466D01*
X1392Y1466D02*
X1399Y1466D01*
X1422Y1466D02*
X1428Y1466D01*
X1447Y1466D02*
X1453Y1466D01*
X1557Y1466D02*
X1564Y1466D01*
X1576Y1466D02*
X1584Y1466D01*
X1588Y1466D02*
X1595Y1466D01*
X1614Y1466D02*
X1649Y1466D01*
X1668Y1466D02*
X1674Y1466D01*
X1683Y1466D02*
X1690Y1466D01*
X1699Y1466D02*
X1705Y1466D01*
X1724Y1466D02*
X1761Y1466D01*
X1296Y1465D02*
X1302Y1465D01*
X1336Y1465D02*
X1343Y1465D01*
X1366Y1465D02*
X1373Y1465D01*
X1392Y1465D02*
X1399Y1465D01*
X1422Y1465D02*
X1428Y1465D01*
X1447Y1465D02*
X1453Y1465D01*
X1557Y1465D02*
X1564Y1465D01*
X1577Y1465D02*
X1584Y1465D01*
X1588Y1465D02*
X1595Y1465D01*
X1613Y1465D02*
X1622Y1465D01*
X1640Y1465D02*
X1649Y1465D01*
X1668Y1465D02*
X1674Y1465D01*
X1683Y1465D02*
X1690Y1465D01*
X1699Y1465D02*
X1705Y1465D01*
X1724Y1465D02*
X1761Y1465D01*
X1296Y1464D02*
X1302Y1464D01*
X1336Y1464D02*
X1343Y1464D01*
X1366Y1464D02*
X1373Y1464D01*
X1392Y1464D02*
X1399Y1464D01*
X1422Y1464D02*
X1428Y1464D01*
X1447Y1464D02*
X1453Y1464D01*
X1557Y1464D02*
X1564Y1464D01*
X1577Y1464D02*
X1585Y1464D01*
X1588Y1464D02*
X1595Y1464D01*
X1613Y1464D02*
X1620Y1464D01*
X1642Y1464D02*
X1649Y1464D01*
X1668Y1464D02*
X1674Y1464D01*
X1683Y1464D02*
X1690Y1464D01*
X1699Y1464D02*
X1705Y1464D01*
X1724Y1464D02*
X1760Y1464D01*
X1296Y1463D02*
X1302Y1463D01*
X1336Y1463D02*
X1343Y1463D01*
X1366Y1463D02*
X1373Y1463D01*
X1392Y1463D02*
X1399Y1463D01*
X1422Y1463D02*
X1428Y1463D01*
X1447Y1463D02*
X1453Y1463D01*
X1557Y1463D02*
X1564Y1463D01*
X1578Y1463D02*
X1585Y1463D01*
X1588Y1463D02*
X1595Y1463D01*
X1613Y1463D02*
X1620Y1463D01*
X1642Y1463D02*
X1649Y1463D01*
X1668Y1463D02*
X1674Y1463D01*
X1683Y1463D02*
X1690Y1463D01*
X1699Y1463D02*
X1705Y1463D01*
X1724Y1463D02*
X1759Y1463D01*
X1296Y1462D02*
X1302Y1462D01*
X1336Y1462D02*
X1343Y1462D01*
X1366Y1462D02*
X1373Y1462D01*
X1392Y1462D02*
X1399Y1462D01*
X1422Y1462D02*
X1428Y1462D01*
X1447Y1462D02*
X1453Y1462D01*
X1557Y1462D02*
X1564Y1462D01*
X1578Y1462D02*
X1586Y1462D01*
X1588Y1462D02*
X1595Y1462D01*
X1613Y1462D02*
X1620Y1462D01*
X1643Y1462D02*
X1650Y1462D01*
X1668Y1462D02*
X1674Y1462D01*
X1683Y1462D02*
X1690Y1462D01*
X1699Y1462D02*
X1705Y1462D01*
X1724Y1462D02*
X1731Y1462D01*
X1296Y1461D02*
X1302Y1461D01*
X1336Y1461D02*
X1343Y1461D01*
X1366Y1461D02*
X1373Y1461D01*
X1392Y1461D02*
X1399Y1461D01*
X1421Y1461D02*
X1428Y1461D01*
X1447Y1461D02*
X1453Y1461D01*
X1557Y1461D02*
X1564Y1461D01*
X1579Y1461D02*
X1586Y1461D01*
X1588Y1461D02*
X1595Y1461D01*
X1613Y1461D02*
X1620Y1461D01*
X1643Y1461D02*
X1650Y1461D01*
X1668Y1461D02*
X1674Y1461D01*
X1683Y1461D02*
X1690Y1461D01*
X1699Y1461D02*
X1705Y1461D01*
X1724Y1461D02*
X1730Y1461D01*
X1296Y1460D02*
X1302Y1460D01*
X1336Y1460D02*
X1343Y1460D01*
X1366Y1460D02*
X1373Y1460D01*
X1392Y1460D02*
X1399Y1460D01*
X1419Y1460D02*
X1428Y1460D01*
X1447Y1460D02*
X1453Y1460D01*
X1557Y1460D02*
X1564Y1460D01*
X1579Y1460D02*
X1595Y1460D01*
X1613Y1460D02*
X1620Y1460D01*
X1643Y1460D02*
X1650Y1460D01*
X1668Y1460D02*
X1674Y1460D01*
X1683Y1460D02*
X1690Y1460D01*
X1699Y1460D02*
X1705Y1460D01*
X1724Y1460D02*
X1730Y1460D01*
X1296Y1459D02*
X1302Y1459D01*
X1336Y1459D02*
X1343Y1459D01*
X1366Y1459D02*
X1373Y1459D01*
X1392Y1459D02*
X1399Y1459D01*
X1418Y1459D02*
X1428Y1459D01*
X1447Y1459D02*
X1453Y1459D01*
X1557Y1459D02*
X1564Y1459D01*
X1580Y1459D02*
X1595Y1459D01*
X1613Y1459D02*
X1620Y1459D01*
X1643Y1459D02*
X1650Y1459D01*
X1668Y1459D02*
X1674Y1459D01*
X1683Y1459D02*
X1690Y1459D01*
X1699Y1459D02*
X1706Y1459D01*
X1724Y1459D02*
X1730Y1459D01*
X1296Y1458D02*
X1302Y1458D01*
X1336Y1458D02*
X1343Y1458D01*
X1366Y1458D02*
X1373Y1458D01*
X1392Y1458D02*
X1399Y1458D01*
X1416Y1458D02*
X1428Y1458D01*
X1447Y1458D02*
X1453Y1458D01*
X1557Y1458D02*
X1564Y1458D01*
X1580Y1458D02*
X1595Y1458D01*
X1613Y1458D02*
X1620Y1458D01*
X1642Y1458D02*
X1650Y1458D01*
X1668Y1458D02*
X1674Y1458D01*
X1683Y1458D02*
X1690Y1458D01*
X1699Y1458D02*
X1706Y1458D01*
X1724Y1458D02*
X1731Y1458D01*
X1296Y1457D02*
X1302Y1457D01*
X1336Y1457D02*
X1344Y1457D01*
X1365Y1457D02*
X1373Y1457D01*
X1392Y1457D02*
X1399Y1457D01*
X1415Y1457D02*
X1428Y1457D01*
X1447Y1457D02*
X1453Y1457D01*
X1557Y1457D02*
X1564Y1457D01*
X1580Y1457D02*
X1595Y1457D01*
X1613Y1457D02*
X1620Y1457D01*
X1640Y1457D02*
X1650Y1457D01*
X1668Y1457D02*
X1674Y1457D01*
X1683Y1457D02*
X1690Y1457D01*
X1699Y1457D02*
X1706Y1457D01*
X1724Y1457D02*
X1731Y1457D01*
X1296Y1456D02*
X1302Y1456D01*
X1337Y1456D02*
X1345Y1456D01*
X1364Y1456D02*
X1372Y1456D01*
X1392Y1456D02*
X1399Y1456D01*
X1413Y1456D02*
X1428Y1456D01*
X1447Y1456D02*
X1453Y1456D01*
X1557Y1456D02*
X1564Y1456D01*
X1581Y1456D02*
X1595Y1456D01*
X1613Y1456D02*
X1620Y1456D01*
X1639Y1456D02*
X1650Y1456D01*
X1668Y1456D02*
X1674Y1456D01*
X1683Y1456D02*
X1690Y1456D01*
X1699Y1456D02*
X1706Y1456D01*
X1724Y1456D02*
X1732Y1456D01*
X1296Y1455D02*
X1302Y1455D01*
X1337Y1455D02*
X1346Y1455D01*
X1363Y1455D02*
X1372Y1455D01*
X1392Y1455D02*
X1400Y1455D01*
X1411Y1455D02*
X1428Y1455D01*
X1447Y1455D02*
X1453Y1455D01*
X1557Y1455D02*
X1564Y1455D01*
X1581Y1455D02*
X1595Y1455D01*
X1613Y1455D02*
X1620Y1455D01*
X1637Y1455D02*
X1650Y1455D01*
X1668Y1455D02*
X1674Y1455D01*
X1683Y1455D02*
X1690Y1455D01*
X1699Y1455D02*
X1706Y1455D01*
X1724Y1455D02*
X1734Y1455D01*
X1296Y1454D02*
X1302Y1454D01*
X1337Y1454D02*
X1348Y1454D01*
X1361Y1454D02*
X1371Y1454D01*
X1393Y1454D02*
X1401Y1454D01*
X1410Y1454D02*
X1428Y1454D01*
X1447Y1454D02*
X1453Y1454D01*
X1557Y1454D02*
X1564Y1454D01*
X1582Y1454D02*
X1595Y1454D01*
X1613Y1454D02*
X1622Y1454D01*
X1635Y1454D02*
X1650Y1454D01*
X1668Y1454D02*
X1674Y1454D01*
X1683Y1454D02*
X1690Y1454D01*
X1699Y1454D02*
X1706Y1454D01*
X1725Y1454D02*
X1735Y1454D01*
X1296Y1453D02*
X1302Y1453D01*
X1338Y1453D02*
X1371Y1453D01*
X1393Y1453D02*
X1428Y1453D01*
X1447Y1453D02*
X1453Y1453D01*
X1557Y1453D02*
X1564Y1453D01*
X1582Y1453D02*
X1595Y1453D01*
X1614Y1453D02*
X1650Y1453D01*
X1668Y1453D02*
X1674Y1453D01*
X1683Y1453D02*
X1690Y1453D01*
X1699Y1453D02*
X1706Y1453D01*
X1726Y1453D02*
X1759Y1453D01*
X1296Y1452D02*
X1302Y1452D01*
X1339Y1452D02*
X1370Y1452D01*
X1394Y1452D02*
X1428Y1452D01*
X1447Y1452D02*
X1453Y1452D01*
X1557Y1452D02*
X1564Y1452D01*
X1583Y1452D02*
X1595Y1452D01*
X1614Y1452D02*
X1650Y1452D01*
X1668Y1452D02*
X1674Y1452D01*
X1683Y1452D02*
X1690Y1452D01*
X1699Y1452D02*
X1706Y1452D01*
X1727Y1452D02*
X1760Y1452D01*
X1296Y1451D02*
X1302Y1451D01*
X1340Y1451D02*
X1369Y1451D01*
X1394Y1451D02*
X1418Y1451D01*
X1422Y1451D02*
X1428Y1451D01*
X1447Y1451D02*
X1453Y1451D01*
X1557Y1451D02*
X1564Y1451D01*
X1583Y1451D02*
X1595Y1451D01*
X1615Y1451D02*
X1650Y1451D01*
X1668Y1451D02*
X1674Y1451D01*
X1683Y1451D02*
X1690Y1451D01*
X1699Y1451D02*
X1706Y1451D01*
X1728Y1451D02*
X1760Y1451D01*
X1296Y1450D02*
X1302Y1450D01*
X1341Y1450D02*
X1368Y1450D01*
X1395Y1450D02*
X1417Y1450D01*
X1422Y1450D02*
X1428Y1450D01*
X1447Y1450D02*
X1453Y1450D01*
X1557Y1450D02*
X1564Y1450D01*
X1583Y1450D02*
X1595Y1450D01*
X1616Y1450D02*
X1650Y1450D01*
X1668Y1450D02*
X1674Y1450D01*
X1683Y1450D02*
X1690Y1450D01*
X1699Y1450D02*
X1706Y1450D01*
X1729Y1450D02*
X1761Y1450D01*
X1296Y1449D02*
X1302Y1449D01*
X1342Y1449D02*
X1367Y1449D01*
X1396Y1449D02*
X1415Y1449D01*
X1422Y1449D02*
X1428Y1449D01*
X1447Y1449D02*
X1453Y1449D01*
X1558Y1449D02*
X1564Y1449D01*
X1584Y1449D02*
X1595Y1449D01*
X1616Y1449D02*
X1641Y1449D01*
X1643Y1449D02*
X1650Y1449D01*
X1668Y1449D02*
X1674Y1449D01*
X1683Y1449D02*
X1690Y1449D01*
X1699Y1449D02*
X1706Y1449D01*
X1730Y1449D02*
X1761Y1449D01*
X1296Y1448D02*
X1302Y1448D01*
X1344Y1448D02*
X1365Y1448D01*
X1397Y1448D02*
X1414Y1448D01*
X1422Y1448D02*
X1428Y1448D01*
X1447Y1448D02*
X1453Y1448D01*
X1558Y1448D02*
X1564Y1448D01*
X1584Y1448D02*
X1595Y1448D01*
X1618Y1448D02*
X1639Y1448D01*
X1644Y1448D02*
X1649Y1448D01*
X1668Y1448D02*
X1674Y1448D01*
X1684Y1448D02*
X1690Y1448D01*
X1700Y1448D02*
X1705Y1448D01*
X1731Y1448D02*
X1760Y1448D01*
X1297Y1447D02*
X1301Y1447D01*
X1345Y1447D02*
X1364Y1447D01*
X1399Y1447D02*
X1412Y1447D01*
X1423Y1447D02*
X1427Y1447D01*
X1448Y1447D02*
X1452Y1447D01*
X1559Y1447D02*
X1563Y1447D01*
X1585Y1447D02*
X1595Y1447D01*
X1619Y1447D02*
X1638Y1447D01*
X1644Y1447D02*
X1649Y1447D01*
X1669Y1447D02*
X1673Y1447D01*
X1685Y1447D02*
X1689Y1447D01*
X1700Y1447D02*
X1705Y1447D01*
X1733Y1447D02*
X1759Y1447D01*
X1299Y1446D02*
X1299Y1446D01*
X1349Y1446D02*
X1361Y1446D01*
X1402Y1446D02*
X1409Y1446D01*
X1425Y1446D02*
X1425Y1446D01*
X1450Y1446D02*
X1450Y1446D01*
X1560Y1446D02*
X1561Y1446D01*
X1585Y1446D02*
X1594Y1446D01*
X1622Y1446D02*
X1636Y1446D01*
X1646Y1446D02*
X1647Y1446D01*
X1671Y1446D02*
X1671Y1446D01*
X1686Y1446D02*
X1687Y1446D01*
X1702Y1446D02*
X1703Y1446D01*
X1736Y1446D02*
X1758Y1446D01*
X1754Y887D02*
X1771Y887D01*
X1799Y887D02*
X1811Y887D01*
X1842Y887D02*
X1843Y887D01*
X1875Y887D02*
X1896Y887D01*
X1750Y886D02*
X1773Y886D01*
X1798Y886D02*
X1811Y886D01*
X1840Y886D02*
X1845Y886D01*
X1872Y886D02*
X1899Y886D01*
X1748Y885D02*
X1774Y885D01*
X1798Y885D02*
X1812Y885D01*
X1839Y885D02*
X1846Y885D01*
X1872Y885D02*
X1901Y885D01*
X1746Y884D02*
X1774Y884D01*
X1798Y884D02*
X1812Y884D01*
X1838Y884D02*
X1847Y884D01*
X1871Y884D02*
X1902Y884D01*
X1745Y883D02*
X1775Y883D01*
X1798Y883D02*
X1812Y883D01*
X1838Y883D02*
X1847Y883D01*
X1871Y883D02*
X1903Y883D01*
X1744Y882D02*
X1775Y882D01*
X1798Y882D02*
X1813Y882D01*
X1838Y882D02*
X1847Y882D01*
X1871Y882D02*
X1904Y882D01*
X1963Y882D02*
X2036Y882D01*
X1744Y881D02*
X1775Y881D01*
X1798Y881D02*
X1813Y881D01*
X1838Y881D02*
X1847Y881D01*
X1871Y881D02*
X1905Y881D01*
X1963Y881D02*
X2036Y881D01*
X1743Y880D02*
X1774Y880D01*
X1798Y880D02*
X1814Y880D01*
X1838Y880D02*
X1847Y880D01*
X1871Y880D02*
X1906Y880D01*
X1963Y880D02*
X2036Y880D01*
X1742Y879D02*
X1774Y879D01*
X1798Y879D02*
X1814Y879D01*
X1838Y879D02*
X1847Y879D01*
X1872Y879D02*
X1907Y879D01*
X1963Y879D02*
X2036Y879D01*
X1741Y878D02*
X1772Y878D01*
X1798Y878D02*
X1815Y878D01*
X1838Y878D02*
X1847Y878D01*
X1873Y878D02*
X1907Y878D01*
X1963Y878D02*
X2036Y878D01*
X1740Y877D02*
X1754Y877D01*
X1798Y877D02*
X1815Y877D01*
X1838Y877D02*
X1847Y877D01*
X1880Y877D02*
X1890Y877D01*
X1895Y877D02*
X1908Y877D01*
X1963Y877D02*
X2036Y877D01*
X1740Y876D02*
X1752Y876D01*
X1798Y876D02*
X1816Y876D01*
X1838Y876D02*
X1847Y876D01*
X1880Y876D02*
X1890Y876D01*
X1897Y876D02*
X1908Y876D01*
X1963Y876D02*
X2036Y876D01*
X1739Y875D02*
X1751Y875D01*
X1798Y875D02*
X1816Y875D01*
X1838Y875D02*
X1847Y875D01*
X1880Y875D02*
X1890Y875D01*
X1898Y875D02*
X1909Y875D01*
X1963Y875D02*
X2036Y875D01*
X1738Y874D02*
X1750Y874D01*
X1798Y874D02*
X1816Y874D01*
X1838Y874D02*
X1847Y874D01*
X1880Y874D02*
X1890Y874D01*
X1899Y874D02*
X1909Y874D01*
X1963Y874D02*
X2036Y874D01*
X1737Y873D02*
X1749Y873D01*
X1798Y873D02*
X1817Y873D01*
X1838Y873D02*
X1847Y873D01*
X1880Y873D02*
X1890Y873D01*
X1899Y873D02*
X1910Y873D01*
X1963Y873D02*
X2036Y873D01*
X1737Y872D02*
X1748Y872D01*
X1798Y872D02*
X1817Y872D01*
X1838Y872D02*
X1847Y872D01*
X1880Y872D02*
X1890Y872D01*
X1900Y872D02*
X1910Y872D01*
X1963Y872D02*
X2036Y872D01*
X1736Y871D02*
X1748Y871D01*
X1798Y871D02*
X1818Y871D01*
X1838Y871D02*
X1847Y871D01*
X1880Y871D02*
X1890Y871D01*
X1900Y871D02*
X1911Y871D01*
X1963Y871D02*
X2036Y871D01*
X1735Y870D02*
X1747Y870D01*
X1798Y870D02*
X1818Y870D01*
X1838Y870D02*
X1847Y870D01*
X1880Y870D02*
X1890Y870D01*
X1901Y870D02*
X1911Y870D01*
X1963Y870D02*
X2036Y870D01*
X1734Y869D02*
X1746Y869D01*
X1798Y869D02*
X1819Y869D01*
X1838Y869D02*
X1847Y869D01*
X1880Y869D02*
X1890Y869D01*
X1901Y869D02*
X1912Y869D01*
X1963Y869D02*
X2036Y869D01*
X1733Y868D02*
X1745Y868D01*
X1798Y868D02*
X1819Y868D01*
X1838Y868D02*
X1847Y868D01*
X1880Y868D02*
X1890Y868D01*
X1902Y868D02*
X1912Y868D01*
X1963Y868D02*
X2036Y868D01*
X1733Y867D02*
X1744Y867D01*
X1798Y867D02*
X1807Y867D01*
X1809Y867D02*
X1819Y867D01*
X1838Y867D02*
X1847Y867D01*
X1880Y867D02*
X1890Y867D01*
X1902Y867D02*
X1913Y867D01*
X1963Y867D02*
X2036Y867D01*
X1732Y866D02*
X1744Y866D01*
X1798Y866D02*
X1807Y866D01*
X1810Y866D02*
X1820Y866D01*
X1838Y866D02*
X1847Y866D01*
X1880Y866D02*
X1890Y866D01*
X1903Y866D02*
X1913Y866D01*
X1963Y866D02*
X2036Y866D01*
X1731Y865D02*
X1743Y865D01*
X1798Y865D02*
X1807Y865D01*
X1810Y865D02*
X1820Y865D01*
X1838Y865D02*
X1847Y865D01*
X1880Y865D02*
X1890Y865D01*
X1903Y865D02*
X1914Y865D01*
X1963Y865D02*
X1994Y865D01*
X2005Y865D02*
X2036Y865D01*
X1730Y864D02*
X1742Y864D01*
X1798Y864D02*
X1807Y864D01*
X1811Y864D02*
X1821Y864D01*
X1838Y864D02*
X1847Y864D01*
X1880Y864D02*
X1890Y864D01*
X1904Y864D02*
X1914Y864D01*
X1963Y864D02*
X1991Y864D01*
X2008Y864D02*
X2036Y864D01*
X1730Y863D02*
X1741Y863D01*
X1798Y863D02*
X1807Y863D01*
X1811Y863D02*
X1821Y863D01*
X1838Y863D02*
X1847Y863D01*
X1880Y863D02*
X1890Y863D01*
X1904Y863D02*
X1915Y863D01*
X1963Y863D02*
X1989Y863D01*
X2010Y863D02*
X2036Y863D01*
X1729Y862D02*
X1741Y862D01*
X1798Y862D02*
X1807Y862D01*
X1812Y862D02*
X1822Y862D01*
X1838Y862D02*
X1847Y862D01*
X1880Y862D02*
X1890Y862D01*
X1905Y862D02*
X1915Y862D01*
X1963Y862D02*
X1987Y862D01*
X2011Y862D02*
X2036Y862D01*
X1728Y861D02*
X1740Y861D01*
X1798Y861D02*
X1807Y861D01*
X1812Y861D02*
X1822Y861D01*
X1838Y861D02*
X1847Y861D01*
X1880Y861D02*
X1890Y861D01*
X1905Y861D02*
X1916Y861D01*
X1963Y861D02*
X1986Y861D01*
X2013Y861D02*
X2036Y861D01*
X1728Y860D02*
X1739Y860D01*
X1798Y860D02*
X1807Y860D01*
X1812Y860D02*
X1823Y860D01*
X1838Y860D02*
X1847Y860D01*
X1880Y860D02*
X1890Y860D01*
X1906Y860D02*
X1916Y860D01*
X1963Y860D02*
X1985Y860D01*
X2014Y860D02*
X2036Y860D01*
X1727Y859D02*
X1738Y859D01*
X1798Y859D02*
X1807Y859D01*
X1813Y859D02*
X1823Y859D01*
X1838Y859D02*
X1847Y859D01*
X1880Y859D02*
X1890Y859D01*
X1906Y859D02*
X1917Y859D01*
X1963Y859D02*
X1984Y859D01*
X2015Y859D02*
X2036Y859D01*
X1727Y858D02*
X1737Y858D01*
X1798Y858D02*
X1807Y858D01*
X1813Y858D02*
X1823Y858D01*
X1838Y858D02*
X1847Y858D01*
X1880Y858D02*
X1890Y858D01*
X1907Y858D02*
X1917Y858D01*
X1963Y858D02*
X1983Y858D01*
X2015Y858D02*
X2036Y858D01*
X1727Y857D02*
X1737Y857D01*
X1798Y857D02*
X1807Y857D01*
X1814Y857D02*
X1824Y857D01*
X1838Y857D02*
X1847Y857D01*
X1880Y857D02*
X1890Y857D01*
X1907Y857D02*
X1918Y857D01*
X1963Y857D02*
X1982Y857D01*
X2016Y857D02*
X2036Y857D01*
X1727Y856D02*
X1736Y856D01*
X1798Y856D02*
X1807Y856D01*
X1814Y856D02*
X1824Y856D01*
X1838Y856D02*
X1847Y856D01*
X1880Y856D02*
X1890Y856D01*
X1908Y856D02*
X1918Y856D01*
X1963Y856D02*
X1982Y856D01*
X2017Y856D02*
X2036Y856D01*
X1726Y855D02*
X1736Y855D01*
X1798Y855D02*
X1807Y855D01*
X1815Y855D02*
X1825Y855D01*
X1838Y855D02*
X1847Y855D01*
X1880Y855D02*
X1890Y855D01*
X1908Y855D02*
X1918Y855D01*
X1963Y855D02*
X1981Y855D01*
X2017Y855D02*
X2036Y855D01*
X1726Y854D02*
X1735Y854D01*
X1798Y854D02*
X1807Y854D01*
X1815Y854D02*
X1825Y854D01*
X1838Y854D02*
X1847Y854D01*
X1880Y854D02*
X1890Y854D01*
X1909Y854D02*
X1919Y854D01*
X1963Y854D02*
X1981Y854D01*
X2018Y854D02*
X2036Y854D01*
X1726Y853D02*
X1735Y853D01*
X1798Y853D02*
X1807Y853D01*
X1816Y853D02*
X1826Y853D01*
X1838Y853D02*
X1847Y853D01*
X1880Y853D02*
X1890Y853D01*
X1909Y853D02*
X1919Y853D01*
X1963Y853D02*
X1980Y853D01*
X2018Y853D02*
X2036Y853D01*
X1726Y852D02*
X1735Y852D01*
X1798Y852D02*
X1807Y852D01*
X1816Y852D02*
X1826Y852D01*
X1838Y852D02*
X1847Y852D01*
X1880Y852D02*
X1890Y852D01*
X1910Y852D02*
X1919Y852D01*
X1963Y852D02*
X1980Y852D01*
X2019Y852D02*
X2036Y852D01*
X1726Y851D02*
X1735Y851D01*
X1798Y851D02*
X1807Y851D01*
X1816Y851D02*
X1826Y851D01*
X1838Y851D02*
X1847Y851D01*
X1880Y851D02*
X1890Y851D01*
X1910Y851D02*
X1919Y851D01*
X1963Y851D02*
X1980Y851D01*
X2019Y851D02*
X2036Y851D01*
X1726Y850D02*
X1735Y850D01*
X1798Y850D02*
X1807Y850D01*
X1817Y850D02*
X1827Y850D01*
X1838Y850D02*
X1847Y850D01*
X1880Y850D02*
X1890Y850D01*
X1910Y850D02*
X1919Y850D01*
X1963Y850D02*
X1979Y850D01*
X2019Y850D02*
X2036Y850D01*
X1726Y849D02*
X1735Y849D01*
X1798Y849D02*
X1807Y849D01*
X1817Y849D02*
X1827Y849D01*
X1838Y849D02*
X1847Y849D01*
X1880Y849D02*
X1890Y849D01*
X1910Y849D02*
X1919Y849D01*
X1963Y849D02*
X1979Y849D01*
X2020Y849D02*
X2036Y849D01*
X1726Y848D02*
X1735Y848D01*
X1798Y848D02*
X1807Y848D01*
X1818Y848D02*
X1828Y848D01*
X1838Y848D02*
X1847Y848D01*
X1880Y848D02*
X1890Y848D01*
X1910Y848D02*
X1919Y848D01*
X1963Y848D02*
X1979Y848D01*
X2020Y848D02*
X2036Y848D01*
X1726Y847D02*
X1735Y847D01*
X1798Y847D02*
X1807Y847D01*
X1818Y847D02*
X1828Y847D01*
X1838Y847D02*
X1847Y847D01*
X1880Y847D02*
X1890Y847D01*
X1910Y847D02*
X1919Y847D01*
X1963Y847D02*
X1979Y847D01*
X2020Y847D02*
X2036Y847D01*
X1726Y846D02*
X1735Y846D01*
X1798Y846D02*
X1807Y846D01*
X1819Y846D02*
X1829Y846D01*
X1838Y846D02*
X1847Y846D01*
X1880Y846D02*
X1890Y846D01*
X1910Y846D02*
X1919Y846D01*
X1963Y846D02*
X1979Y846D01*
X2020Y846D02*
X2036Y846D01*
X1726Y845D02*
X1735Y845D01*
X1798Y845D02*
X1807Y845D01*
X1819Y845D02*
X1829Y845D01*
X1838Y845D02*
X1847Y845D01*
X1880Y845D02*
X1890Y845D01*
X1910Y845D02*
X1919Y845D01*
X1963Y845D02*
X1979Y845D01*
X2020Y845D02*
X2036Y845D01*
X1726Y844D02*
X1735Y844D01*
X1753Y844D02*
X1775Y844D01*
X1798Y844D02*
X1807Y844D01*
X1819Y844D02*
X1830Y844D01*
X1838Y844D02*
X1847Y844D01*
X1880Y844D02*
X1890Y844D01*
X1909Y844D02*
X1919Y844D01*
X1963Y844D02*
X1979Y844D01*
X2020Y844D02*
X2036Y844D01*
X1726Y843D02*
X1735Y843D01*
X1752Y843D02*
X1775Y843D01*
X1798Y843D02*
X1807Y843D01*
X1820Y843D02*
X1830Y843D01*
X1838Y843D02*
X1847Y843D01*
X1880Y843D02*
X1890Y843D01*
X1909Y843D02*
X1919Y843D01*
X1963Y843D02*
X1979Y843D01*
X2020Y843D02*
X2036Y843D01*
X1726Y842D02*
X1735Y842D01*
X1751Y842D02*
X1775Y842D01*
X1798Y842D02*
X1807Y842D01*
X1820Y842D02*
X1830Y842D01*
X1838Y842D02*
X1847Y842D01*
X1880Y842D02*
X1890Y842D01*
X1909Y842D02*
X1918Y842D01*
X1963Y842D02*
X1979Y842D01*
X2020Y842D02*
X2036Y842D01*
X1726Y841D02*
X1735Y841D01*
X1751Y841D02*
X1775Y841D01*
X1798Y841D02*
X1807Y841D01*
X1821Y841D02*
X1831Y841D01*
X1838Y841D02*
X1847Y841D01*
X1880Y841D02*
X1890Y841D01*
X1908Y841D02*
X1918Y841D01*
X1963Y841D02*
X1979Y841D01*
X2019Y841D02*
X2036Y841D01*
X1726Y840D02*
X1735Y840D01*
X1751Y840D02*
X1775Y840D01*
X1798Y840D02*
X1807Y840D01*
X1821Y840D02*
X1831Y840D01*
X1838Y840D02*
X1847Y840D01*
X1880Y840D02*
X1890Y840D01*
X1908Y840D02*
X1918Y840D01*
X1963Y840D02*
X1980Y840D01*
X2019Y840D02*
X2036Y840D01*
X1726Y839D02*
X1735Y839D01*
X1751Y839D02*
X1775Y839D01*
X1798Y839D02*
X1807Y839D01*
X1822Y839D02*
X1832Y839D01*
X1838Y839D02*
X1847Y839D01*
X1880Y839D02*
X1890Y839D01*
X1907Y839D02*
X1917Y839D01*
X1963Y839D02*
X1980Y839D01*
X2019Y839D02*
X2036Y839D01*
X1726Y838D02*
X1735Y838D01*
X1751Y838D02*
X1775Y838D01*
X1798Y838D02*
X1807Y838D01*
X1822Y838D02*
X1832Y838D01*
X1838Y838D02*
X1847Y838D01*
X1880Y838D02*
X1890Y838D01*
X1907Y838D02*
X1917Y838D01*
X1963Y838D02*
X1980Y838D01*
X2018Y838D02*
X2036Y838D01*
X1726Y837D02*
X1735Y837D01*
X1752Y837D02*
X1775Y837D01*
X1798Y837D02*
X1807Y837D01*
X1823Y837D02*
X1833Y837D01*
X1838Y837D02*
X1847Y837D01*
X1880Y837D02*
X1890Y837D01*
X1906Y837D02*
X1916Y837D01*
X1963Y837D02*
X1981Y837D01*
X2018Y837D02*
X2036Y837D01*
X1726Y836D02*
X1735Y836D01*
X1753Y836D02*
X1775Y836D01*
X1798Y836D02*
X1807Y836D01*
X1823Y836D02*
X1833Y836D01*
X1838Y836D02*
X1847Y836D01*
X1880Y836D02*
X1890Y836D01*
X1906Y836D02*
X1916Y836D01*
X1963Y836D02*
X1981Y836D01*
X2017Y836D02*
X2036Y836D01*
X1726Y835D02*
X1735Y835D01*
X1754Y835D02*
X1775Y835D01*
X1798Y835D02*
X1807Y835D01*
X1823Y835D02*
X1833Y835D01*
X1838Y835D02*
X1847Y835D01*
X1880Y835D02*
X1890Y835D01*
X1905Y835D02*
X1915Y835D01*
X1963Y835D02*
X1982Y835D01*
X2017Y835D02*
X2036Y835D01*
X1726Y834D02*
X1735Y834D01*
X1766Y834D02*
X1775Y834D01*
X1798Y834D02*
X1807Y834D01*
X1824Y834D02*
X1834Y834D01*
X1838Y834D02*
X1847Y834D01*
X1880Y834D02*
X1890Y834D01*
X1905Y834D02*
X1915Y834D01*
X1963Y834D02*
X1983Y834D01*
X2016Y834D02*
X2036Y834D01*
X1726Y833D02*
X1735Y833D01*
X1766Y833D02*
X1775Y833D01*
X1798Y833D02*
X1807Y833D01*
X1824Y833D02*
X1834Y833D01*
X1838Y833D02*
X1847Y833D01*
X1880Y833D02*
X1890Y833D01*
X1904Y833D02*
X1914Y833D01*
X1963Y833D02*
X1984Y833D01*
X2015Y833D02*
X2036Y833D01*
X1726Y832D02*
X1735Y832D01*
X1766Y832D02*
X1775Y832D01*
X1798Y832D02*
X1807Y832D01*
X1825Y832D02*
X1835Y832D01*
X1838Y832D02*
X1847Y832D01*
X1880Y832D02*
X1890Y832D01*
X1904Y832D02*
X1914Y832D01*
X1963Y832D02*
X1984Y832D01*
X2014Y832D02*
X2036Y832D01*
X1726Y831D02*
X1735Y831D01*
X1766Y831D02*
X1775Y831D01*
X1798Y831D02*
X1807Y831D01*
X1825Y831D02*
X1835Y831D01*
X1838Y831D02*
X1847Y831D01*
X1880Y831D02*
X1890Y831D01*
X1903Y831D02*
X1913Y831D01*
X1963Y831D02*
X1985Y831D01*
X2013Y831D02*
X2036Y831D01*
X1726Y830D02*
X1735Y830D01*
X1766Y830D02*
X1775Y830D01*
X1798Y830D02*
X1807Y830D01*
X1826Y830D02*
X1836Y830D01*
X1838Y830D02*
X1847Y830D01*
X1880Y830D02*
X1890Y830D01*
X1903Y830D02*
X1913Y830D01*
X1963Y830D02*
X1987Y830D01*
X2012Y830D02*
X2036Y830D01*
X1726Y829D02*
X1735Y829D01*
X1766Y829D02*
X1775Y829D01*
X1798Y829D02*
X1807Y829D01*
X1826Y829D02*
X1836Y829D01*
X1838Y829D02*
X1847Y829D01*
X1880Y829D02*
X1890Y829D01*
X1902Y829D02*
X1912Y829D01*
X1963Y829D02*
X1988Y829D01*
X2011Y829D02*
X2036Y829D01*
X1726Y828D02*
X1735Y828D01*
X1766Y828D02*
X1775Y828D01*
X1798Y828D02*
X1807Y828D01*
X1826Y828D02*
X1847Y828D01*
X1880Y828D02*
X1890Y828D01*
X1902Y828D02*
X1912Y828D01*
X1963Y828D02*
X1990Y828D01*
X2009Y828D02*
X2036Y828D01*
X1726Y827D02*
X1735Y827D01*
X1766Y827D02*
X1775Y827D01*
X1798Y827D02*
X1807Y827D01*
X1827Y827D02*
X1847Y827D01*
X1880Y827D02*
X1890Y827D01*
X1901Y827D02*
X1911Y827D01*
X1963Y827D02*
X1992Y827D01*
X2007Y827D02*
X2036Y827D01*
X1726Y826D02*
X1735Y826D01*
X1766Y826D02*
X1775Y826D01*
X1798Y826D02*
X1807Y826D01*
X1827Y826D02*
X1847Y826D01*
X1880Y826D02*
X1890Y826D01*
X1901Y826D02*
X1911Y826D01*
X1963Y826D02*
X1995Y826D01*
X2004Y826D02*
X2036Y826D01*
X1726Y825D02*
X1735Y825D01*
X1766Y825D02*
X1775Y825D01*
X1798Y825D02*
X1807Y825D01*
X1828Y825D02*
X1847Y825D01*
X1880Y825D02*
X1890Y825D01*
X1900Y825D02*
X1910Y825D01*
X1963Y825D02*
X2036Y825D01*
X1726Y824D02*
X1735Y824D01*
X1766Y824D02*
X1775Y824D01*
X1798Y824D02*
X1807Y824D01*
X1828Y824D02*
X1847Y824D01*
X1880Y824D02*
X1890Y824D01*
X1900Y824D02*
X1910Y824D01*
X1963Y824D02*
X2036Y824D01*
X1726Y823D02*
X1735Y823D01*
X1765Y823D02*
X1775Y823D01*
X1798Y823D02*
X1807Y823D01*
X1829Y823D02*
X1847Y823D01*
X1880Y823D02*
X1890Y823D01*
X1899Y823D02*
X1910Y823D01*
X1963Y823D02*
X2036Y823D01*
X1726Y822D02*
X1736Y822D01*
X1765Y822D02*
X1775Y822D01*
X1798Y822D02*
X1807Y822D01*
X1829Y822D02*
X1847Y822D01*
X1880Y822D02*
X1890Y822D01*
X1899Y822D02*
X1909Y822D01*
X1963Y822D02*
X2036Y822D01*
X1726Y821D02*
X1737Y821D01*
X1764Y821D02*
X1774Y821D01*
X1798Y821D02*
X1807Y821D01*
X1830Y821D02*
X1847Y821D01*
X1880Y821D02*
X1890Y821D01*
X1898Y821D02*
X1909Y821D01*
X1963Y821D02*
X2036Y821D01*
X1727Y820D02*
X1738Y820D01*
X1763Y820D02*
X1774Y820D01*
X1798Y820D02*
X1807Y820D01*
X1830Y820D02*
X1847Y820D01*
X1880Y820D02*
X1890Y820D01*
X1897Y820D02*
X1908Y820D01*
X1963Y820D02*
X2036Y820D01*
X1727Y819D02*
X1774Y819D01*
X1798Y819D02*
X1807Y819D01*
X1830Y819D02*
X1847Y819D01*
X1874Y819D02*
X1908Y819D01*
X1963Y819D02*
X2036Y819D01*
X1727Y818D02*
X1773Y818D01*
X1798Y818D02*
X1807Y818D01*
X1831Y818D02*
X1847Y818D01*
X1872Y818D02*
X1907Y818D01*
X1963Y818D02*
X2036Y818D01*
X1728Y817D02*
X1773Y817D01*
X1798Y817D02*
X1807Y817D01*
X1831Y817D02*
X1847Y817D01*
X1871Y817D02*
X1907Y817D01*
X1963Y817D02*
X2036Y817D01*
X1729Y816D02*
X1772Y816D01*
X1798Y816D02*
X1807Y816D01*
X1832Y816D02*
X1847Y816D01*
X1871Y816D02*
X1906Y816D01*
X1963Y816D02*
X2036Y816D01*
X1729Y815D02*
X1771Y815D01*
X1798Y815D02*
X1807Y815D01*
X1832Y815D02*
X1847Y815D01*
X1871Y815D02*
X1905Y815D01*
X1963Y815D02*
X2036Y815D01*
X1730Y814D02*
X1771Y814D01*
X1798Y814D02*
X1807Y814D01*
X1833Y814D02*
X1847Y814D01*
X1871Y814D02*
X1904Y814D01*
X1963Y814D02*
X2036Y814D01*
X1731Y813D02*
X1769Y813D01*
X1799Y813D02*
X1807Y813D01*
X1833Y813D02*
X1847Y813D01*
X1871Y813D02*
X1903Y813D01*
X1963Y813D02*
X2036Y813D01*
X1732Y812D02*
X1768Y812D01*
X1799Y812D02*
X1807Y812D01*
X1833Y812D02*
X1847Y812D01*
X1871Y812D02*
X1902Y812D01*
X1963Y812D02*
X2036Y812D01*
X1734Y811D02*
X1767Y811D01*
X1800Y811D02*
X1806Y811D01*
X1834Y811D02*
X1847Y811D01*
X1872Y811D02*
X1900Y811D01*
X1963Y811D02*
X2036Y811D01*
X1736Y810D02*
X1764Y810D01*
X1801Y810D02*
X1805Y810D01*
X1834Y810D02*
X1847Y810D01*
X1873Y810D02*
X1898Y810D01*
X1963Y810D02*
X2036Y810D01*
X1963Y809D02*
X2036Y809D01*
X1755Y787D02*
X1791Y787D01*
X1821Y787D02*
X1824Y787D01*
X1860Y787D02*
X1864Y787D01*
X1755Y786D02*
X1793Y786D01*
X1819Y786D02*
X1825Y786D01*
X1859Y786D02*
X1865Y786D01*
X1755Y785D02*
X1794Y785D01*
X1819Y785D02*
X1826Y785D01*
X1858Y785D02*
X1866Y785D01*
X1755Y784D02*
X1794Y784D01*
X1818Y784D02*
X1827Y784D01*
X1858Y784D02*
X1866Y784D01*
X1755Y783D02*
X1794Y783D01*
X1818Y783D02*
X1827Y783D01*
X1858Y783D02*
X1867Y783D01*
X1755Y782D02*
X1794Y782D01*
X1818Y782D02*
X1827Y782D01*
X1858Y782D02*
X1867Y782D01*
X1755Y781D02*
X1794Y781D01*
X1818Y781D02*
X1827Y781D01*
X1858Y781D02*
X1867Y781D01*
X1755Y780D02*
X1794Y780D01*
X1818Y780D02*
X1827Y780D01*
X1858Y780D02*
X1867Y780D01*
X1755Y779D02*
X1793Y779D01*
X1818Y779D02*
X1827Y779D01*
X1858Y779D02*
X1867Y779D01*
X1755Y778D02*
X1791Y778D01*
X1818Y778D02*
X1827Y778D01*
X1858Y778D02*
X1867Y778D01*
X1755Y777D02*
X1765Y777D01*
X1818Y777D02*
X1827Y777D01*
X1858Y777D02*
X1867Y777D01*
X1755Y776D02*
X1765Y776D01*
X1818Y776D02*
X1827Y776D01*
X1858Y776D02*
X1867Y776D01*
X1755Y775D02*
X1765Y775D01*
X1818Y775D02*
X1827Y775D01*
X1858Y775D02*
X1867Y775D01*
X1755Y774D02*
X1765Y774D01*
X1818Y774D02*
X1827Y774D01*
X1858Y774D02*
X1867Y774D01*
X1755Y773D02*
X1765Y773D01*
X1818Y773D02*
X1827Y773D01*
X1858Y773D02*
X1867Y773D01*
X1755Y772D02*
X1765Y772D01*
X1818Y772D02*
X1827Y772D01*
X1858Y772D02*
X1867Y772D01*
X1755Y771D02*
X1765Y771D01*
X1818Y771D02*
X1827Y771D01*
X1858Y771D02*
X1867Y771D01*
X1755Y770D02*
X1765Y770D01*
X1818Y770D02*
X1827Y770D01*
X1858Y770D02*
X1867Y770D01*
X1755Y769D02*
X1765Y769D01*
X1818Y769D02*
X1827Y769D01*
X1858Y769D02*
X1867Y769D01*
X1755Y768D02*
X1765Y768D01*
X1818Y768D02*
X1827Y768D01*
X1858Y768D02*
X1867Y768D01*
X1755Y767D02*
X1765Y767D01*
X1818Y767D02*
X1827Y767D01*
X1858Y767D02*
X1867Y767D01*
X1755Y766D02*
X1765Y766D01*
X1818Y766D02*
X1827Y766D01*
X1857Y766D02*
X1867Y766D01*
X1755Y765D02*
X1765Y765D01*
X1818Y765D02*
X1828Y765D01*
X1857Y765D02*
X1867Y765D01*
X1755Y764D02*
X1765Y764D01*
X1818Y764D02*
X1828Y764D01*
X1857Y764D02*
X1866Y764D01*
X1755Y763D02*
X1765Y763D01*
X1818Y763D02*
X1828Y763D01*
X1856Y763D02*
X1866Y763D01*
X1755Y762D02*
X1765Y762D01*
X1819Y762D02*
X1829Y762D01*
X1856Y762D02*
X1866Y762D01*
X1755Y761D02*
X1765Y761D01*
X1819Y761D02*
X1829Y761D01*
X1855Y761D02*
X1865Y761D01*
X1755Y760D02*
X1765Y760D01*
X1820Y760D02*
X1829Y760D01*
X1855Y760D02*
X1865Y760D01*
X1755Y759D02*
X1765Y759D01*
X1820Y759D02*
X1830Y759D01*
X1855Y759D02*
X1864Y759D01*
X1755Y758D02*
X1765Y758D01*
X1820Y758D02*
X1830Y758D01*
X1854Y758D02*
X1864Y758D01*
X1755Y757D02*
X1765Y757D01*
X1821Y757D02*
X1831Y757D01*
X1854Y757D02*
X1864Y757D01*
X1755Y756D02*
X1765Y756D01*
X1821Y756D02*
X1831Y756D01*
X1853Y756D02*
X1863Y756D01*
X1755Y755D02*
X1765Y755D01*
X1822Y755D02*
X1831Y755D01*
X1853Y755D02*
X1863Y755D01*
X1755Y754D02*
X1765Y754D01*
X1822Y754D02*
X1832Y754D01*
X1853Y754D02*
X1863Y754D01*
X1755Y753D02*
X1788Y753D01*
X1822Y753D02*
X1832Y753D01*
X1852Y753D02*
X1862Y753D01*
X1755Y752D02*
X1790Y752D01*
X1823Y752D02*
X1833Y752D01*
X1852Y752D02*
X1862Y752D01*
X1755Y751D02*
X1791Y751D01*
X1823Y751D02*
X1833Y751D01*
X1851Y751D02*
X1861Y751D01*
X1755Y750D02*
X1792Y750D01*
X1823Y750D02*
X1833Y750D01*
X1851Y750D02*
X1861Y750D01*
X1755Y749D02*
X1793Y749D01*
X1824Y749D02*
X1834Y749D01*
X1851Y749D02*
X1861Y749D01*
X1755Y748D02*
X1793Y748D01*
X1824Y748D02*
X1834Y748D01*
X1850Y748D02*
X1860Y748D01*
X1755Y747D02*
X1794Y747D01*
X1825Y747D02*
X1835Y747D01*
X1850Y747D02*
X1860Y747D01*
X1755Y746D02*
X1794Y746D01*
X1825Y746D02*
X1835Y746D01*
X1850Y746D02*
X1859Y746D01*
X1755Y745D02*
X1794Y745D01*
X1825Y745D02*
X1835Y745D01*
X1849Y745D02*
X1859Y745D01*
X1755Y744D02*
X1794Y744D01*
X1826Y744D02*
X1836Y744D01*
X1849Y744D02*
X1859Y744D01*
X1785Y743D02*
X1794Y743D01*
X1826Y743D02*
X1836Y743D01*
X1848Y743D02*
X1858Y743D01*
X1785Y742D02*
X1794Y742D01*
X1827Y742D02*
X1837Y742D01*
X1848Y742D02*
X1858Y742D01*
X1785Y741D02*
X1794Y741D01*
X1827Y741D02*
X1837Y741D01*
X1848Y741D02*
X1857Y741D01*
X1785Y740D02*
X1794Y740D01*
X1827Y740D02*
X1837Y740D01*
X1847Y740D02*
X1857Y740D01*
X1785Y739D02*
X1794Y739D01*
X1828Y739D02*
X1838Y739D01*
X1847Y739D02*
X1857Y739D01*
X1785Y738D02*
X1794Y738D01*
X1828Y738D02*
X1838Y738D01*
X1846Y738D02*
X1856Y738D01*
X1785Y737D02*
X1794Y737D01*
X1829Y737D02*
X1838Y737D01*
X1846Y737D02*
X1856Y737D01*
X1785Y736D02*
X1794Y736D01*
X1829Y736D02*
X1839Y736D01*
X1846Y736D02*
X1856Y736D01*
X1785Y735D02*
X1794Y735D01*
X1829Y735D02*
X1839Y735D01*
X1845Y735D02*
X1855Y735D01*
X1785Y734D02*
X1794Y734D01*
X1830Y734D02*
X1840Y734D01*
X1845Y734D02*
X1855Y734D01*
X1785Y733D02*
X1794Y733D01*
X1830Y733D02*
X1840Y733D01*
X1844Y733D02*
X1854Y733D01*
X1785Y732D02*
X1794Y732D01*
X1830Y732D02*
X1840Y732D01*
X1844Y732D02*
X1854Y732D01*
X1785Y731D02*
X1794Y731D01*
X1831Y731D02*
X1841Y731D01*
X1844Y731D02*
X1854Y731D01*
X1785Y730D02*
X1794Y730D01*
X1831Y730D02*
X1841Y730D01*
X1843Y730D02*
X1853Y730D01*
X1785Y729D02*
X1794Y729D01*
X1832Y729D02*
X1853Y729D01*
X1785Y728D02*
X1794Y728D01*
X1832Y728D02*
X1852Y728D01*
X1785Y727D02*
X1794Y727D01*
X1832Y727D02*
X1852Y727D01*
X1785Y726D02*
X1794Y726D01*
X1833Y726D02*
X1852Y726D01*
X1785Y725D02*
X1794Y725D01*
X1833Y725D02*
X1851Y725D01*
X1785Y724D02*
X1794Y724D01*
X1834Y724D02*
X1851Y724D01*
X1748Y723D02*
X1753Y723D01*
X1785Y723D02*
X1794Y723D01*
X1834Y723D02*
X1850Y723D01*
X1747Y722D02*
X1755Y722D01*
X1785Y722D02*
X1794Y722D01*
X1834Y722D02*
X1850Y722D01*
X1746Y721D02*
X1757Y721D01*
X1785Y721D02*
X1794Y721D01*
X1835Y721D02*
X1850Y721D01*
X1746Y720D02*
X1760Y720D01*
X1785Y720D02*
X1794Y720D01*
X1835Y720D02*
X1849Y720D01*
X1746Y719D02*
X1794Y719D01*
X1836Y719D02*
X1849Y719D01*
X1746Y718D02*
X1794Y718D01*
X1836Y718D02*
X1848Y718D01*
X1746Y717D02*
X1794Y717D01*
X1836Y717D02*
X1848Y717D01*
X1746Y716D02*
X1794Y716D01*
X1837Y716D02*
X1848Y716D01*
X1747Y715D02*
X1793Y715D01*
X1837Y715D02*
X1847Y715D01*
X1749Y714D02*
X1793Y714D01*
X1837Y714D02*
X1847Y714D01*
X1751Y713D02*
X1792Y713D01*
X1838Y713D02*
X1847Y713D01*
X1753Y712D02*
X1791Y712D01*
X1838Y712D02*
X1846Y712D01*
X1756Y711D02*
X1789Y711D01*
X1839Y711D02*
X1845Y711D01*
X1759Y710D02*
X1787Y710D01*
X1841Y710D02*
X1844Y710D01*
X1712Y691D02*
X1741Y691D01*
X1779Y691D02*
X1801Y691D01*
X1871Y691D02*
X1873Y691D01*
X1709Y690D02*
X1744Y690D01*
X1777Y690D02*
X1804Y690D01*
X1869Y690D02*
X1875Y690D01*
X1708Y689D02*
X1746Y689D01*
X1776Y689D02*
X1806Y689D01*
X1868Y689D02*
X1876Y689D01*
X1706Y688D02*
X1747Y688D01*
X1776Y688D02*
X1807Y688D01*
X1868Y688D02*
X1876Y688D01*
X1705Y687D02*
X1748Y687D01*
X1775Y687D02*
X1808Y687D01*
X1867Y687D02*
X1876Y687D01*
X1705Y686D02*
X1749Y686D01*
X1775Y686D02*
X1809Y686D01*
X1867Y686D02*
X1877Y686D01*
X1704Y685D02*
X1750Y685D01*
X1775Y685D02*
X1810Y685D01*
X1867Y685D02*
X1877Y685D01*
X1704Y684D02*
X1750Y684D01*
X1776Y684D02*
X1811Y684D01*
X1866Y684D02*
X1877Y684D01*
X1703Y683D02*
X1751Y683D01*
X1776Y683D02*
X1811Y683D01*
X1866Y683D02*
X1878Y683D01*
X1703Y682D02*
X1751Y682D01*
X1778Y682D02*
X1812Y682D01*
X1866Y682D02*
X1878Y682D01*
X1703Y681D02*
X1713Y681D01*
X1740Y681D02*
X1751Y681D01*
X1785Y681D02*
X1794Y681D01*
X1800Y681D02*
X1812Y681D01*
X1866Y681D02*
X1878Y681D01*
X1703Y680D02*
X1712Y680D01*
X1742Y680D02*
X1752Y680D01*
X1785Y680D02*
X1794Y680D01*
X1802Y680D02*
X1813Y680D01*
X1865Y680D02*
X1878Y680D01*
X1703Y679D02*
X1712Y679D01*
X1742Y679D02*
X1752Y679D01*
X1785Y679D02*
X1794Y679D01*
X1803Y679D02*
X1813Y679D01*
X1865Y679D02*
X1879Y679D01*
X1703Y678D02*
X1713Y678D01*
X1743Y678D02*
X1752Y678D01*
X1785Y678D02*
X1794Y678D01*
X1803Y678D02*
X1814Y678D01*
X1865Y678D02*
X1879Y678D01*
X1703Y677D02*
X1714Y677D01*
X1743Y677D02*
X1752Y677D01*
X1785Y677D02*
X1794Y677D01*
X1804Y677D02*
X1814Y677D01*
X1864Y677D02*
X1879Y677D01*
X1704Y676D02*
X1715Y676D01*
X1743Y676D02*
X1751Y676D01*
X1785Y676D02*
X1794Y676D01*
X1804Y676D02*
X1815Y676D01*
X1864Y676D02*
X1880Y676D01*
X1704Y675D02*
X1716Y675D01*
X1744Y675D02*
X1751Y675D01*
X1785Y675D02*
X1794Y675D01*
X1805Y675D02*
X1815Y675D01*
X1864Y675D02*
X1880Y675D01*
X1705Y674D02*
X1716Y674D01*
X1744Y674D02*
X1750Y674D01*
X1785Y674D02*
X1794Y674D01*
X1805Y674D02*
X1816Y674D01*
X1864Y674D02*
X1880Y674D01*
X1705Y673D02*
X1717Y673D01*
X1746Y673D02*
X1748Y673D01*
X1785Y673D02*
X1794Y673D01*
X1806Y673D02*
X1816Y673D01*
X1863Y673D02*
X1881Y673D01*
X1706Y672D02*
X1718Y672D01*
X1785Y672D02*
X1794Y672D01*
X1806Y672D02*
X1817Y672D01*
X1863Y672D02*
X1881Y672D01*
X1707Y671D02*
X1719Y671D01*
X1785Y671D02*
X1794Y671D01*
X1807Y671D02*
X1817Y671D01*
X1863Y671D02*
X1881Y671D01*
X1707Y670D02*
X1719Y670D01*
X1785Y670D02*
X1794Y670D01*
X1807Y670D02*
X1818Y670D01*
X1862Y670D02*
X1881Y670D01*
X1708Y669D02*
X1720Y669D01*
X1785Y669D02*
X1794Y669D01*
X1808Y669D02*
X1818Y669D01*
X1862Y669D02*
X1882Y669D01*
X1709Y668D02*
X1721Y668D01*
X1785Y668D02*
X1794Y668D01*
X1809Y668D02*
X1819Y668D01*
X1862Y668D02*
X1882Y668D01*
X1710Y667D02*
X1722Y667D01*
X1785Y667D02*
X1794Y667D01*
X1809Y667D02*
X1819Y667D01*
X1861Y667D02*
X1871Y667D01*
X1873Y667D02*
X1882Y667D01*
X1711Y666D02*
X1723Y666D01*
X1785Y666D02*
X1794Y666D01*
X1810Y666D02*
X1820Y666D01*
X1861Y666D02*
X1871Y666D01*
X1873Y666D02*
X1883Y666D01*
X1711Y665D02*
X1723Y665D01*
X1785Y665D02*
X1794Y665D01*
X1810Y665D02*
X1820Y665D01*
X1861Y665D02*
X1870Y665D01*
X1873Y665D02*
X1883Y665D01*
X1712Y664D02*
X1724Y664D01*
X1785Y664D02*
X1794Y664D01*
X1811Y664D02*
X1821Y664D01*
X1861Y664D02*
X1870Y664D01*
X1874Y664D02*
X1883Y664D01*
X1713Y663D02*
X1725Y663D01*
X1785Y663D02*
X1794Y663D01*
X1811Y663D02*
X1821Y663D01*
X1860Y663D02*
X1870Y663D01*
X1874Y663D02*
X1883Y663D01*
X1714Y662D02*
X1726Y662D01*
X1785Y662D02*
X1794Y662D01*
X1812Y662D02*
X1822Y662D01*
X1860Y662D02*
X1870Y662D01*
X1874Y662D02*
X1884Y662D01*
X1714Y661D02*
X1726Y661D01*
X1785Y661D02*
X1794Y661D01*
X1812Y661D02*
X1822Y661D01*
X1860Y661D02*
X1869Y661D01*
X1874Y661D02*
X1884Y661D01*
X1715Y660D02*
X1727Y660D01*
X1785Y660D02*
X1794Y660D01*
X1813Y660D02*
X1823Y660D01*
X1859Y660D02*
X1869Y660D01*
X1875Y660D02*
X1884Y660D01*
X1716Y659D02*
X1728Y659D01*
X1785Y659D02*
X1794Y659D01*
X1813Y659D02*
X1823Y659D01*
X1859Y659D02*
X1869Y659D01*
X1875Y659D02*
X1885Y659D01*
X1717Y658D02*
X1729Y658D01*
X1785Y658D02*
X1794Y658D01*
X1814Y658D02*
X1823Y658D01*
X1859Y658D02*
X1868Y658D01*
X1875Y658D02*
X1885Y658D01*
X1718Y657D02*
X1730Y657D01*
X1785Y657D02*
X1794Y657D01*
X1814Y657D02*
X1823Y657D01*
X1859Y657D02*
X1868Y657D01*
X1876Y657D02*
X1885Y657D01*
X1718Y656D02*
X1730Y656D01*
X1785Y656D02*
X1794Y656D01*
X1814Y656D02*
X1824Y656D01*
X1858Y656D02*
X1868Y656D01*
X1876Y656D02*
X1885Y656D01*
X1719Y655D02*
X1731Y655D01*
X1785Y655D02*
X1794Y655D01*
X1815Y655D02*
X1824Y655D01*
X1858Y655D02*
X1867Y655D01*
X1876Y655D02*
X1886Y655D01*
X1720Y654D02*
X1732Y654D01*
X1785Y654D02*
X1794Y654D01*
X1815Y654D02*
X1824Y654D01*
X1858Y654D02*
X1867Y654D01*
X1877Y654D02*
X1886Y654D01*
X1721Y653D02*
X1733Y653D01*
X1785Y653D02*
X1794Y653D01*
X1815Y653D02*
X1824Y653D01*
X1857Y653D02*
X1867Y653D01*
X1877Y653D02*
X1886Y653D01*
X1721Y652D02*
X1733Y652D01*
X1785Y652D02*
X1794Y652D01*
X1815Y652D02*
X1824Y652D01*
X1857Y652D02*
X1867Y652D01*
X1877Y652D02*
X1887Y652D01*
X1722Y651D02*
X1734Y651D01*
X1785Y651D02*
X1794Y651D01*
X1815Y651D02*
X1824Y651D01*
X1857Y651D02*
X1866Y651D01*
X1877Y651D02*
X1887Y651D01*
X1723Y650D02*
X1735Y650D01*
X1785Y650D02*
X1794Y650D01*
X1815Y650D02*
X1824Y650D01*
X1856Y650D02*
X1866Y650D01*
X1878Y650D02*
X1887Y650D01*
X1724Y649D02*
X1736Y649D01*
X1785Y649D02*
X1794Y649D01*
X1814Y649D02*
X1824Y649D01*
X1856Y649D02*
X1866Y649D01*
X1878Y649D02*
X1888Y649D01*
X1725Y648D02*
X1737Y648D01*
X1785Y648D02*
X1794Y648D01*
X1814Y648D02*
X1824Y648D01*
X1856Y648D02*
X1865Y648D01*
X1878Y648D02*
X1888Y648D01*
X1725Y647D02*
X1737Y647D01*
X1785Y647D02*
X1794Y647D01*
X1814Y647D02*
X1823Y647D01*
X1856Y647D02*
X1865Y647D01*
X1879Y647D02*
X1888Y647D01*
X1726Y646D02*
X1738Y646D01*
X1785Y646D02*
X1794Y646D01*
X1813Y646D02*
X1823Y646D01*
X1855Y646D02*
X1865Y646D01*
X1879Y646D02*
X1888Y646D01*
X1727Y645D02*
X1739Y645D01*
X1785Y645D02*
X1794Y645D01*
X1813Y645D02*
X1823Y645D01*
X1855Y645D02*
X1865Y645D01*
X1879Y645D02*
X1889Y645D01*
X1728Y644D02*
X1740Y644D01*
X1785Y644D02*
X1794Y644D01*
X1812Y644D02*
X1822Y644D01*
X1855Y644D02*
X1864Y644D01*
X1879Y644D02*
X1889Y644D01*
X1728Y643D02*
X1740Y643D01*
X1785Y643D02*
X1794Y643D01*
X1812Y643D02*
X1822Y643D01*
X1854Y643D02*
X1864Y643D01*
X1880Y643D02*
X1889Y643D01*
X1729Y642D02*
X1741Y642D01*
X1785Y642D02*
X1794Y642D01*
X1811Y642D02*
X1822Y642D01*
X1854Y642D02*
X1864Y642D01*
X1880Y642D02*
X1890Y642D01*
X1730Y641D02*
X1742Y641D01*
X1785Y641D02*
X1794Y641D01*
X1811Y641D02*
X1821Y641D01*
X1854Y641D02*
X1863Y641D01*
X1880Y641D02*
X1890Y641D01*
X1731Y640D02*
X1743Y640D01*
X1785Y640D02*
X1794Y640D01*
X1810Y640D02*
X1821Y640D01*
X1854Y640D02*
X1890Y640D01*
X1732Y639D02*
X1744Y639D01*
X1785Y639D02*
X1794Y639D01*
X1810Y639D02*
X1820Y639D01*
X1853Y639D02*
X1890Y639D01*
X1732Y638D02*
X1744Y638D01*
X1785Y638D02*
X1794Y638D01*
X1809Y638D02*
X1820Y638D01*
X1853Y638D02*
X1891Y638D01*
X1733Y637D02*
X1745Y637D01*
X1785Y637D02*
X1794Y637D01*
X1809Y637D02*
X1819Y637D01*
X1853Y637D02*
X1891Y637D01*
X1734Y636D02*
X1746Y636D01*
X1785Y636D02*
X1794Y636D01*
X1808Y636D02*
X1819Y636D01*
X1852Y636D02*
X1891Y636D01*
X1735Y635D02*
X1747Y635D01*
X1785Y635D02*
X1794Y635D01*
X1808Y635D02*
X1818Y635D01*
X1852Y635D02*
X1892Y635D01*
X1735Y634D02*
X1747Y634D01*
X1785Y634D02*
X1794Y634D01*
X1807Y634D02*
X1818Y634D01*
X1852Y634D02*
X1892Y634D01*
X1736Y633D02*
X1748Y633D01*
X1785Y633D02*
X1794Y633D01*
X1807Y633D02*
X1817Y633D01*
X1852Y633D02*
X1892Y633D01*
X1737Y632D02*
X1749Y632D01*
X1785Y632D02*
X1794Y632D01*
X1806Y632D02*
X1817Y632D01*
X1851Y632D02*
X1892Y632D01*
X1705Y631D02*
X1710Y631D01*
X1738Y631D02*
X1750Y631D01*
X1785Y631D02*
X1794Y631D01*
X1806Y631D02*
X1816Y631D01*
X1851Y631D02*
X1893Y631D01*
X1704Y630D02*
X1711Y630D01*
X1739Y630D02*
X1750Y630D01*
X1785Y630D02*
X1794Y630D01*
X1805Y630D02*
X1816Y630D01*
X1851Y630D02*
X1860Y630D01*
X1883Y630D02*
X1893Y630D01*
X1704Y629D02*
X1711Y629D01*
X1739Y629D02*
X1751Y629D01*
X1785Y629D02*
X1794Y629D01*
X1805Y629D02*
X1815Y629D01*
X1850Y629D02*
X1860Y629D01*
X1884Y629D02*
X1893Y629D01*
X1703Y628D02*
X1712Y628D01*
X1740Y628D02*
X1751Y628D01*
X1785Y628D02*
X1794Y628D01*
X1804Y628D02*
X1815Y628D01*
X1850Y628D02*
X1860Y628D01*
X1884Y628D02*
X1894Y628D01*
X1703Y627D02*
X1712Y627D01*
X1741Y627D02*
X1752Y627D01*
X1785Y627D02*
X1794Y627D01*
X1804Y627D02*
X1814Y627D01*
X1850Y627D02*
X1859Y627D01*
X1884Y627D02*
X1894Y627D01*
X1703Y626D02*
X1712Y626D01*
X1742Y626D02*
X1752Y626D01*
X1785Y626D02*
X1794Y626D01*
X1803Y626D02*
X1814Y626D01*
X1849Y626D02*
X1859Y626D01*
X1885Y626D02*
X1894Y626D01*
X1703Y625D02*
X1713Y625D01*
X1742Y625D02*
X1752Y625D01*
X1785Y625D02*
X1794Y625D01*
X1802Y625D02*
X1813Y625D01*
X1849Y625D02*
X1859Y625D01*
X1885Y625D02*
X1894Y625D01*
X1703Y624D02*
X1714Y624D01*
X1742Y624D02*
X1752Y624D01*
X1785Y624D02*
X1794Y624D01*
X1801Y624D02*
X1813Y624D01*
X1849Y624D02*
X1858Y624D01*
X1885Y624D02*
X1895Y624D01*
X1704Y623D02*
X1752Y623D01*
X1778Y623D02*
X1812Y623D01*
X1849Y623D02*
X1858Y623D01*
X1886Y623D02*
X1895Y623D01*
X1704Y622D02*
X1751Y622D01*
X1777Y622D02*
X1812Y622D01*
X1848Y622D02*
X1858Y622D01*
X1886Y622D02*
X1895Y622D01*
X1704Y621D02*
X1751Y621D01*
X1776Y621D02*
X1811Y621D01*
X1848Y621D02*
X1858Y621D01*
X1886Y621D02*
X1896Y621D01*
X1705Y620D02*
X1751Y620D01*
X1776Y620D02*
X1811Y620D01*
X1848Y620D02*
X1857Y620D01*
X1887Y620D02*
X1896Y620D01*
X1706Y619D02*
X1750Y619D01*
X1775Y619D02*
X1810Y619D01*
X1847Y619D02*
X1857Y619D01*
X1887Y619D02*
X1896Y619D01*
X1706Y618D02*
X1749Y618D01*
X1775Y618D02*
X1809Y618D01*
X1847Y618D02*
X1857Y618D01*
X1887Y618D02*
X1896Y618D01*
X1707Y617D02*
X1749Y617D01*
X1775Y617D02*
X1808Y617D01*
X1848Y617D02*
X1856Y617D01*
X1887Y617D02*
X1896Y617D01*
X1709Y616D02*
X1748Y616D01*
X1776Y616D02*
X1807Y616D01*
X1848Y616D02*
X1856Y616D01*
X1888Y616D02*
X1896Y616D01*
X1710Y615D02*
X1746Y615D01*
X1777Y615D02*
X1805Y615D01*
X1849Y615D02*
X1855Y615D01*
X1889Y615D02*
X1895Y615D01*
X1712Y614D02*
X1744Y614D01*
X1778Y614D02*
X1803Y614D01*
X1850Y614D02*
X1854Y614D01*
X1890Y614D02*
X1894Y614D01*
X1717Y591D02*
X1749Y591D01*
X1803Y591D02*
X1828Y591D01*
X1857Y591D02*
X1860Y591D01*
X1715Y590D02*
X1751Y590D01*
X1801Y590D02*
X1829Y590D01*
X1855Y590D02*
X1862Y590D01*
X1714Y589D02*
X1753Y589D01*
X1799Y589D02*
X1830Y589D01*
X1855Y589D02*
X1862Y589D01*
X1712Y588D02*
X1754Y588D01*
X1798Y588D02*
X1830Y588D01*
X1854Y588D02*
X1863Y588D01*
X1712Y587D02*
X1755Y587D01*
X1797Y587D02*
X1830Y587D01*
X1854Y587D02*
X1863Y587D01*
X1711Y586D02*
X1756Y586D01*
X1796Y586D02*
X1830Y586D01*
X1854Y586D02*
X1863Y586D01*
X1710Y585D02*
X1756Y585D01*
X1795Y585D02*
X1830Y585D01*
X1854Y585D02*
X1863Y585D01*
X1710Y584D02*
X1757Y584D01*
X1795Y584D02*
X1830Y584D01*
X1854Y584D02*
X1863Y584D01*
X1710Y583D02*
X1757Y583D01*
X1794Y583D02*
X1829Y583D01*
X1854Y583D02*
X1863Y583D01*
X1710Y582D02*
X1758Y582D01*
X1794Y582D02*
X1827Y582D01*
X1854Y582D02*
X1863Y582D01*
X1709Y581D02*
X1719Y581D01*
X1747Y581D02*
X1758Y581D01*
X1793Y581D02*
X1805Y581D01*
X1854Y581D02*
X1863Y581D01*
X1709Y580D02*
X1719Y580D01*
X1748Y580D02*
X1758Y580D01*
X1793Y580D02*
X1803Y580D01*
X1854Y580D02*
X1863Y580D01*
X1710Y579D02*
X1719Y579D01*
X1749Y579D02*
X1758Y579D01*
X1792Y579D02*
X1803Y579D01*
X1854Y579D02*
X1863Y579D01*
X1562Y578D02*
X1566Y578D01*
X1630Y578D02*
X1634Y578D01*
X1710Y578D02*
X1720Y578D01*
X1749Y578D02*
X1758Y578D01*
X1792Y578D02*
X1802Y578D01*
X1854Y578D02*
X1863Y578D01*
X1561Y577D02*
X1567Y577D01*
X1628Y577D02*
X1635Y577D01*
X1710Y577D02*
X1721Y577D01*
X1749Y577D02*
X1758Y577D01*
X1791Y577D02*
X1802Y577D01*
X1854Y577D02*
X1863Y577D01*
X1560Y576D02*
X1568Y576D01*
X1628Y576D02*
X1636Y576D01*
X1710Y576D02*
X1722Y576D01*
X1750Y576D02*
X1758Y576D01*
X1791Y576D02*
X1801Y576D01*
X1854Y576D02*
X1863Y576D01*
X1560Y575D02*
X1568Y575D01*
X1628Y575D02*
X1636Y575D01*
X1711Y575D02*
X1722Y575D01*
X1750Y575D02*
X1757Y575D01*
X1790Y575D02*
X1801Y575D01*
X1854Y575D02*
X1863Y575D01*
X1559Y574D02*
X1569Y574D01*
X1627Y574D02*
X1636Y574D01*
X1711Y574D02*
X1723Y574D01*
X1751Y574D02*
X1756Y574D01*
X1790Y574D02*
X1800Y574D01*
X1854Y574D02*
X1863Y574D01*
X1559Y573D02*
X1569Y573D01*
X1627Y573D02*
X1636Y573D01*
X1712Y573D02*
X1724Y573D01*
X1789Y573D02*
X1799Y573D01*
X1854Y573D02*
X1863Y573D01*
X1559Y572D02*
X1569Y572D01*
X1627Y572D02*
X1636Y572D01*
X1713Y572D02*
X1725Y572D01*
X1789Y572D02*
X1799Y572D01*
X1854Y572D02*
X1863Y572D01*
X1559Y571D02*
X1569Y571D01*
X1627Y571D02*
X1636Y571D01*
X1713Y571D02*
X1725Y571D01*
X1788Y571D02*
X1798Y571D01*
X1854Y571D02*
X1863Y571D01*
X1559Y570D02*
X1569Y570D01*
X1627Y570D02*
X1636Y570D01*
X1714Y570D02*
X1726Y570D01*
X1788Y570D02*
X1798Y570D01*
X1854Y570D02*
X1863Y570D01*
X1559Y569D02*
X1569Y569D01*
X1598Y569D02*
X1598Y569D01*
X1627Y569D02*
X1636Y569D01*
X1715Y569D02*
X1727Y569D01*
X1787Y569D02*
X1797Y569D01*
X1854Y569D02*
X1863Y569D01*
X1559Y568D02*
X1569Y568D01*
X1595Y568D02*
X1600Y568D01*
X1627Y568D02*
X1636Y568D01*
X1716Y568D02*
X1728Y568D01*
X1787Y568D02*
X1797Y568D01*
X1854Y568D02*
X1863Y568D01*
X1559Y567D02*
X1569Y567D01*
X1594Y567D02*
X1601Y567D01*
X1627Y567D02*
X1636Y567D01*
X1717Y567D02*
X1729Y567D01*
X1786Y567D02*
X1796Y567D01*
X1854Y567D02*
X1863Y567D01*
X1559Y566D02*
X1569Y566D01*
X1594Y566D02*
X1602Y566D01*
X1627Y566D02*
X1636Y566D01*
X1717Y566D02*
X1729Y566D01*
X1786Y566D02*
X1796Y566D01*
X1854Y566D02*
X1863Y566D01*
X1559Y565D02*
X1569Y565D01*
X1594Y565D02*
X1602Y565D01*
X1627Y565D02*
X1636Y565D01*
X1718Y565D02*
X1730Y565D01*
X1785Y565D02*
X1795Y565D01*
X1854Y565D02*
X1863Y565D01*
X1559Y564D02*
X1569Y564D01*
X1593Y564D02*
X1603Y564D01*
X1627Y564D02*
X1636Y564D01*
X1719Y564D02*
X1731Y564D01*
X1785Y564D02*
X1795Y564D01*
X1854Y564D02*
X1863Y564D01*
X1559Y563D02*
X1569Y563D01*
X1593Y563D02*
X1603Y563D01*
X1627Y563D02*
X1636Y563D01*
X1720Y563D02*
X1732Y563D01*
X1784Y563D02*
X1794Y563D01*
X1854Y563D02*
X1863Y563D01*
X1559Y562D02*
X1569Y562D01*
X1593Y562D02*
X1603Y562D01*
X1627Y562D02*
X1636Y562D01*
X1720Y562D02*
X1732Y562D01*
X1784Y562D02*
X1794Y562D01*
X1854Y562D02*
X1863Y562D01*
X1559Y561D02*
X1569Y561D01*
X1593Y561D02*
X1603Y561D01*
X1627Y561D02*
X1636Y561D01*
X1721Y561D02*
X1733Y561D01*
X1783Y561D02*
X1793Y561D01*
X1854Y561D02*
X1863Y561D01*
X1559Y560D02*
X1569Y560D01*
X1593Y560D02*
X1603Y560D01*
X1627Y560D02*
X1636Y560D01*
X1722Y560D02*
X1734Y560D01*
X1783Y560D02*
X1793Y560D01*
X1854Y560D02*
X1863Y560D01*
X1559Y559D02*
X1569Y559D01*
X1593Y559D02*
X1603Y559D01*
X1627Y559D02*
X1636Y559D01*
X1723Y559D02*
X1735Y559D01*
X1783Y559D02*
X1792Y559D01*
X1854Y559D02*
X1863Y559D01*
X1559Y558D02*
X1569Y558D01*
X1593Y558D02*
X1603Y558D01*
X1627Y558D02*
X1636Y558D01*
X1724Y558D02*
X1736Y558D01*
X1782Y558D02*
X1792Y558D01*
X1854Y558D02*
X1863Y558D01*
X1559Y557D02*
X1569Y557D01*
X1593Y557D02*
X1603Y557D01*
X1627Y557D02*
X1636Y557D01*
X1724Y557D02*
X1736Y557D01*
X1782Y557D02*
X1792Y557D01*
X1854Y557D02*
X1863Y557D01*
X1559Y556D02*
X1569Y556D01*
X1593Y556D02*
X1603Y556D01*
X1627Y556D02*
X1636Y556D01*
X1725Y556D02*
X1737Y556D01*
X1782Y556D02*
X1791Y556D01*
X1854Y556D02*
X1863Y556D01*
X1559Y555D02*
X1569Y555D01*
X1593Y555D02*
X1603Y555D01*
X1627Y555D02*
X1636Y555D01*
X1726Y555D02*
X1738Y555D01*
X1782Y555D02*
X1791Y555D01*
X1854Y555D02*
X1863Y555D01*
X1559Y554D02*
X1569Y554D01*
X1593Y554D02*
X1603Y554D01*
X1627Y554D02*
X1636Y554D01*
X1727Y554D02*
X1739Y554D01*
X1782Y554D02*
X1791Y554D01*
X1854Y554D02*
X1863Y554D01*
X1559Y553D02*
X1569Y553D01*
X1593Y553D02*
X1603Y553D01*
X1627Y553D02*
X1636Y553D01*
X1727Y553D02*
X1739Y553D01*
X1782Y553D02*
X1791Y553D01*
X1854Y553D02*
X1863Y553D01*
X1559Y552D02*
X1569Y552D01*
X1593Y552D02*
X1603Y552D01*
X1627Y552D02*
X1636Y552D01*
X1728Y552D02*
X1740Y552D01*
X1782Y552D02*
X1791Y552D01*
X1854Y552D02*
X1863Y552D01*
X1559Y551D02*
X1569Y551D01*
X1593Y551D02*
X1603Y551D01*
X1627Y551D02*
X1636Y551D01*
X1729Y551D02*
X1741Y551D01*
X1782Y551D02*
X1791Y551D01*
X1854Y551D02*
X1863Y551D01*
X1559Y550D02*
X1569Y550D01*
X1593Y550D02*
X1603Y550D01*
X1627Y550D02*
X1636Y550D01*
X1730Y550D02*
X1742Y550D01*
X1782Y550D02*
X1791Y550D01*
X1854Y550D02*
X1863Y550D01*
X1559Y549D02*
X1569Y549D01*
X1593Y549D02*
X1603Y549D01*
X1627Y549D02*
X1636Y549D01*
X1731Y549D02*
X1743Y549D01*
X1782Y549D02*
X1791Y549D01*
X1854Y549D02*
X1863Y549D01*
X1559Y548D02*
X1569Y548D01*
X1593Y548D02*
X1603Y548D01*
X1627Y548D02*
X1636Y548D01*
X1731Y548D02*
X1743Y548D01*
X1782Y548D02*
X1792Y548D01*
X1854Y548D02*
X1863Y548D01*
X1559Y547D02*
X1569Y547D01*
X1593Y547D02*
X1603Y547D01*
X1627Y547D02*
X1636Y547D01*
X1732Y547D02*
X1744Y547D01*
X1782Y547D02*
X1792Y547D01*
X1854Y547D02*
X1863Y547D01*
X1559Y546D02*
X1569Y546D01*
X1593Y546D02*
X1603Y546D01*
X1627Y546D02*
X1636Y546D01*
X1733Y546D02*
X1745Y546D01*
X1783Y546D02*
X1793Y546D01*
X1854Y546D02*
X1863Y546D01*
X1559Y545D02*
X1569Y545D01*
X1593Y545D02*
X1603Y545D01*
X1627Y545D02*
X1636Y545D01*
X1734Y545D02*
X1746Y545D01*
X1783Y545D02*
X1793Y545D01*
X1854Y545D02*
X1863Y545D01*
X1559Y544D02*
X1569Y544D01*
X1593Y544D02*
X1603Y544D01*
X1627Y544D02*
X1636Y544D01*
X1734Y544D02*
X1746Y544D01*
X1783Y544D02*
X1794Y544D01*
X1854Y544D02*
X1863Y544D01*
X1559Y543D02*
X1569Y543D01*
X1593Y543D02*
X1603Y543D01*
X1627Y543D02*
X1636Y543D01*
X1735Y543D02*
X1747Y543D01*
X1784Y543D02*
X1794Y543D01*
X1854Y543D02*
X1863Y543D01*
X1559Y542D02*
X1569Y542D01*
X1593Y542D02*
X1603Y542D01*
X1627Y542D02*
X1636Y542D01*
X1736Y542D02*
X1748Y542D01*
X1784Y542D02*
X1795Y542D01*
X1854Y542D02*
X1863Y542D01*
X1559Y541D02*
X1569Y541D01*
X1592Y541D02*
X1604Y541D01*
X1627Y541D02*
X1636Y541D01*
X1737Y541D02*
X1749Y541D01*
X1785Y541D02*
X1795Y541D01*
X1854Y541D02*
X1863Y541D01*
X1559Y540D02*
X1569Y540D01*
X1591Y540D02*
X1605Y540D01*
X1627Y540D02*
X1636Y540D01*
X1738Y540D02*
X1750Y540D01*
X1785Y540D02*
X1796Y540D01*
X1854Y540D02*
X1863Y540D01*
X1559Y539D02*
X1636Y539D01*
X1738Y539D02*
X1750Y539D01*
X1786Y539D02*
X1796Y539D01*
X1854Y539D02*
X1863Y539D01*
X1560Y538D02*
X1636Y538D01*
X1739Y538D02*
X1751Y538D01*
X1786Y538D02*
X1797Y538D01*
X1854Y538D02*
X1863Y538D01*
X1560Y537D02*
X1636Y537D01*
X1740Y537D02*
X1752Y537D01*
X1787Y537D02*
X1797Y537D01*
X1854Y537D02*
X1863Y537D01*
X1560Y536D02*
X1636Y536D01*
X1741Y536D02*
X1753Y536D01*
X1787Y536D02*
X1798Y536D01*
X1854Y536D02*
X1863Y536D01*
X1560Y535D02*
X1635Y535D01*
X1741Y535D02*
X1753Y535D01*
X1788Y535D02*
X1798Y535D01*
X1854Y535D02*
X1863Y535D01*
X1561Y534D02*
X1635Y534D01*
X1742Y534D02*
X1754Y534D01*
X1788Y534D02*
X1799Y534D01*
X1854Y534D02*
X1863Y534D01*
X1562Y533D02*
X1634Y533D01*
X1743Y533D02*
X1755Y533D01*
X1789Y533D02*
X1799Y533D01*
X1854Y533D02*
X1863Y533D01*
X1563Y532D02*
X1596Y532D01*
X1600Y532D02*
X1633Y532D01*
X1713Y532D02*
X1715Y532D01*
X1744Y532D02*
X1756Y532D01*
X1789Y532D02*
X1800Y532D01*
X1854Y532D02*
X1863Y532D01*
X1564Y531D02*
X1594Y531D01*
X1601Y531D02*
X1632Y531D01*
X1711Y531D02*
X1717Y531D01*
X1745Y531D02*
X1756Y531D01*
X1790Y531D02*
X1800Y531D01*
X1854Y531D02*
X1863Y531D01*
X1566Y530D02*
X1592Y530D01*
X1604Y530D02*
X1630Y530D01*
X1710Y530D02*
X1718Y530D01*
X1745Y530D02*
X1757Y530D01*
X1790Y530D02*
X1801Y530D01*
X1854Y530D02*
X1863Y530D01*
X1710Y529D02*
X1718Y529D01*
X1746Y529D02*
X1757Y529D01*
X1791Y529D02*
X1801Y529D01*
X1854Y529D02*
X1863Y529D01*
X1710Y528D02*
X1718Y528D01*
X1747Y528D02*
X1758Y528D01*
X1791Y528D02*
X1802Y528D01*
X1854Y528D02*
X1863Y528D01*
X1709Y527D02*
X1719Y527D01*
X1748Y527D02*
X1758Y527D01*
X1792Y527D02*
X1802Y527D01*
X1854Y527D02*
X1863Y527D01*
X1710Y526D02*
X1719Y526D01*
X1748Y526D02*
X1758Y526D01*
X1792Y526D02*
X1803Y526D01*
X1854Y526D02*
X1863Y526D01*
X1710Y525D02*
X1719Y525D01*
X1749Y525D02*
X1758Y525D01*
X1793Y525D02*
X1804Y525D01*
X1854Y525D02*
X1863Y525D01*
X1710Y524D02*
X1721Y524D01*
X1748Y524D02*
X1758Y524D01*
X1793Y524D02*
X1805Y524D01*
X1854Y524D02*
X1863Y524D01*
X1710Y523D02*
X1758Y523D01*
X1794Y523D02*
X1828Y523D01*
X1854Y523D02*
X1900Y523D01*
X1710Y522D02*
X1758Y522D01*
X1794Y522D02*
X1829Y522D01*
X1854Y522D02*
X1901Y522D01*
X1711Y521D02*
X1757Y521D01*
X1795Y521D02*
X1830Y521D01*
X1854Y521D02*
X1902Y521D01*
X1712Y520D02*
X1757Y520D01*
X1796Y520D02*
X1830Y520D01*
X1854Y520D02*
X1903Y520D01*
X1712Y519D02*
X1756Y519D01*
X1796Y519D02*
X1830Y519D01*
X1854Y519D02*
X1903Y519D01*
X1713Y518D02*
X1756Y518D01*
X1797Y518D02*
X1830Y518D01*
X1854Y518D02*
X1903Y518D01*
X1714Y517D02*
X1755Y517D01*
X1799Y517D02*
X1830Y517D01*
X1854Y517D02*
X1902Y517D01*
X1715Y516D02*
X1754Y516D01*
X1800Y516D02*
X1830Y516D01*
X1854Y516D02*
X1902Y516D01*
X1717Y515D02*
X1752Y515D01*
X1802Y515D02*
X1829Y515D01*
X1854Y515D02*
X1901Y515D01*
X1720Y514D02*
X1750Y514D01*
X1805Y514D02*
X1827Y514D01*
X1854Y514D02*
X1899Y514D01*
X1458Y512D02*
X1490Y512D01*
X1455Y511D02*
X1494Y511D01*
X1453Y510D02*
X1496Y510D01*
X461Y509D02*
X496Y509D01*
X1451Y509D02*
X1498Y509D01*
X458Y508D02*
X499Y508D01*
X1450Y508D02*
X1499Y508D01*
X457Y507D02*
X501Y507D01*
X1449Y507D02*
X1500Y507D01*
X358Y506D02*
X361Y506D01*
X411Y506D02*
X415Y506D01*
X455Y506D02*
X503Y506D01*
X1448Y506D02*
X1502Y506D01*
X355Y505D02*
X363Y505D01*
X408Y505D02*
X418Y505D01*
X454Y505D02*
X504Y505D01*
X1448Y505D02*
X1503Y505D01*
X353Y504D02*
X364Y504D01*
X407Y504D02*
X420Y504D01*
X453Y504D02*
X505Y504D01*
X1447Y504D02*
X1504Y504D01*
X352Y503D02*
X364Y503D01*
X405Y503D02*
X421Y503D01*
X453Y503D02*
X507Y503D01*
X1447Y503D02*
X1506Y503D01*
X259Y502D02*
X266Y502D01*
X313Y502D02*
X321Y502D01*
X351Y502D02*
X365Y502D01*
X404Y502D02*
X422Y502D01*
X452Y502D02*
X508Y502D01*
X1446Y502D02*
X1459Y502D01*
X1489Y502D02*
X1507Y502D01*
X1674Y502D02*
X1681Y502D01*
X1727Y502D02*
X1736Y502D01*
X257Y501D02*
X267Y501D01*
X311Y501D02*
X323Y501D01*
X350Y501D02*
X365Y501D01*
X403Y501D02*
X422Y501D01*
X452Y501D02*
X509Y501D01*
X1446Y501D02*
X1457Y501D01*
X1492Y501D02*
X1508Y501D01*
X1672Y501D02*
X1682Y501D01*
X1726Y501D02*
X1737Y501D01*
X256Y500D02*
X268Y500D01*
X310Y500D02*
X324Y500D01*
X349Y500D02*
X364Y500D01*
X402Y500D02*
X423Y500D01*
X451Y500D02*
X511Y500D01*
X1446Y500D02*
X1456Y500D01*
X1494Y500D02*
X1509Y500D01*
X1671Y500D02*
X1682Y500D01*
X1724Y500D02*
X1739Y500D01*
X255Y499D02*
X268Y499D01*
X308Y499D02*
X325Y499D01*
X349Y499D02*
X364Y499D01*
X400Y499D02*
X423Y499D01*
X451Y499D02*
X462Y499D01*
X495Y499D02*
X512Y499D01*
X1446Y499D02*
X1455Y499D01*
X1495Y499D02*
X1511Y499D01*
X1669Y499D02*
X1683Y499D01*
X1723Y499D02*
X1740Y499D01*
X254Y498D02*
X268Y498D01*
X307Y498D02*
X326Y498D01*
X348Y498D02*
X363Y498D01*
X399Y498D02*
X424Y498D01*
X450Y498D02*
X461Y498D01*
X498Y498D02*
X513Y498D01*
X1446Y498D02*
X1455Y498D01*
X1497Y498D02*
X1512Y498D01*
X1669Y498D02*
X1683Y498D01*
X1722Y498D02*
X1740Y498D01*
X253Y497D02*
X268Y497D01*
X306Y497D02*
X326Y497D01*
X348Y497D02*
X362Y497D01*
X398Y497D02*
X424Y497D01*
X450Y497D02*
X460Y497D01*
X499Y497D02*
X514Y497D01*
X1446Y497D02*
X1455Y497D01*
X1498Y497D02*
X1513Y497D01*
X1668Y497D02*
X1683Y497D01*
X1720Y497D02*
X1741Y497D01*
X253Y496D02*
X268Y496D01*
X304Y496D02*
X327Y496D01*
X348Y496D02*
X359Y496D01*
X396Y496D02*
X412Y496D01*
X414Y496D02*
X424Y496D01*
X450Y496D02*
X459Y496D01*
X500Y496D02*
X516Y496D01*
X1446Y496D02*
X1455Y496D01*
X1499Y496D02*
X1515Y496D01*
X1667Y496D02*
X1683Y496D01*
X1719Y496D02*
X1741Y496D01*
X252Y495D02*
X267Y495D01*
X303Y495D02*
X327Y495D01*
X347Y495D02*
X357Y495D01*
X395Y495D02*
X411Y495D01*
X415Y495D02*
X424Y495D01*
X450Y495D02*
X459Y495D01*
X502Y495D02*
X517Y495D01*
X1446Y495D02*
X1455Y495D01*
X1500Y495D02*
X1516Y495D01*
X1667Y495D02*
X1682Y495D01*
X1718Y495D02*
X1742Y495D01*
X252Y494D02*
X266Y494D01*
X302Y494D02*
X328Y494D01*
X347Y494D02*
X356Y494D01*
X394Y494D02*
X410Y494D01*
X415Y494D02*
X424Y494D01*
X450Y494D02*
X459Y494D01*
X503Y494D02*
X518Y494D01*
X1446Y494D02*
X1455Y494D01*
X1502Y494D02*
X1517Y494D01*
X1666Y494D02*
X1681Y494D01*
X1716Y494D02*
X1742Y494D01*
X251Y493D02*
X264Y493D01*
X301Y493D02*
X328Y493D01*
X347Y493D02*
X356Y493D01*
X393Y493D02*
X408Y493D01*
X415Y493D02*
X424Y493D01*
X450Y493D02*
X459Y493D01*
X504Y493D02*
X520Y493D01*
X1446Y493D02*
X1455Y493D01*
X1503Y493D02*
X1518Y493D01*
X1666Y493D02*
X1679Y493D01*
X1715Y493D02*
X1742Y493D01*
X251Y492D02*
X261Y492D01*
X299Y492D02*
X315Y492D01*
X319Y492D02*
X328Y492D01*
X347Y492D02*
X356Y492D01*
X391Y492D02*
X407Y492D01*
X415Y492D02*
X424Y492D01*
X450Y492D02*
X459Y492D01*
X505Y492D02*
X521Y492D01*
X1446Y492D02*
X1455Y492D01*
X1504Y492D02*
X1519Y492D01*
X1666Y492D02*
X1676Y492D01*
X1714Y492D02*
X1729Y492D01*
X1733Y492D02*
X1742Y492D01*
X251Y491D02*
X260Y491D01*
X298Y491D02*
X314Y491D01*
X319Y491D02*
X328Y491D01*
X347Y491D02*
X356Y491D01*
X390Y491D02*
X406Y491D01*
X415Y491D02*
X424Y491D01*
X450Y491D02*
X459Y491D01*
X507Y491D02*
X522Y491D01*
X1446Y491D02*
X1455Y491D01*
X1506Y491D02*
X1520Y491D01*
X1575Y491D02*
X1587Y491D01*
X1665Y491D02*
X1675Y491D01*
X1713Y491D02*
X1728Y491D01*
X1733Y491D02*
X1742Y491D01*
X251Y490D02*
X260Y490D01*
X297Y490D02*
X312Y490D01*
X319Y490D02*
X328Y490D01*
X347Y490D02*
X356Y490D01*
X389Y490D02*
X404Y490D01*
X415Y490D02*
X424Y490D01*
X450Y490D02*
X459Y490D01*
X508Y490D02*
X523Y490D01*
X1446Y490D02*
X1455Y490D01*
X1507Y490D02*
X1521Y490D01*
X1573Y490D02*
X1589Y490D01*
X1665Y490D02*
X1675Y490D01*
X1711Y490D02*
X1727Y490D01*
X1733Y490D02*
X1742Y490D01*
X251Y489D02*
X260Y489D01*
X295Y489D02*
X311Y489D01*
X319Y489D02*
X328Y489D01*
X347Y489D02*
X356Y489D01*
X387Y489D02*
X403Y489D01*
X415Y489D02*
X424Y489D01*
X450Y489D02*
X459Y489D01*
X509Y489D02*
X524Y489D01*
X1446Y489D02*
X1455Y489D01*
X1508Y489D02*
X1521Y489D01*
X1573Y489D02*
X1589Y489D01*
X1665Y489D02*
X1674Y489D01*
X1710Y489D02*
X1726Y489D01*
X1733Y489D02*
X1742Y489D01*
X251Y488D02*
X260Y488D01*
X294Y488D02*
X310Y488D01*
X319Y488D02*
X328Y488D01*
X347Y488D02*
X356Y488D01*
X386Y488D02*
X402Y488D01*
X415Y488D02*
X424Y488D01*
X450Y488D02*
X459Y488D01*
X511Y488D02*
X525Y488D01*
X1446Y488D02*
X1455Y488D01*
X1509Y488D02*
X1521Y488D01*
X1572Y488D02*
X1590Y488D01*
X1665Y488D02*
X1674Y488D01*
X1709Y488D02*
X1724Y488D01*
X1733Y488D02*
X1742Y488D01*
X251Y487D02*
X260Y487D01*
X293Y487D02*
X308Y487D01*
X319Y487D02*
X328Y487D01*
X347Y487D02*
X356Y487D01*
X385Y487D02*
X401Y487D01*
X415Y487D02*
X424Y487D01*
X450Y487D02*
X459Y487D01*
X512Y487D02*
X525Y487D01*
X1446Y487D02*
X1455Y487D01*
X1474Y487D02*
X1477Y487D01*
X1511Y487D02*
X1522Y487D01*
X1572Y487D02*
X1590Y487D01*
X1665Y487D02*
X1674Y487D01*
X1707Y487D02*
X1723Y487D01*
X1733Y487D02*
X1742Y487D01*
X251Y486D02*
X260Y486D01*
X292Y486D02*
X307Y486D01*
X319Y486D02*
X328Y486D01*
X347Y486D02*
X356Y486D01*
X384Y486D02*
X399Y486D01*
X415Y486D02*
X424Y486D01*
X450Y486D02*
X459Y486D01*
X513Y486D02*
X526Y486D01*
X1446Y486D02*
X1455Y486D01*
X1473Y486D02*
X1478Y486D01*
X1512Y486D02*
X1522Y486D01*
X1572Y486D02*
X1590Y486D01*
X1665Y486D02*
X1674Y486D01*
X1706Y486D02*
X1722Y486D01*
X1733Y486D02*
X1742Y486D01*
X1782Y486D02*
X1786Y486D01*
X1835Y486D02*
X1840Y486D01*
X251Y485D02*
X260Y485D01*
X290Y485D02*
X306Y485D01*
X319Y485D02*
X328Y485D01*
X347Y485D02*
X356Y485D01*
X382Y485D02*
X398Y485D01*
X415Y485D02*
X424Y485D01*
X450Y485D02*
X459Y485D01*
X514Y485D02*
X526Y485D01*
X1446Y485D02*
X1455Y485D01*
X1472Y485D02*
X1479Y485D01*
X1513Y485D02*
X1522Y485D01*
X1572Y485D02*
X1590Y485D01*
X1665Y485D02*
X1674Y485D01*
X1705Y485D02*
X1720Y485D01*
X1733Y485D02*
X1742Y485D01*
X1779Y485D02*
X1787Y485D01*
X1833Y485D02*
X1843Y485D01*
X251Y484D02*
X260Y484D01*
X289Y484D02*
X305Y484D01*
X319Y484D02*
X328Y484D01*
X347Y484D02*
X356Y484D01*
X381Y484D02*
X397Y484D01*
X415Y484D02*
X424Y484D01*
X450Y484D02*
X459Y484D01*
X478Y484D02*
X482Y484D01*
X516Y484D02*
X526Y484D01*
X1446Y484D02*
X1455Y484D01*
X1471Y484D02*
X1480Y484D01*
X1513Y484D02*
X1522Y484D01*
X1572Y484D02*
X1590Y484D01*
X1665Y484D02*
X1674Y484D01*
X1703Y484D02*
X1719Y484D01*
X1733Y484D02*
X1742Y484D01*
X1778Y484D02*
X1788Y484D01*
X1831Y484D02*
X1844Y484D01*
X251Y483D02*
X260Y483D01*
X288Y483D02*
X303Y483D01*
X319Y483D02*
X328Y483D01*
X347Y483D02*
X356Y483D01*
X380Y483D02*
X395Y483D01*
X415Y483D02*
X424Y483D01*
X450Y483D02*
X459Y483D01*
X477Y483D02*
X483Y483D01*
X517Y483D02*
X527Y483D01*
X1446Y483D02*
X1455Y483D01*
X1471Y483D02*
X1480Y483D01*
X1513Y483D02*
X1522Y483D01*
X1572Y483D02*
X1590Y483D01*
X1665Y483D02*
X1674Y483D01*
X1702Y483D02*
X1718Y483D01*
X1733Y483D02*
X1742Y483D01*
X1776Y483D02*
X1789Y483D01*
X1830Y483D02*
X1845Y483D01*
X251Y482D02*
X260Y482D01*
X286Y482D02*
X302Y482D01*
X319Y482D02*
X328Y482D01*
X347Y482D02*
X356Y482D01*
X378Y482D02*
X394Y482D01*
X415Y482D02*
X424Y482D01*
X450Y482D02*
X459Y482D01*
X476Y482D02*
X484Y482D01*
X517Y482D02*
X527Y482D01*
X1446Y482D02*
X1455Y482D01*
X1471Y482D02*
X1480Y482D01*
X1513Y482D02*
X1523Y482D01*
X1572Y482D02*
X1590Y482D01*
X1665Y482D02*
X1674Y482D01*
X1701Y482D02*
X1717Y482D01*
X1733Y482D02*
X1742Y482D01*
X1775Y482D02*
X1789Y482D01*
X1829Y482D02*
X1846Y482D01*
X251Y481D02*
X260Y481D01*
X285Y481D02*
X301Y481D01*
X319Y481D02*
X328Y481D01*
X347Y481D02*
X356Y481D01*
X377Y481D02*
X393Y481D01*
X415Y481D02*
X424Y481D01*
X450Y481D02*
X459Y481D01*
X476Y481D02*
X484Y481D01*
X518Y481D02*
X527Y481D01*
X1446Y481D02*
X1455Y481D01*
X1471Y481D02*
X1480Y481D01*
X1513Y481D02*
X1523Y481D01*
X1572Y481D02*
X1590Y481D01*
X1665Y481D02*
X1674Y481D01*
X1700Y481D02*
X1715Y481D01*
X1733Y481D02*
X1742Y481D01*
X1774Y481D02*
X1789Y481D01*
X1827Y481D02*
X1847Y481D01*
X251Y480D02*
X260Y480D01*
X284Y480D02*
X299Y480D01*
X319Y480D02*
X328Y480D01*
X347Y480D02*
X356Y480D01*
X376Y480D02*
X392Y480D01*
X415Y480D02*
X424Y480D01*
X450Y480D02*
X459Y480D01*
X476Y480D02*
X485Y480D01*
X518Y480D02*
X527Y480D01*
X1446Y480D02*
X1455Y480D01*
X1471Y480D02*
X1480Y480D01*
X1513Y480D02*
X1523Y480D01*
X1572Y480D02*
X1590Y480D01*
X1665Y480D02*
X1674Y480D01*
X1698Y480D02*
X1714Y480D01*
X1733Y480D02*
X1742Y480D01*
X1774Y480D02*
X1789Y480D01*
X1826Y480D02*
X1847Y480D01*
X251Y479D02*
X260Y479D01*
X283Y479D02*
X298Y479D01*
X319Y479D02*
X328Y479D01*
X347Y479D02*
X356Y479D01*
X375Y479D02*
X390Y479D01*
X415Y479D02*
X424Y479D01*
X450Y479D02*
X459Y479D01*
X476Y479D02*
X485Y479D01*
X518Y479D02*
X527Y479D01*
X1446Y479D02*
X1455Y479D01*
X1471Y479D02*
X1480Y479D01*
X1513Y479D02*
X1523Y479D01*
X1572Y479D02*
X1590Y479D01*
X1665Y479D02*
X1674Y479D01*
X1697Y479D02*
X1713Y479D01*
X1733Y479D02*
X1742Y479D01*
X1773Y479D02*
X1789Y479D01*
X1825Y479D02*
X1848Y479D01*
X251Y478D02*
X260Y478D01*
X281Y478D02*
X297Y478D01*
X319Y478D02*
X328Y478D01*
X347Y478D02*
X356Y478D01*
X373Y478D02*
X389Y478D01*
X415Y478D02*
X424Y478D01*
X450Y478D02*
X459Y478D01*
X476Y478D02*
X485Y478D01*
X518Y478D02*
X527Y478D01*
X1446Y478D02*
X1455Y478D01*
X1471Y478D02*
X1480Y478D01*
X1513Y478D02*
X1523Y478D01*
X1572Y478D02*
X1590Y478D01*
X1665Y478D02*
X1674Y478D01*
X1696Y478D02*
X1711Y478D01*
X1733Y478D02*
X1742Y478D01*
X1773Y478D02*
X1788Y478D01*
X1823Y478D02*
X1848Y478D01*
X251Y477D02*
X260Y477D01*
X280Y477D02*
X296Y477D01*
X319Y477D02*
X328Y477D01*
X347Y477D02*
X356Y477D01*
X372Y477D02*
X388Y477D01*
X415Y477D02*
X424Y477D01*
X450Y477D02*
X459Y477D01*
X476Y477D02*
X485Y477D01*
X518Y477D02*
X527Y477D01*
X1446Y477D02*
X1455Y477D01*
X1471Y477D02*
X1480Y477D01*
X1513Y477D02*
X1523Y477D01*
X1572Y477D02*
X1590Y477D01*
X1665Y477D02*
X1674Y477D01*
X1694Y477D02*
X1710Y477D01*
X1733Y477D02*
X1742Y477D01*
X1772Y477D02*
X1787Y477D01*
X1822Y477D02*
X1848Y477D01*
X251Y476D02*
X260Y476D01*
X279Y476D02*
X294Y476D01*
X319Y476D02*
X328Y476D01*
X347Y476D02*
X356Y476D01*
X371Y476D02*
X386Y476D01*
X415Y476D02*
X424Y476D01*
X450Y476D02*
X459Y476D01*
X476Y476D02*
X485Y476D01*
X518Y476D02*
X527Y476D01*
X1446Y476D02*
X1455Y476D01*
X1471Y476D02*
X1480Y476D01*
X1513Y476D02*
X1523Y476D01*
X1572Y476D02*
X1590Y476D01*
X1665Y476D02*
X1674Y476D01*
X1693Y476D02*
X1709Y476D01*
X1733Y476D02*
X1742Y476D01*
X1772Y476D02*
X1783Y476D01*
X1821Y476D02*
X1836Y476D01*
X1839Y476D02*
X1848Y476D01*
X251Y475D02*
X260Y475D01*
X277Y475D02*
X293Y475D01*
X319Y475D02*
X328Y475D01*
X347Y475D02*
X356Y475D01*
X369Y475D02*
X385Y475D01*
X415Y475D02*
X424Y475D01*
X450Y475D02*
X459Y475D01*
X476Y475D02*
X485Y475D01*
X518Y475D02*
X527Y475D01*
X1446Y475D02*
X1455Y475D01*
X1471Y475D02*
X1480Y475D01*
X1513Y475D02*
X1523Y475D01*
X1573Y475D02*
X1589Y475D01*
X1665Y475D02*
X1674Y475D01*
X1692Y475D02*
X1708Y475D01*
X1733Y475D02*
X1742Y475D01*
X1772Y475D02*
X1782Y475D01*
X1820Y475D02*
X1835Y475D01*
X1839Y475D02*
X1849Y475D01*
X251Y474D02*
X260Y474D01*
X276Y474D02*
X292Y474D01*
X319Y474D02*
X328Y474D01*
X347Y474D02*
X356Y474D01*
X368Y474D02*
X384Y474D01*
X415Y474D02*
X424Y474D01*
X450Y474D02*
X459Y474D01*
X476Y474D02*
X485Y474D01*
X518Y474D02*
X527Y474D01*
X1446Y474D02*
X1456Y474D01*
X1471Y474D02*
X1480Y474D01*
X1513Y474D02*
X1523Y474D01*
X1573Y474D02*
X1589Y474D01*
X1665Y474D02*
X1674Y474D01*
X1691Y474D02*
X1706Y474D01*
X1733Y474D02*
X1742Y474D01*
X1772Y474D02*
X1781Y474D01*
X1818Y474D02*
X1834Y474D01*
X1839Y474D02*
X1849Y474D01*
X251Y473D02*
X260Y473D01*
X275Y473D02*
X291Y473D01*
X319Y473D02*
X328Y473D01*
X347Y473D02*
X356Y473D01*
X367Y473D02*
X383Y473D01*
X415Y473D02*
X424Y473D01*
X450Y473D02*
X460Y473D01*
X476Y473D02*
X485Y473D01*
X518Y473D02*
X527Y473D01*
X1446Y473D02*
X1458Y473D01*
X1471Y473D02*
X1480Y473D01*
X1513Y473D02*
X1523Y473D01*
X1574Y473D02*
X1588Y473D01*
X1665Y473D02*
X1674Y473D01*
X1689Y473D02*
X1705Y473D01*
X1733Y473D02*
X1742Y473D01*
X1772Y473D02*
X1781Y473D01*
X1817Y473D02*
X1833Y473D01*
X1839Y473D02*
X1849Y473D01*
X251Y472D02*
X260Y472D01*
X273Y472D02*
X289Y472D01*
X319Y472D02*
X328Y472D01*
X347Y472D02*
X356Y472D01*
X366Y472D02*
X381Y472D01*
X415Y472D02*
X424Y472D01*
X450Y472D02*
X460Y472D01*
X476Y472D02*
X485Y472D01*
X518Y472D02*
X527Y472D01*
X1447Y472D02*
X1480Y472D01*
X1513Y472D02*
X1523Y472D01*
X1576Y472D02*
X1586Y472D01*
X1665Y472D02*
X1674Y472D01*
X1688Y472D02*
X1704Y472D01*
X1733Y472D02*
X1742Y472D01*
X1772Y472D02*
X1781Y472D01*
X1816Y472D02*
X1831Y472D01*
X1839Y472D02*
X1849Y472D01*
X251Y471D02*
X260Y471D01*
X272Y471D02*
X288Y471D01*
X319Y471D02*
X328Y471D01*
X347Y471D02*
X356Y471D01*
X364Y471D02*
X380Y471D01*
X415Y471D02*
X424Y471D01*
X451Y471D02*
X461Y471D01*
X476Y471D02*
X485Y471D01*
X518Y471D02*
X527Y471D01*
X1447Y471D02*
X1480Y471D01*
X1513Y471D02*
X1523Y471D01*
X1665Y471D02*
X1674Y471D01*
X1687Y471D02*
X1702Y471D01*
X1733Y471D02*
X1742Y471D01*
X1772Y471D02*
X1781Y471D01*
X1814Y471D02*
X1830Y471D01*
X1839Y471D02*
X1849Y471D01*
X251Y470D02*
X260Y470D01*
X271Y470D02*
X287Y470D01*
X319Y470D02*
X328Y470D01*
X347Y470D02*
X356Y470D01*
X363Y470D02*
X379Y470D01*
X415Y470D02*
X424Y470D01*
X451Y470D02*
X464Y470D01*
X475Y470D02*
X485Y470D01*
X518Y470D02*
X527Y470D01*
X1448Y470D02*
X1480Y470D01*
X1513Y470D02*
X1523Y470D01*
X1665Y470D02*
X1674Y470D01*
X1685Y470D02*
X1701Y470D01*
X1733Y470D02*
X1742Y470D01*
X1772Y470D02*
X1781Y470D01*
X1813Y470D02*
X1829Y470D01*
X1839Y470D02*
X1849Y470D01*
X251Y469D02*
X260Y469D01*
X270Y469D02*
X285Y469D01*
X319Y469D02*
X328Y469D01*
X347Y469D02*
X356Y469D01*
X362Y469D02*
X377Y469D01*
X415Y469D02*
X424Y469D01*
X451Y469D02*
X485Y469D01*
X518Y469D02*
X527Y469D01*
X559Y469D02*
X563Y469D01*
X1448Y469D02*
X1480Y469D01*
X1513Y469D02*
X1523Y469D01*
X1665Y469D02*
X1674Y469D01*
X1684Y469D02*
X1700Y469D01*
X1733Y469D02*
X1742Y469D01*
X1772Y469D02*
X1781Y469D01*
X1812Y469D02*
X1827Y469D01*
X1839Y469D02*
X1849Y469D01*
X251Y468D02*
X260Y468D01*
X268Y468D02*
X284Y468D01*
X319Y468D02*
X328Y468D01*
X347Y468D02*
X356Y468D01*
X360Y468D02*
X376Y468D01*
X414Y468D02*
X424Y468D01*
X452Y468D02*
X485Y468D01*
X518Y468D02*
X527Y468D01*
X558Y468D02*
X564Y468D01*
X1449Y468D02*
X1480Y468D01*
X1513Y468D02*
X1523Y468D01*
X1665Y468D02*
X1674Y468D01*
X1683Y468D02*
X1699Y468D01*
X1733Y468D02*
X1742Y468D01*
X1772Y468D02*
X1781Y468D01*
X1810Y468D02*
X1826Y468D01*
X1839Y468D02*
X1849Y468D01*
X251Y467D02*
X260Y467D01*
X267Y467D02*
X283Y467D01*
X319Y467D02*
X328Y467D01*
X347Y467D02*
X357Y467D01*
X359Y467D02*
X375Y467D01*
X413Y467D02*
X424Y467D01*
X452Y467D02*
X485Y467D01*
X518Y467D02*
X527Y467D01*
X557Y467D02*
X565Y467D01*
X1450Y467D02*
X1480Y467D01*
X1513Y467D02*
X1522Y467D01*
X1665Y467D02*
X1674Y467D01*
X1682Y467D02*
X1697Y467D01*
X1733Y467D02*
X1742Y467D01*
X1772Y467D02*
X1781Y467D01*
X1809Y467D02*
X1825Y467D01*
X1839Y467D02*
X1849Y467D01*
X251Y466D02*
X260Y466D01*
X266Y466D02*
X282Y466D01*
X319Y466D02*
X328Y466D01*
X347Y466D02*
X374Y466D01*
X409Y466D02*
X423Y466D01*
X453Y466D02*
X485Y466D01*
X518Y466D02*
X527Y466D01*
X557Y466D02*
X566Y466D01*
X1451Y466D02*
X1480Y466D01*
X1514Y466D02*
X1522Y466D01*
X1665Y466D02*
X1674Y466D01*
X1680Y466D02*
X1696Y466D01*
X1733Y466D02*
X1742Y466D01*
X1772Y466D02*
X1781Y466D01*
X1808Y466D02*
X1824Y466D01*
X1839Y466D02*
X1849Y466D01*
X251Y465D02*
X260Y465D01*
X264Y465D02*
X280Y465D01*
X318Y465D02*
X328Y465D01*
X347Y465D02*
X372Y465D01*
X408Y465D02*
X423Y465D01*
X454Y465D02*
X485Y465D01*
X518Y465D02*
X527Y465D01*
X556Y465D02*
X566Y465D01*
X1452Y465D02*
X1480Y465D01*
X1514Y465D02*
X1522Y465D01*
X1665Y465D02*
X1674Y465D01*
X1679Y465D02*
X1695Y465D01*
X1733Y465D02*
X1742Y465D01*
X1772Y465D02*
X1781Y465D01*
X1807Y465D02*
X1822Y465D01*
X1839Y465D02*
X1849Y465D01*
X251Y464D02*
X260Y464D01*
X263Y464D02*
X279Y464D01*
X317Y464D02*
X328Y464D01*
X348Y464D02*
X371Y464D01*
X407Y464D02*
X423Y464D01*
X455Y464D02*
X485Y464D01*
X518Y464D02*
X527Y464D01*
X556Y464D02*
X566Y464D01*
X1454Y464D02*
X1480Y464D01*
X1515Y464D02*
X1521Y464D01*
X1665Y464D02*
X1675Y464D01*
X1678Y464D02*
X1693Y464D01*
X1732Y464D02*
X1742Y464D01*
X1772Y464D02*
X1781Y464D01*
X1805Y464D02*
X1821Y464D01*
X1839Y464D02*
X1849Y464D01*
X251Y463D02*
X278Y463D01*
X314Y463D02*
X327Y463D01*
X348Y463D02*
X370Y463D01*
X407Y463D02*
X422Y463D01*
X456Y463D02*
X485Y463D01*
X518Y463D02*
X527Y463D01*
X555Y463D02*
X566Y463D01*
X1457Y463D02*
X1480Y463D01*
X1516Y463D02*
X1520Y463D01*
X1665Y463D02*
X1692Y463D01*
X1728Y463D02*
X1742Y463D01*
X1772Y463D02*
X1781Y463D01*
X1804Y463D02*
X1820Y463D01*
X1839Y463D02*
X1849Y463D01*
X251Y462D02*
X276Y462D01*
X312Y462D02*
X327Y462D01*
X349Y462D02*
X368Y462D01*
X407Y462D02*
X421Y462D01*
X457Y462D02*
X485Y462D01*
X519Y462D02*
X526Y462D01*
X555Y462D02*
X565Y462D01*
X1666Y462D02*
X1691Y462D01*
X1727Y462D02*
X1741Y462D01*
X1772Y462D02*
X1781Y462D01*
X1803Y462D02*
X1818Y462D01*
X1839Y462D02*
X1849Y462D01*
X251Y461D02*
X275Y461D01*
X311Y461D02*
X326Y461D01*
X350Y461D02*
X367Y461D01*
X407Y461D02*
X420Y461D01*
X459Y461D02*
X485Y461D01*
X520Y461D02*
X525Y461D01*
X555Y461D02*
X565Y461D01*
X1666Y461D02*
X1690Y461D01*
X1726Y461D02*
X1741Y461D01*
X1772Y461D02*
X1781Y461D01*
X1801Y461D02*
X1817Y461D01*
X1839Y461D02*
X1849Y461D01*
X252Y460D02*
X274Y460D01*
X311Y460D02*
X326Y460D01*
X350Y460D02*
X366Y460D01*
X407Y460D02*
X419Y460D01*
X463Y460D02*
X484Y460D01*
X522Y460D02*
X523Y460D01*
X554Y460D02*
X564Y460D01*
X1666Y460D02*
X1688Y460D01*
X1725Y460D02*
X1740Y460D01*
X1772Y460D02*
X1781Y460D01*
X1800Y460D02*
X1816Y460D01*
X1839Y460D02*
X1849Y460D01*
X252Y459D02*
X273Y459D01*
X310Y459D02*
X325Y459D01*
X352Y459D02*
X365Y459D01*
X407Y459D02*
X418Y459D01*
X554Y459D02*
X564Y459D01*
X587Y459D02*
X630Y459D01*
X1667Y459D02*
X1687Y459D01*
X1725Y459D02*
X1740Y459D01*
X1772Y459D02*
X1781Y459D01*
X1799Y459D02*
X1815Y459D01*
X1839Y459D02*
X1849Y459D01*
X253Y458D02*
X271Y458D01*
X310Y458D02*
X324Y458D01*
X353Y458D02*
X363Y458D01*
X408Y458D02*
X417Y458D01*
X553Y458D02*
X563Y458D01*
X587Y458D02*
X630Y458D01*
X1667Y458D02*
X1686Y458D01*
X1725Y458D02*
X1739Y458D01*
X1772Y458D02*
X1781Y458D01*
X1798Y458D02*
X1813Y458D01*
X1839Y458D02*
X1849Y458D01*
X254Y457D02*
X270Y457D01*
X310Y457D02*
X324Y457D01*
X356Y457D02*
X361Y457D01*
X409Y457D02*
X414Y457D01*
X553Y457D02*
X563Y457D01*
X587Y457D02*
X630Y457D01*
X1668Y457D02*
X1684Y457D01*
X1725Y457D02*
X1738Y457D01*
X1772Y457D02*
X1781Y457D01*
X1796Y457D02*
X1812Y457D01*
X1839Y457D02*
X1849Y457D01*
X255Y456D02*
X269Y456D01*
X311Y456D02*
X322Y456D01*
X553Y456D02*
X563Y456D01*
X587Y456D02*
X630Y456D01*
X1669Y456D02*
X1683Y456D01*
X1725Y456D02*
X1737Y456D01*
X1772Y456D02*
X1781Y456D01*
X1795Y456D02*
X1811Y456D01*
X1839Y456D02*
X1849Y456D01*
X256Y455D02*
X267Y455D01*
X311Y455D02*
X321Y455D01*
X553Y455D02*
X562Y455D01*
X587Y455D02*
X630Y455D01*
X1671Y455D02*
X1682Y455D01*
X1726Y455D02*
X1735Y455D01*
X1772Y455D02*
X1781Y455D01*
X1794Y455D02*
X1809Y455D01*
X1839Y455D02*
X1849Y455D01*
X258Y454D02*
X265Y454D01*
X313Y454D02*
X319Y454D01*
X553Y454D02*
X562Y454D01*
X587Y454D02*
X630Y454D01*
X1673Y454D02*
X1680Y454D01*
X1727Y454D02*
X1733Y454D01*
X1772Y454D02*
X1781Y454D01*
X1792Y454D02*
X1808Y454D01*
X1839Y454D02*
X1849Y454D01*
X553Y453D02*
X562Y453D01*
X587Y453D02*
X630Y453D01*
X1772Y453D02*
X1781Y453D01*
X1791Y453D02*
X1807Y453D01*
X1839Y453D02*
X1849Y453D01*
X553Y452D02*
X562Y452D01*
X587Y452D02*
X630Y452D01*
X1772Y452D02*
X1781Y452D01*
X1790Y452D02*
X1806Y452D01*
X1839Y452D02*
X1849Y452D01*
X553Y451D02*
X562Y451D01*
X587Y451D02*
X630Y451D01*
X1772Y451D02*
X1781Y451D01*
X1789Y451D02*
X1804Y451D01*
X1839Y451D02*
X1849Y451D01*
X553Y450D02*
X562Y450D01*
X587Y450D02*
X630Y450D01*
X1772Y450D02*
X1781Y450D01*
X1787Y450D02*
X1803Y450D01*
X1839Y450D02*
X1849Y450D01*
X553Y449D02*
X562Y449D01*
X587Y449D02*
X596Y449D01*
X620Y449D02*
X630Y449D01*
X1772Y449D02*
X1781Y449D01*
X1786Y449D02*
X1802Y449D01*
X1839Y449D02*
X1848Y449D01*
X553Y448D02*
X562Y448D01*
X587Y448D02*
X596Y448D01*
X620Y448D02*
X630Y448D01*
X1772Y448D02*
X1781Y448D01*
X1785Y448D02*
X1800Y448D01*
X1839Y448D02*
X1848Y448D01*
X553Y447D02*
X562Y447D01*
X587Y447D02*
X596Y447D01*
X620Y447D02*
X630Y447D01*
X1772Y447D02*
X1781Y447D01*
X1783Y447D02*
X1799Y447D01*
X1837Y447D02*
X1848Y447D01*
X553Y446D02*
X562Y446D01*
X587Y446D02*
X596Y446D01*
X620Y446D02*
X630Y446D01*
X1772Y446D02*
X1798Y446D01*
X1834Y446D02*
X1848Y446D01*
X553Y445D02*
X562Y445D01*
X587Y445D02*
X596Y445D01*
X620Y445D02*
X630Y445D01*
X1772Y445D02*
X1797Y445D01*
X1832Y445D02*
X1848Y445D01*
X553Y444D02*
X562Y444D01*
X587Y444D02*
X596Y444D01*
X620Y444D02*
X630Y444D01*
X1772Y444D02*
X1795Y444D01*
X1832Y444D02*
X1847Y444D01*
X553Y443D02*
X562Y443D01*
X587Y443D02*
X596Y443D01*
X620Y443D02*
X630Y443D01*
X1773Y443D02*
X1794Y443D01*
X1831Y443D02*
X1846Y443D01*
X553Y442D02*
X562Y442D01*
X587Y442D02*
X596Y442D01*
X620Y442D02*
X630Y442D01*
X1773Y442D02*
X1793Y442D01*
X1831Y442D02*
X1846Y442D01*
X553Y441D02*
X562Y441D01*
X587Y441D02*
X596Y441D01*
X620Y441D02*
X630Y441D01*
X1774Y441D02*
X1791Y441D01*
X1831Y441D02*
X1845Y441D01*
X553Y440D02*
X562Y440D01*
X587Y440D02*
X596Y440D01*
X620Y440D02*
X630Y440D01*
X1775Y440D02*
X1790Y440D01*
X1831Y440D02*
X1844Y440D01*
X553Y439D02*
X562Y439D01*
X587Y439D02*
X596Y439D01*
X620Y439D02*
X630Y439D01*
X1448Y439D02*
X1523Y439D01*
X1776Y439D02*
X1789Y439D01*
X1832Y439D02*
X1843Y439D01*
X553Y438D02*
X562Y438D01*
X587Y438D02*
X596Y438D01*
X620Y438D02*
X630Y438D01*
X1447Y438D02*
X1523Y438D01*
X1778Y438D02*
X1787Y438D01*
X1833Y438D02*
X1841Y438D01*
X454Y437D02*
X527Y437D01*
X553Y437D02*
X562Y437D01*
X587Y437D02*
X596Y437D01*
X620Y437D02*
X630Y437D01*
X1446Y437D02*
X1523Y437D01*
X1780Y437D02*
X1785Y437D01*
X1834Y437D02*
X1838Y437D01*
X452Y436D02*
X527Y436D01*
X553Y436D02*
X562Y436D01*
X587Y436D02*
X596Y436D01*
X620Y436D02*
X630Y436D01*
X1446Y436D02*
X1523Y436D01*
X451Y435D02*
X527Y435D01*
X553Y435D02*
X562Y435D01*
X587Y435D02*
X596Y435D01*
X620Y435D02*
X630Y435D01*
X1446Y435D02*
X1523Y435D01*
X450Y434D02*
X527Y434D01*
X553Y434D02*
X562Y434D01*
X587Y434D02*
X596Y434D01*
X620Y434D02*
X630Y434D01*
X1446Y434D02*
X1523Y434D01*
X1563Y434D02*
X1565Y434D01*
X1631Y434D02*
X1633Y434D01*
X349Y433D02*
X354Y433D01*
X417Y433D02*
X422Y433D01*
X450Y433D02*
X527Y433D01*
X553Y433D02*
X562Y433D01*
X587Y433D02*
X596Y433D01*
X620Y433D02*
X630Y433D01*
X1446Y433D02*
X1523Y433D01*
X1561Y433D02*
X1567Y433D01*
X1629Y433D02*
X1635Y433D01*
X348Y432D02*
X355Y432D01*
X416Y432D02*
X423Y432D01*
X450Y432D02*
X527Y432D01*
X553Y432D02*
X562Y432D01*
X587Y432D02*
X596Y432D01*
X620Y432D02*
X630Y432D01*
X1447Y432D02*
X1523Y432D01*
X1560Y432D02*
X1568Y432D01*
X1628Y432D02*
X1636Y432D01*
X348Y431D02*
X356Y431D01*
X415Y431D02*
X424Y431D01*
X450Y431D02*
X527Y431D01*
X553Y431D02*
X562Y431D01*
X587Y431D02*
X596Y431D01*
X620Y431D02*
X630Y431D01*
X1447Y431D02*
X1523Y431D01*
X1560Y431D02*
X1568Y431D01*
X1628Y431D02*
X1636Y431D01*
X284Y430D02*
X294Y430D01*
X347Y430D02*
X356Y430D01*
X415Y430D02*
X424Y430D01*
X451Y430D02*
X527Y430D01*
X553Y430D02*
X562Y430D01*
X586Y430D02*
X596Y430D01*
X620Y430D02*
X630Y430D01*
X1450Y430D02*
X1523Y430D01*
X1560Y430D02*
X1568Y430D01*
X1627Y430D02*
X1636Y430D01*
X1668Y430D02*
X1672Y430D01*
X1736Y430D02*
X1740Y430D01*
X281Y429D02*
X297Y429D01*
X347Y429D02*
X356Y429D01*
X415Y429D02*
X424Y429D01*
X451Y429D02*
X527Y429D01*
X553Y429D02*
X596Y429D01*
X620Y429D02*
X630Y429D01*
X1504Y429D02*
X1523Y429D01*
X1559Y429D02*
X1569Y429D01*
X1627Y429D02*
X1636Y429D01*
X1667Y429D02*
X1673Y429D01*
X1735Y429D02*
X1741Y429D01*
X279Y428D02*
X300Y428D01*
X347Y428D02*
X356Y428D01*
X415Y428D02*
X424Y428D01*
X453Y428D02*
X527Y428D01*
X553Y428D02*
X595Y428D01*
X620Y428D02*
X630Y428D01*
X1501Y428D02*
X1523Y428D01*
X1559Y428D02*
X1569Y428D01*
X1627Y428D02*
X1636Y428D01*
X1666Y428D02*
X1674Y428D01*
X1734Y428D02*
X1742Y428D01*
X277Y427D02*
X302Y427D01*
X347Y427D02*
X356Y427D01*
X415Y427D02*
X424Y427D01*
X509Y427D02*
X527Y427D01*
X553Y427D02*
X595Y427D01*
X620Y427D02*
X630Y427D01*
X1499Y427D02*
X1522Y427D01*
X1559Y427D02*
X1569Y427D01*
X1627Y427D02*
X1636Y427D01*
X1666Y427D02*
X1674Y427D01*
X1733Y427D02*
X1742Y427D01*
X275Y426D02*
X304Y426D01*
X347Y426D02*
X356Y426D01*
X415Y426D02*
X424Y426D01*
X507Y426D02*
X527Y426D01*
X553Y426D02*
X595Y426D01*
X620Y426D02*
X630Y426D01*
X1497Y426D02*
X1521Y426D01*
X1559Y426D02*
X1569Y426D01*
X1627Y426D02*
X1636Y426D01*
X1665Y426D02*
X1674Y426D01*
X1733Y426D02*
X1742Y426D01*
X273Y425D02*
X306Y425D01*
X347Y425D02*
X356Y425D01*
X415Y425D02*
X424Y425D01*
X505Y425D02*
X527Y425D01*
X554Y425D02*
X594Y425D01*
X620Y425D02*
X630Y425D01*
X1494Y425D02*
X1519Y425D01*
X1559Y425D02*
X1569Y425D01*
X1627Y425D02*
X1636Y425D01*
X1665Y425D02*
X1674Y425D01*
X1733Y425D02*
X1742Y425D01*
X271Y424D02*
X308Y424D01*
X347Y424D02*
X424Y424D01*
X503Y424D02*
X527Y424D01*
X555Y424D02*
X594Y424D01*
X621Y424D02*
X629Y424D01*
X1492Y424D02*
X1517Y424D01*
X1559Y424D02*
X1569Y424D01*
X1596Y424D02*
X1599Y424D01*
X1627Y424D02*
X1636Y424D01*
X1665Y424D02*
X1674Y424D01*
X1733Y424D02*
X1742Y424D01*
X269Y423D02*
X310Y423D01*
X347Y423D02*
X424Y423D01*
X500Y423D02*
X525Y423D01*
X555Y423D02*
X593Y423D01*
X621Y423D02*
X629Y423D01*
X1490Y423D02*
X1514Y423D01*
X1559Y423D02*
X1569Y423D01*
X1595Y423D02*
X1601Y423D01*
X1627Y423D02*
X1636Y423D01*
X1665Y423D02*
X1674Y423D01*
X1733Y423D02*
X1742Y423D01*
X267Y422D02*
X312Y422D01*
X347Y422D02*
X424Y422D01*
X498Y422D02*
X522Y422D01*
X556Y422D02*
X592Y422D01*
X621Y422D02*
X629Y422D01*
X1488Y422D02*
X1512Y422D01*
X1559Y422D02*
X1569Y422D01*
X1594Y422D02*
X1602Y422D01*
X1627Y422D02*
X1636Y422D01*
X1665Y422D02*
X1674Y422D01*
X1733Y422D02*
X1742Y422D01*
X265Y421D02*
X314Y421D01*
X347Y421D02*
X424Y421D01*
X496Y421D02*
X520Y421D01*
X558Y421D02*
X590Y421D01*
X622Y421D02*
X628Y421D01*
X1485Y421D02*
X1510Y421D01*
X1559Y421D02*
X1569Y421D01*
X1594Y421D02*
X1602Y421D01*
X1627Y421D02*
X1636Y421D01*
X1665Y421D02*
X1675Y421D01*
X1733Y421D02*
X1742Y421D01*
X263Y420D02*
X285Y420D01*
X293Y420D02*
X316Y420D01*
X347Y420D02*
X424Y420D01*
X494Y420D02*
X518Y420D01*
X561Y420D02*
X588Y420D01*
X624Y420D02*
X626Y420D01*
X1483Y420D02*
X1507Y420D01*
X1559Y420D02*
X1569Y420D01*
X1594Y420D02*
X1602Y420D01*
X1627Y420D02*
X1636Y420D01*
X1665Y420D02*
X1742Y420D01*
X261Y419D02*
X283Y419D01*
X296Y419D02*
X318Y419D01*
X347Y419D02*
X424Y419D01*
X491Y419D02*
X516Y419D01*
X1481Y419D02*
X1505Y419D01*
X1559Y419D02*
X1569Y419D01*
X1593Y419D02*
X1603Y419D01*
X1627Y419D02*
X1636Y419D01*
X1665Y419D02*
X1742Y419D01*
X259Y418D02*
X281Y418D01*
X298Y418D02*
X320Y418D01*
X347Y418D02*
X424Y418D01*
X489Y418D02*
X513Y418D01*
X1479Y418D02*
X1503Y418D01*
X1559Y418D02*
X1569Y418D01*
X1593Y418D02*
X1603Y418D01*
X1627Y418D02*
X1636Y418D01*
X1665Y418D02*
X1742Y418D01*
X257Y417D02*
X279Y417D01*
X300Y417D02*
X322Y417D01*
X347Y417D02*
X424Y417D01*
X487Y417D02*
X511Y417D01*
X1476Y417D02*
X1501Y417D01*
X1559Y417D02*
X1569Y417D01*
X1593Y417D02*
X1603Y417D01*
X1627Y417D02*
X1636Y417D01*
X1665Y417D02*
X1742Y417D01*
X256Y416D02*
X277Y416D01*
X302Y416D02*
X323Y416D01*
X347Y416D02*
X424Y416D01*
X485Y416D02*
X509Y416D01*
X1474Y416D02*
X1498Y416D01*
X1559Y416D02*
X1569Y416D01*
X1593Y416D02*
X1603Y416D01*
X1627Y416D02*
X1636Y416D01*
X1665Y416D02*
X1742Y416D01*
X255Y415D02*
X275Y415D01*
X304Y415D02*
X324Y415D01*
X347Y415D02*
X424Y415D01*
X482Y415D02*
X507Y415D01*
X1472Y415D02*
X1496Y415D01*
X1559Y415D02*
X1569Y415D01*
X1593Y415D02*
X1603Y415D01*
X1627Y415D02*
X1636Y415D01*
X1665Y415D02*
X1742Y415D01*
X254Y414D02*
X273Y414D01*
X306Y414D02*
X325Y414D01*
X347Y414D02*
X424Y414D01*
X480Y414D02*
X504Y414D01*
X1469Y414D02*
X1494Y414D01*
X1559Y414D02*
X1569Y414D01*
X1593Y414D02*
X1603Y414D01*
X1627Y414D02*
X1636Y414D01*
X1665Y414D02*
X1742Y414D01*
X1810Y414D02*
X1811Y414D01*
X254Y413D02*
X271Y413D01*
X308Y413D02*
X325Y413D01*
X347Y413D02*
X356Y413D01*
X415Y413D02*
X424Y413D01*
X478Y413D02*
X502Y413D01*
X1467Y413D02*
X1491Y413D01*
X1559Y413D02*
X1569Y413D01*
X1593Y413D02*
X1603Y413D01*
X1627Y413D02*
X1636Y413D01*
X1665Y413D02*
X1742Y413D01*
X1804Y413D02*
X1816Y413D01*
X253Y412D02*
X269Y412D01*
X310Y412D02*
X326Y412D01*
X347Y412D02*
X356Y412D01*
X415Y412D02*
X424Y412D01*
X475Y412D02*
X500Y412D01*
X1465Y412D02*
X1489Y412D01*
X1559Y412D02*
X1569Y412D01*
X1593Y412D02*
X1603Y412D01*
X1627Y412D02*
X1636Y412D01*
X1665Y412D02*
X1742Y412D01*
X1801Y412D02*
X1819Y412D01*
X252Y411D02*
X267Y411D01*
X312Y411D02*
X326Y411D01*
X347Y411D02*
X356Y411D01*
X415Y411D02*
X424Y411D01*
X473Y411D02*
X497Y411D01*
X1463Y411D02*
X1487Y411D01*
X1559Y411D02*
X1569Y411D01*
X1593Y411D02*
X1603Y411D01*
X1627Y411D02*
X1636Y411D01*
X1665Y411D02*
X1742Y411D01*
X1799Y411D02*
X1821Y411D01*
X252Y410D02*
X265Y410D01*
X314Y410D02*
X327Y410D01*
X347Y410D02*
X356Y410D01*
X415Y410D02*
X424Y410D01*
X471Y410D02*
X495Y410D01*
X1460Y410D02*
X1485Y410D01*
X1559Y410D02*
X1569Y410D01*
X1593Y410D02*
X1603Y410D01*
X1627Y410D02*
X1636Y410D01*
X1665Y410D02*
X1674Y410D01*
X1733Y410D02*
X1742Y410D01*
X1797Y410D02*
X1823Y410D01*
X252Y409D02*
X263Y409D01*
X316Y409D02*
X327Y409D01*
X347Y409D02*
X356Y409D01*
X415Y409D02*
X424Y409D01*
X469Y409D02*
X493Y409D01*
X1458Y409D02*
X1482Y409D01*
X1559Y409D02*
X1569Y409D01*
X1593Y409D02*
X1603Y409D01*
X1627Y409D02*
X1636Y409D01*
X1665Y409D02*
X1674Y409D01*
X1733Y409D02*
X1742Y409D01*
X1795Y409D02*
X1825Y409D01*
X251Y408D02*
X261Y408D01*
X317Y408D02*
X327Y408D01*
X347Y408D02*
X357Y408D01*
X414Y408D02*
X424Y408D01*
X466Y408D02*
X491Y408D01*
X1456Y408D02*
X1480Y408D01*
X1559Y408D02*
X1569Y408D01*
X1593Y408D02*
X1603Y408D01*
X1627Y408D02*
X1636Y408D01*
X1665Y408D02*
X1674Y408D01*
X1733Y408D02*
X1742Y408D01*
X1793Y408D02*
X1827Y408D01*
X251Y407D02*
X261Y407D01*
X318Y407D02*
X328Y407D01*
X347Y407D02*
X358Y407D01*
X414Y407D02*
X424Y407D01*
X464Y407D02*
X488Y407D01*
X1453Y407D02*
X1478Y407D01*
X1559Y407D02*
X1569Y407D01*
X1593Y407D02*
X1603Y407D01*
X1627Y407D02*
X1636Y407D01*
X1665Y407D02*
X1674Y407D01*
X1733Y407D02*
X1742Y407D01*
X1791Y407D02*
X1829Y407D01*
X251Y406D02*
X260Y406D01*
X318Y406D02*
X328Y406D01*
X348Y406D02*
X359Y406D01*
X412Y406D02*
X423Y406D01*
X462Y406D02*
X486Y406D01*
X1451Y406D02*
X1475Y406D01*
X1559Y406D02*
X1569Y406D01*
X1593Y406D02*
X1603Y406D01*
X1627Y406D02*
X1636Y406D01*
X1665Y406D02*
X1675Y406D01*
X1733Y406D02*
X1742Y406D01*
X1789Y406D02*
X1831Y406D01*
X251Y405D02*
X260Y405D01*
X319Y405D02*
X328Y405D01*
X348Y405D02*
X361Y405D01*
X410Y405D02*
X423Y405D01*
X459Y405D02*
X484Y405D01*
X1449Y405D02*
X1473Y405D01*
X1559Y405D02*
X1569Y405D01*
X1593Y405D02*
X1603Y405D01*
X1627Y405D02*
X1636Y405D01*
X1665Y405D02*
X1675Y405D01*
X1733Y405D02*
X1742Y405D01*
X1787Y405D02*
X1833Y405D01*
X251Y404D02*
X260Y404D01*
X319Y404D02*
X328Y404D01*
X348Y404D02*
X363Y404D01*
X408Y404D02*
X423Y404D01*
X457Y404D02*
X481Y404D01*
X1447Y404D02*
X1471Y404D01*
X1559Y404D02*
X1569Y404D01*
X1593Y404D02*
X1603Y404D01*
X1627Y404D02*
X1636Y404D01*
X1666Y404D02*
X1676Y404D01*
X1732Y404D02*
X1742Y404D01*
X1785Y404D02*
X1835Y404D01*
X251Y403D02*
X260Y403D01*
X319Y403D02*
X328Y403D01*
X349Y403D02*
X365Y403D01*
X406Y403D02*
X422Y403D01*
X455Y403D02*
X479Y403D01*
X1446Y403D02*
X1469Y403D01*
X1559Y403D02*
X1569Y403D01*
X1593Y403D02*
X1603Y403D01*
X1627Y403D02*
X1636Y403D01*
X1666Y403D02*
X1677Y403D01*
X1731Y403D02*
X1742Y403D01*
X1783Y403D02*
X1805Y403D01*
X1815Y403D02*
X1837Y403D01*
X251Y402D02*
X260Y402D01*
X319Y402D02*
X328Y402D01*
X350Y402D02*
X367Y402D01*
X404Y402D02*
X421Y402D01*
X453Y402D02*
X477Y402D01*
X1446Y402D02*
X1466Y402D01*
X1559Y402D02*
X1569Y402D01*
X1593Y402D02*
X1603Y402D01*
X1627Y402D02*
X1636Y402D01*
X1666Y402D02*
X1679Y402D01*
X1729Y402D02*
X1741Y402D01*
X1781Y402D02*
X1802Y402D01*
X1818Y402D02*
X1839Y402D01*
X251Y401D02*
X260Y401D01*
X319Y401D02*
X328Y401D01*
X350Y401D02*
X369Y401D01*
X402Y401D02*
X421Y401D01*
X450Y401D02*
X475Y401D01*
X1446Y401D02*
X1464Y401D01*
X1559Y401D02*
X1569Y401D01*
X1593Y401D02*
X1603Y401D01*
X1627Y401D02*
X1636Y401D01*
X1667Y401D02*
X1681Y401D01*
X1727Y401D02*
X1741Y401D01*
X1779Y401D02*
X1801Y401D01*
X1820Y401D02*
X1841Y401D01*
X251Y400D02*
X260Y400D01*
X319Y400D02*
X328Y400D01*
X351Y400D02*
X371Y400D01*
X400Y400D02*
X420Y400D01*
X450Y400D02*
X472Y400D01*
X1446Y400D02*
X1519Y400D01*
X1559Y400D02*
X1569Y400D01*
X1593Y400D02*
X1603Y400D01*
X1627Y400D02*
X1636Y400D01*
X1667Y400D02*
X1682Y400D01*
X1725Y400D02*
X1740Y400D01*
X1778Y400D02*
X1799Y400D01*
X1822Y400D02*
X1843Y400D01*
X251Y399D02*
X260Y399D01*
X319Y399D02*
X328Y399D01*
X352Y399D02*
X373Y399D01*
X398Y399D02*
X419Y399D01*
X450Y399D02*
X470Y399D01*
X1446Y399D02*
X1521Y399D01*
X1559Y399D02*
X1569Y399D01*
X1593Y399D02*
X1603Y399D01*
X1627Y399D02*
X1636Y399D01*
X1668Y399D02*
X1684Y399D01*
X1723Y399D02*
X1740Y399D01*
X1777Y399D02*
X1797Y399D01*
X1824Y399D02*
X1844Y399D01*
X251Y398D02*
X260Y398D01*
X319Y398D02*
X328Y398D01*
X353Y398D02*
X375Y398D01*
X396Y398D02*
X418Y398D01*
X450Y398D02*
X468Y398D01*
X1446Y398D02*
X1522Y398D01*
X1559Y398D02*
X1569Y398D01*
X1593Y398D02*
X1603Y398D01*
X1627Y398D02*
X1636Y398D01*
X1668Y398D02*
X1686Y398D01*
X1721Y398D02*
X1739Y398D01*
X1776Y398D02*
X1795Y398D01*
X1826Y398D02*
X1845Y398D01*
X251Y397D02*
X260Y397D01*
X319Y397D02*
X328Y397D01*
X355Y397D02*
X377Y397D01*
X395Y397D02*
X416Y397D01*
X450Y397D02*
X524Y397D01*
X607Y397D02*
X626Y397D01*
X1446Y397D02*
X1522Y397D01*
X1559Y397D02*
X1569Y397D01*
X1592Y397D02*
X1603Y397D01*
X1627Y397D02*
X1636Y397D01*
X1669Y397D02*
X1688Y397D01*
X1719Y397D02*
X1738Y397D01*
X1775Y397D02*
X1793Y397D01*
X1828Y397D02*
X1846Y397D01*
X251Y396D02*
X260Y396D01*
X319Y396D02*
X328Y396D01*
X357Y396D02*
X379Y396D01*
X393Y396D02*
X414Y396D01*
X450Y396D02*
X526Y396D01*
X604Y396D02*
X628Y396D01*
X1446Y396D02*
X1522Y396D01*
X1559Y396D02*
X1569Y396D01*
X1592Y396D02*
X1604Y396D01*
X1627Y396D02*
X1636Y396D01*
X1670Y396D02*
X1690Y396D01*
X1717Y396D02*
X1737Y396D01*
X1774Y396D02*
X1791Y396D01*
X1829Y396D02*
X1846Y396D01*
X251Y395D02*
X260Y395D01*
X319Y395D02*
X328Y395D01*
X359Y395D02*
X381Y395D01*
X390Y395D02*
X412Y395D01*
X450Y395D02*
X526Y395D01*
X602Y395D02*
X629Y395D01*
X1446Y395D02*
X1522Y395D01*
X1559Y395D02*
X1569Y395D01*
X1590Y395D02*
X1606Y395D01*
X1627Y395D02*
X1636Y395D01*
X1671Y395D02*
X1692Y395D01*
X1715Y395D02*
X1736Y395D01*
X1773Y395D02*
X1789Y395D01*
X1831Y395D02*
X1847Y395D01*
X251Y394D02*
X260Y394D01*
X319Y394D02*
X328Y394D01*
X361Y394D02*
X410Y394D01*
X450Y394D02*
X527Y394D01*
X599Y394D02*
X629Y394D01*
X1446Y394D02*
X1522Y394D01*
X1559Y394D02*
X1636Y394D01*
X1673Y394D02*
X1694Y394D01*
X1713Y394D02*
X1735Y394D01*
X1773Y394D02*
X1787Y394D01*
X1833Y394D02*
X1847Y394D01*
X251Y393D02*
X260Y393D01*
X319Y393D02*
X328Y393D01*
X363Y393D02*
X408Y393D01*
X450Y393D02*
X527Y393D01*
X596Y393D02*
X629Y393D01*
X1446Y393D02*
X1522Y393D01*
X1560Y393D02*
X1636Y393D01*
X1675Y393D02*
X1696Y393D01*
X1711Y393D02*
X1733Y393D01*
X1772Y393D02*
X1785Y393D01*
X1835Y393D02*
X1848Y393D01*
X251Y392D02*
X260Y392D01*
X319Y392D02*
X328Y392D01*
X365Y392D02*
X406Y392D01*
X450Y392D02*
X527Y392D01*
X594Y392D02*
X629Y392D01*
X1446Y392D02*
X1521Y392D01*
X1560Y392D02*
X1636Y392D01*
X1677Y392D02*
X1699Y392D01*
X1709Y392D02*
X1731Y392D01*
X1772Y392D02*
X1783Y392D01*
X1837Y392D02*
X1848Y392D01*
X251Y391D02*
X260Y391D01*
X319Y391D02*
X328Y391D01*
X367Y391D02*
X404Y391D01*
X450Y391D02*
X527Y391D01*
X591Y391D02*
X629Y391D01*
X1446Y391D02*
X1520Y391D01*
X1560Y391D02*
X1636Y391D01*
X1679Y391D02*
X1703Y391D01*
X1705Y391D02*
X1729Y391D01*
X1772Y391D02*
X1782Y391D01*
X1838Y391D02*
X1848Y391D01*
X251Y390D02*
X260Y390D01*
X319Y390D02*
X328Y390D01*
X369Y390D02*
X402Y390D01*
X450Y390D02*
X526Y390D01*
X589Y390D02*
X629Y390D01*
X1561Y390D02*
X1635Y390D01*
X1681Y390D02*
X1727Y390D01*
X1772Y390D02*
X1781Y390D01*
X1839Y390D02*
X1848Y390D01*
X251Y389D02*
X260Y389D01*
X319Y389D02*
X328Y389D01*
X371Y389D02*
X400Y389D01*
X450Y389D02*
X525Y389D01*
X586Y389D02*
X628Y389D01*
X1561Y389D02*
X1635Y389D01*
X1683Y389D02*
X1725Y389D01*
X1772Y389D02*
X1781Y389D01*
X1839Y389D02*
X1849Y389D01*
X251Y388D02*
X260Y388D01*
X319Y388D02*
X328Y388D01*
X373Y388D02*
X398Y388D01*
X450Y388D02*
X524Y388D01*
X584Y388D02*
X627Y388D01*
X1562Y388D02*
X1597Y388D01*
X1599Y388D02*
X1634Y388D01*
X1685Y388D02*
X1723Y388D01*
X1772Y388D02*
X1781Y388D01*
X1839Y388D02*
X1849Y388D01*
X251Y387D02*
X260Y387D01*
X319Y387D02*
X328Y387D01*
X375Y387D02*
X396Y387D01*
X581Y387D02*
X608Y387D01*
X1563Y387D02*
X1595Y387D01*
X1600Y387D02*
X1633Y387D01*
X1687Y387D02*
X1721Y387D01*
X1772Y387D02*
X1781Y387D01*
X1839Y387D02*
X1849Y387D01*
X251Y386D02*
X260Y386D01*
X319Y386D02*
X328Y386D01*
X377Y386D02*
X394Y386D01*
X578Y386D02*
X605Y386D01*
X1565Y386D02*
X1594Y386D01*
X1602Y386D02*
X1631Y386D01*
X1689Y386D02*
X1719Y386D01*
X1772Y386D02*
X1781Y386D01*
X1839Y386D02*
X1849Y386D01*
X251Y385D02*
X260Y385D01*
X319Y385D02*
X328Y385D01*
X380Y385D02*
X391Y385D01*
X576Y385D02*
X603Y385D01*
X1567Y385D02*
X1591Y385D01*
X1605Y385D02*
X1629Y385D01*
X1691Y385D02*
X1717Y385D01*
X1772Y385D02*
X1781Y385D01*
X1839Y385D02*
X1849Y385D01*
X251Y384D02*
X259Y384D01*
X319Y384D02*
X327Y384D01*
X573Y384D02*
X600Y384D01*
X1693Y384D02*
X1715Y384D01*
X1772Y384D02*
X1781Y384D01*
X1839Y384D02*
X1849Y384D01*
X252Y383D02*
X259Y383D01*
X320Y383D02*
X327Y383D01*
X571Y383D02*
X598Y383D01*
X1695Y383D02*
X1713Y383D01*
X1772Y383D02*
X1781Y383D01*
X1839Y383D02*
X1849Y383D01*
X253Y382D02*
X258Y382D01*
X321Y382D02*
X326Y382D01*
X568Y382D02*
X595Y382D01*
X1697Y382D02*
X1710Y382D01*
X1772Y382D02*
X1781Y382D01*
X1839Y382D02*
X1849Y382D01*
X255Y381D02*
X256Y381D01*
X323Y381D02*
X324Y381D01*
X566Y381D02*
X593Y381D01*
X1702Y381D02*
X1706Y381D01*
X1772Y381D02*
X1781Y381D01*
X1839Y381D02*
X1849Y381D01*
X563Y380D02*
X590Y380D01*
X1772Y380D02*
X1781Y380D01*
X1839Y380D02*
X1849Y380D01*
X560Y379D02*
X588Y379D01*
X1772Y379D02*
X1781Y379D01*
X1839Y379D02*
X1849Y379D01*
X558Y378D02*
X585Y378D01*
X1772Y378D02*
X1781Y378D01*
X1839Y378D02*
X1849Y378D01*
X555Y377D02*
X582Y377D01*
X1772Y377D02*
X1781Y377D01*
X1839Y377D02*
X1849Y377D01*
X554Y376D02*
X580Y376D01*
X1772Y376D02*
X1781Y376D01*
X1839Y376D02*
X1849Y376D01*
X553Y375D02*
X577Y375D01*
X1772Y375D02*
X1781Y375D01*
X1839Y375D02*
X1849Y375D01*
X553Y374D02*
X575Y374D01*
X1772Y374D02*
X1781Y374D01*
X1839Y374D02*
X1849Y374D01*
X553Y373D02*
X572Y373D01*
X1772Y373D02*
X1781Y373D01*
X1839Y373D02*
X1849Y373D01*
X553Y372D02*
X572Y372D01*
X1772Y372D02*
X1781Y372D01*
X1839Y372D02*
X1849Y372D01*
X553Y371D02*
X574Y371D01*
X1772Y371D02*
X1781Y371D01*
X1839Y371D02*
X1849Y371D01*
X553Y370D02*
X577Y370D01*
X1772Y370D02*
X1781Y370D01*
X1839Y370D02*
X1849Y370D01*
X554Y369D02*
X579Y369D01*
X1772Y369D02*
X1781Y369D01*
X1840Y369D02*
X1849Y369D01*
X555Y368D02*
X582Y368D01*
X1772Y368D02*
X1780Y368D01*
X1840Y368D02*
X1848Y368D01*
X557Y367D02*
X584Y367D01*
X1448Y367D02*
X1452Y367D01*
X1516Y367D02*
X1520Y367D01*
X1772Y367D02*
X1780Y367D01*
X1840Y367D02*
X1848Y367D01*
X560Y366D02*
X587Y366D01*
X1447Y366D02*
X1453Y366D01*
X1515Y366D02*
X1521Y366D01*
X1773Y366D02*
X1779Y366D01*
X1841Y366D02*
X1847Y366D01*
X563Y365D02*
X589Y365D01*
X1446Y365D02*
X1454Y365D01*
X1514Y365D02*
X1522Y365D01*
X1774Y365D02*
X1778Y365D01*
X1842Y365D02*
X1846Y365D01*
X452Y364D02*
X457Y364D01*
X520Y364D02*
X525Y364D01*
X565Y364D02*
X592Y364D01*
X1446Y364D02*
X1454Y364D01*
X1514Y364D02*
X1522Y364D01*
X451Y363D02*
X458Y363D01*
X519Y363D02*
X526Y363D01*
X568Y363D02*
X595Y363D01*
X1446Y363D02*
X1455Y363D01*
X1513Y363D02*
X1522Y363D01*
X451Y362D02*
X459Y362D01*
X518Y362D02*
X527Y362D01*
X570Y362D02*
X597Y362D01*
X1446Y362D02*
X1455Y362D01*
X1513Y362D02*
X1523Y362D01*
X1614Y362D02*
X1632Y362D01*
X349Y361D02*
X355Y361D01*
X450Y361D02*
X459Y361D01*
X518Y361D02*
X527Y361D01*
X573Y361D02*
X600Y361D01*
X1446Y361D02*
X1455Y361D01*
X1513Y361D02*
X1523Y361D01*
X1612Y361D02*
X1634Y361D01*
X348Y360D02*
X358Y360D01*
X450Y360D02*
X459Y360D01*
X518Y360D02*
X527Y360D01*
X575Y360D02*
X602Y360D01*
X1446Y360D02*
X1455Y360D01*
X1513Y360D02*
X1523Y360D01*
X1609Y360D02*
X1635Y360D01*
X348Y359D02*
X361Y359D01*
X450Y359D02*
X459Y359D01*
X518Y359D02*
X527Y359D01*
X578Y359D02*
X605Y359D01*
X1446Y359D02*
X1455Y359D01*
X1513Y359D02*
X1523Y359D01*
X1606Y359D02*
X1636Y359D01*
X251Y358D02*
X325Y358D01*
X347Y358D02*
X365Y358D01*
X450Y358D02*
X459Y358D01*
X518Y358D02*
X527Y358D01*
X581Y358D02*
X607Y358D01*
X1446Y358D02*
X1455Y358D01*
X1513Y358D02*
X1523Y358D01*
X1604Y358D02*
X1636Y358D01*
X1668Y358D02*
X1672Y358D01*
X251Y357D02*
X326Y357D01*
X347Y357D02*
X368Y357D01*
X450Y357D02*
X459Y357D01*
X518Y357D02*
X527Y357D01*
X583Y357D02*
X627Y357D01*
X1446Y357D02*
X1523Y357D01*
X1601Y357D02*
X1636Y357D01*
X1667Y357D02*
X1675Y357D01*
X251Y356D02*
X327Y356D01*
X347Y356D02*
X372Y356D01*
X450Y356D02*
X459Y356D01*
X518Y356D02*
X527Y356D01*
X586Y356D02*
X628Y356D01*
X1446Y356D02*
X1523Y356D01*
X1599Y356D02*
X1636Y356D01*
X1666Y356D02*
X1679Y356D01*
X251Y355D02*
X327Y355D01*
X347Y355D02*
X375Y355D01*
X450Y355D02*
X527Y355D01*
X588Y355D02*
X629Y355D01*
X1446Y355D02*
X1523Y355D01*
X1596Y355D02*
X1636Y355D01*
X1666Y355D02*
X1682Y355D01*
X251Y354D02*
X328Y354D01*
X348Y354D02*
X378Y354D01*
X450Y354D02*
X527Y354D01*
X591Y354D02*
X629Y354D01*
X1446Y354D02*
X1523Y354D01*
X1594Y354D02*
X1635Y354D01*
X1665Y354D02*
X1685Y354D01*
X251Y353D02*
X328Y353D01*
X349Y353D02*
X382Y353D01*
X450Y353D02*
X527Y353D01*
X593Y353D02*
X629Y353D01*
X1446Y353D02*
X1523Y353D01*
X1591Y353D02*
X1634Y353D01*
X1665Y353D02*
X1689Y353D01*
X251Y352D02*
X328Y352D01*
X350Y352D02*
X385Y352D01*
X450Y352D02*
X527Y352D01*
X596Y352D02*
X629Y352D01*
X1446Y352D02*
X1523Y352D01*
X1588Y352D02*
X1632Y352D01*
X1666Y352D02*
X1692Y352D01*
X251Y351D02*
X327Y351D01*
X354Y351D02*
X389Y351D01*
X450Y351D02*
X527Y351D01*
X598Y351D02*
X629Y351D01*
X1446Y351D02*
X1523Y351D01*
X1586Y351D02*
X1613Y351D01*
X1666Y351D02*
X1696Y351D01*
X251Y350D02*
X326Y350D01*
X357Y350D02*
X392Y350D01*
X450Y350D02*
X527Y350D01*
X601Y350D02*
X629Y350D01*
X1446Y350D02*
X1523Y350D01*
X1583Y350D02*
X1610Y350D01*
X1667Y350D02*
X1699Y350D01*
X251Y349D02*
X325Y349D01*
X361Y349D02*
X396Y349D01*
X450Y349D02*
X527Y349D01*
X604Y349D02*
X628Y349D01*
X1446Y349D02*
X1523Y349D01*
X1581Y349D02*
X1608Y349D01*
X1668Y349D02*
X1702Y349D01*
X251Y348D02*
X260Y348D01*
X364Y348D02*
X399Y348D01*
X450Y348D02*
X527Y348D01*
X606Y348D02*
X627Y348D01*
X1446Y348D02*
X1523Y348D01*
X1578Y348D02*
X1605Y348D01*
X1671Y348D02*
X1706Y348D01*
X251Y347D02*
X260Y347D01*
X364Y347D02*
X402Y347D01*
X450Y347D02*
X527Y347D01*
X1446Y347D02*
X1455Y347D01*
X1513Y347D02*
X1523Y347D01*
X1576Y347D02*
X1603Y347D01*
X1674Y347D02*
X1709Y347D01*
X251Y346D02*
X260Y346D01*
X364Y346D02*
X406Y346D01*
X450Y346D02*
X527Y346D01*
X1446Y346D02*
X1455Y346D01*
X1513Y346D02*
X1523Y346D01*
X1573Y346D02*
X1600Y346D01*
X1678Y346D02*
X1713Y346D01*
X251Y345D02*
X260Y345D01*
X364Y345D02*
X409Y345D01*
X450Y345D02*
X527Y345D01*
X1446Y345D02*
X1455Y345D01*
X1513Y345D02*
X1523Y345D01*
X1570Y345D02*
X1598Y345D01*
X1681Y345D02*
X1716Y345D01*
X251Y344D02*
X260Y344D01*
X364Y344D02*
X373Y344D01*
X378Y344D02*
X413Y344D01*
X450Y344D02*
X459Y344D01*
X518Y344D02*
X527Y344D01*
X1446Y344D02*
X1455Y344D01*
X1513Y344D02*
X1522Y344D01*
X1568Y344D02*
X1595Y344D01*
X1682Y344D02*
X1719Y344D01*
X251Y343D02*
X260Y343D01*
X364Y343D02*
X373Y343D01*
X381Y343D02*
X416Y343D01*
X450Y343D02*
X459Y343D01*
X518Y343D02*
X527Y343D01*
X1446Y343D02*
X1455Y343D01*
X1513Y343D02*
X1522Y343D01*
X1565Y343D02*
X1592Y343D01*
X1682Y343D02*
X1723Y343D01*
X251Y342D02*
X260Y342D01*
X364Y342D02*
X373Y342D01*
X384Y342D02*
X419Y342D01*
X450Y342D02*
X459Y342D01*
X518Y342D02*
X527Y342D01*
X1446Y342D02*
X1455Y342D01*
X1513Y342D02*
X1522Y342D01*
X1563Y342D02*
X1590Y342D01*
X1682Y342D02*
X1726Y342D01*
X251Y341D02*
X260Y341D01*
X364Y341D02*
X373Y341D01*
X388Y341D02*
X422Y341D01*
X450Y341D02*
X459Y341D01*
X518Y341D02*
X527Y341D01*
X1446Y341D02*
X1456Y341D01*
X1512Y341D02*
X1522Y341D01*
X1561Y341D02*
X1587Y341D01*
X1682Y341D02*
X1691Y341D01*
X1695Y341D02*
X1730Y341D01*
X1772Y341D02*
X1846Y341D01*
X251Y340D02*
X260Y340D01*
X364Y340D02*
X373Y340D01*
X391Y340D02*
X423Y340D01*
X450Y340D02*
X459Y340D01*
X518Y340D02*
X527Y340D01*
X1446Y340D02*
X1457Y340D01*
X1511Y340D02*
X1522Y340D01*
X1560Y340D02*
X1585Y340D01*
X1682Y340D02*
X1691Y340D01*
X1698Y340D02*
X1733Y340D01*
X1772Y340D02*
X1847Y340D01*
X251Y339D02*
X260Y339D01*
X364Y339D02*
X373Y339D01*
X395Y339D02*
X424Y339D01*
X450Y339D02*
X460Y339D01*
X517Y339D02*
X527Y339D01*
X1446Y339D02*
X1459Y339D01*
X1509Y339D02*
X1522Y339D01*
X1560Y339D02*
X1582Y339D01*
X1682Y339D02*
X1691Y339D01*
X1702Y339D02*
X1737Y339D01*
X1772Y339D02*
X1848Y339D01*
X251Y338D02*
X260Y338D01*
X364Y338D02*
X373Y338D01*
X398Y338D02*
X424Y338D01*
X450Y338D02*
X461Y338D01*
X517Y338D02*
X527Y338D01*
X1447Y338D02*
X1461Y338D01*
X1507Y338D02*
X1521Y338D01*
X1560Y338D02*
X1580Y338D01*
X1682Y338D02*
X1691Y338D01*
X1705Y338D02*
X1739Y338D01*
X1772Y338D02*
X1848Y338D01*
X251Y337D02*
X260Y337D01*
X364Y337D02*
X373Y337D01*
X401Y337D02*
X424Y337D01*
X451Y337D02*
X462Y337D01*
X515Y337D02*
X526Y337D01*
X1447Y337D02*
X1463Y337D01*
X1505Y337D02*
X1521Y337D01*
X1559Y337D02*
X1578Y337D01*
X1682Y337D02*
X1691Y337D01*
X1708Y337D02*
X1741Y337D01*
X1772Y337D02*
X1849Y337D01*
X251Y336D02*
X260Y336D01*
X364Y336D02*
X373Y336D01*
X399Y336D02*
X424Y336D01*
X451Y336D02*
X464Y336D01*
X513Y336D02*
X526Y336D01*
X1448Y336D02*
X1465Y336D01*
X1503Y336D02*
X1520Y336D01*
X1560Y336D02*
X1581Y336D01*
X1682Y336D02*
X1691Y336D01*
X1712Y336D02*
X1742Y336D01*
X1772Y336D02*
X1848Y336D01*
X251Y335D02*
X260Y335D01*
X364Y335D02*
X373Y335D01*
X396Y335D02*
X424Y335D01*
X451Y335D02*
X466Y335D01*
X511Y335D02*
X526Y335D01*
X1448Y335D02*
X1467Y335D01*
X1501Y335D02*
X1519Y335D01*
X1560Y335D02*
X1583Y335D01*
X1682Y335D02*
X1691Y335D01*
X1715Y335D02*
X1742Y335D01*
X1772Y335D02*
X1848Y335D01*
X251Y334D02*
X260Y334D01*
X364Y334D02*
X373Y334D01*
X392Y334D02*
X423Y334D01*
X452Y334D02*
X468Y334D01*
X509Y334D02*
X525Y334D01*
X1449Y334D02*
X1469Y334D01*
X1500Y334D02*
X1518Y334D01*
X1561Y334D02*
X1586Y334D01*
X1682Y334D02*
X1691Y334D01*
X1719Y334D02*
X1742Y334D01*
X1772Y334D02*
X1848Y334D01*
X251Y333D02*
X260Y333D01*
X364Y333D02*
X373Y333D01*
X389Y333D02*
X422Y333D01*
X453Y333D02*
X470Y333D01*
X507Y333D02*
X524Y333D01*
X1450Y333D02*
X1470Y333D01*
X1498Y333D02*
X1518Y333D01*
X1562Y333D02*
X1588Y333D01*
X1682Y333D02*
X1691Y333D01*
X1718Y333D02*
X1742Y333D01*
X1772Y333D02*
X1847Y333D01*
X251Y332D02*
X260Y332D01*
X364Y332D02*
X373Y332D01*
X385Y332D02*
X420Y332D01*
X453Y332D02*
X472Y332D01*
X505Y332D02*
X523Y332D01*
X1451Y332D02*
X1472Y332D01*
X1496Y332D02*
X1516Y332D01*
X1564Y332D02*
X1591Y332D01*
X1682Y332D02*
X1691Y332D01*
X1715Y332D02*
X1742Y332D01*
X1772Y332D02*
X1845Y332D01*
X251Y331D02*
X260Y331D01*
X364Y331D02*
X373Y331D01*
X382Y331D02*
X417Y331D01*
X454Y331D02*
X474Y331D01*
X503Y331D02*
X523Y331D01*
X1453Y331D02*
X1474Y331D01*
X1494Y331D02*
X1515Y331D01*
X1566Y331D02*
X1593Y331D01*
X1682Y331D02*
X1691Y331D01*
X1712Y331D02*
X1742Y331D01*
X1772Y331D02*
X1781Y331D01*
X251Y330D02*
X260Y330D01*
X364Y330D02*
X373Y330D01*
X379Y330D02*
X414Y330D01*
X455Y330D02*
X476Y330D01*
X501Y330D02*
X522Y330D01*
X1455Y330D02*
X1476Y330D01*
X1492Y330D02*
X1513Y330D01*
X1569Y330D02*
X1596Y330D01*
X1682Y330D02*
X1691Y330D01*
X1708Y330D02*
X1741Y330D01*
X1772Y330D02*
X1781Y330D01*
X251Y329D02*
X260Y329D01*
X364Y329D02*
X373Y329D01*
X375Y329D02*
X410Y329D01*
X456Y329D02*
X478Y329D01*
X499Y329D02*
X520Y329D01*
X1457Y329D02*
X1479Y329D01*
X1489Y329D02*
X1511Y329D01*
X1572Y329D02*
X1598Y329D01*
X1682Y329D02*
X1691Y329D01*
X1705Y329D02*
X1739Y329D01*
X1772Y329D02*
X1781Y329D01*
X251Y328D02*
X260Y328D01*
X364Y328D02*
X407Y328D01*
X458Y328D02*
X480Y328D01*
X497Y328D02*
X519Y328D01*
X1459Y328D02*
X1483Y328D01*
X1485Y328D02*
X1509Y328D01*
X1574Y328D02*
X1601Y328D01*
X1682Y328D02*
X1691Y328D01*
X1701Y328D02*
X1736Y328D01*
X1772Y328D02*
X1781Y328D01*
X251Y327D02*
X260Y327D01*
X364Y327D02*
X403Y327D01*
X460Y327D02*
X482Y327D01*
X495Y327D02*
X517Y327D01*
X1461Y327D02*
X1507Y327D01*
X1577Y327D02*
X1604Y327D01*
X1682Y327D02*
X1691Y327D01*
X1698Y327D02*
X1733Y327D01*
X1772Y327D02*
X1781Y327D01*
X251Y326D02*
X260Y326D01*
X364Y326D02*
X400Y326D01*
X462Y326D02*
X484Y326D01*
X493Y326D02*
X515Y326D01*
X1463Y326D02*
X1505Y326D01*
X1579Y326D02*
X1606Y326D01*
X1682Y326D02*
X1691Y326D01*
X1695Y326D02*
X1730Y326D01*
X1772Y326D02*
X1781Y326D01*
X251Y325D02*
X260Y325D01*
X362Y325D02*
X397Y325D01*
X464Y325D02*
X513Y325D01*
X1465Y325D02*
X1503Y325D01*
X1582Y325D02*
X1609Y325D01*
X1682Y325D02*
X1726Y325D01*
X1772Y325D02*
X1781Y325D01*
X251Y324D02*
X260Y324D01*
X358Y324D02*
X393Y324D01*
X466Y324D02*
X511Y324D01*
X1467Y324D02*
X1501Y324D01*
X1584Y324D02*
X1611Y324D01*
X1682Y324D02*
X1723Y324D01*
X1772Y324D02*
X1781Y324D01*
X251Y323D02*
X260Y323D01*
X355Y323D02*
X390Y323D01*
X468Y323D02*
X509Y323D01*
X1469Y323D02*
X1499Y323D01*
X1587Y323D02*
X1614Y323D01*
X1682Y323D02*
X1719Y323D01*
X1772Y323D02*
X1781Y323D01*
X251Y322D02*
X260Y322D01*
X351Y322D02*
X386Y322D01*
X470Y322D02*
X507Y322D01*
X1471Y322D02*
X1497Y322D01*
X1589Y322D02*
X1633Y322D01*
X1681Y322D02*
X1716Y322D01*
X1772Y322D02*
X1781Y322D01*
X251Y321D02*
X260Y321D01*
X349Y321D02*
X383Y321D01*
X472Y321D02*
X505Y321D01*
X1473Y321D02*
X1495Y321D01*
X1592Y321D02*
X1635Y321D01*
X1678Y321D02*
X1712Y321D01*
X1772Y321D02*
X1781Y321D01*
X251Y320D02*
X260Y320D01*
X348Y320D02*
X379Y320D01*
X474Y320D02*
X503Y320D01*
X1475Y320D02*
X1493Y320D01*
X1595Y320D02*
X1636Y320D01*
X1674Y320D02*
X1709Y320D01*
X1772Y320D02*
X1781Y320D01*
X251Y319D02*
X260Y319D01*
X348Y319D02*
X376Y319D01*
X476Y319D02*
X501Y319D01*
X1478Y319D02*
X1490Y319D01*
X1597Y319D02*
X1636Y319D01*
X1671Y319D02*
X1706Y319D01*
X1772Y319D02*
X1781Y319D01*
X251Y318D02*
X260Y318D01*
X347Y318D02*
X373Y318D01*
X478Y318D02*
X499Y318D01*
X1482Y318D02*
X1486Y318D01*
X1600Y318D02*
X1636Y318D01*
X1668Y318D02*
X1702Y318D01*
X1772Y318D02*
X1781Y318D01*
X251Y317D02*
X260Y317D01*
X347Y317D02*
X369Y317D01*
X480Y317D02*
X497Y317D01*
X1602Y317D02*
X1636Y317D01*
X1667Y317D02*
X1699Y317D01*
X1772Y317D02*
X1781Y317D01*
X251Y316D02*
X260Y316D01*
X347Y316D02*
X366Y316D01*
X483Y316D02*
X494Y316D01*
X1605Y316D02*
X1636Y316D01*
X1666Y316D02*
X1695Y316D01*
X1772Y316D02*
X1781Y316D01*
X251Y315D02*
X260Y315D01*
X348Y315D02*
X362Y315D01*
X1607Y315D02*
X1636Y315D01*
X1666Y315D02*
X1692Y315D01*
X1772Y315D02*
X1781Y315D01*
X251Y314D02*
X260Y314D01*
X348Y314D02*
X359Y314D01*
X1610Y314D02*
X1635Y314D01*
X1665Y314D02*
X1688Y314D01*
X1772Y314D02*
X1781Y314D01*
X251Y313D02*
X260Y313D01*
X349Y313D02*
X355Y313D01*
X1613Y313D02*
X1634Y313D01*
X1665Y313D02*
X1685Y313D01*
X1772Y313D02*
X1781Y313D01*
X251Y312D02*
X260Y312D01*
X351Y312D02*
X352Y312D01*
X1666Y312D02*
X1682Y312D01*
X1772Y312D02*
X1781Y312D01*
X252Y311D02*
X259Y311D01*
X1666Y311D02*
X1678Y311D01*
X1772Y311D02*
X1781Y311D01*
X252Y310D02*
X258Y310D01*
X1667Y310D02*
X1675Y310D01*
X1772Y310D02*
X1781Y310D01*
X254Y309D02*
X257Y309D01*
X1668Y309D02*
X1671Y309D01*
X1772Y309D02*
X1781Y309D01*
X1772Y308D02*
X1781Y308D01*
X1772Y307D02*
X1781Y307D01*
X1772Y306D02*
X1781Y306D01*
X1772Y305D02*
X1781Y305D01*
X1772Y304D02*
X1781Y304D01*
X1772Y303D02*
X1781Y303D01*
X1772Y302D02*
X1781Y302D01*
X1772Y301D02*
X1781Y301D01*
X1772Y300D02*
X1781Y300D01*
X1772Y299D02*
X1781Y299D01*
X1772Y298D02*
X1781Y298D01*
X1772Y297D02*
X1781Y297D01*
X1772Y296D02*
X1780Y296D01*
X1772Y295D02*
X1780Y295D01*
X1773Y294D02*
X1780Y294D01*
X1774Y293D02*
X1779Y293D01*
X553Y292D02*
X626Y292D01*
X553Y291D02*
X626Y291D01*
X553Y290D02*
X626Y290D01*
X553Y289D02*
X626Y289D01*
X553Y288D02*
X626Y288D01*
X553Y287D02*
X626Y287D01*
X553Y286D02*
X626Y286D01*
X553Y285D02*
X626Y285D01*
X553Y284D02*
X626Y284D01*
X553Y283D02*
X626Y283D01*
X553Y282D02*
X626Y282D01*
X1463Y282D02*
X1536Y282D01*
X553Y281D02*
X626Y281D01*
X1463Y281D02*
X1536Y281D01*
X553Y280D02*
X626Y280D01*
X1463Y280D02*
X1536Y280D01*
X553Y279D02*
X626Y279D01*
X1463Y279D02*
X1536Y279D01*
X553Y278D02*
X626Y278D01*
X1463Y278D02*
X1536Y278D01*
X553Y277D02*
X626Y277D01*
X1463Y277D02*
X1536Y277D01*
X553Y276D02*
X626Y276D01*
X1463Y276D02*
X1536Y276D01*
X553Y275D02*
X584Y275D01*
X595Y275D02*
X626Y275D01*
X1463Y275D02*
X1536Y275D01*
X553Y274D02*
X581Y274D01*
X598Y274D02*
X626Y274D01*
X1463Y274D02*
X1536Y274D01*
X553Y273D02*
X579Y273D01*
X600Y273D02*
X626Y273D01*
X1463Y273D02*
X1536Y273D01*
X553Y272D02*
X578Y272D01*
X602Y272D02*
X626Y272D01*
X1463Y272D02*
X1536Y272D01*
X553Y271D02*
X576Y271D01*
X603Y271D02*
X626Y271D01*
X1463Y271D02*
X1536Y271D01*
X553Y270D02*
X575Y270D01*
X604Y270D02*
X626Y270D01*
X1463Y270D02*
X1536Y270D01*
X553Y269D02*
X574Y269D01*
X605Y269D02*
X626Y269D01*
X1463Y269D02*
X1536Y269D01*
X553Y268D02*
X573Y268D01*
X606Y268D02*
X626Y268D01*
X1463Y268D02*
X1536Y268D01*
X553Y267D02*
X573Y267D01*
X607Y267D02*
X626Y267D01*
X1463Y267D02*
X1536Y267D01*
X553Y266D02*
X572Y266D01*
X607Y266D02*
X626Y266D01*
X1463Y266D02*
X1536Y266D01*
X553Y265D02*
X572Y265D01*
X608Y265D02*
X626Y265D01*
X1463Y265D02*
X1494Y265D01*
X1505Y265D02*
X1536Y265D01*
X553Y264D02*
X571Y264D01*
X608Y264D02*
X626Y264D01*
X1463Y264D02*
X1491Y264D01*
X1508Y264D02*
X1536Y264D01*
X553Y263D02*
X571Y263D01*
X609Y263D02*
X626Y263D01*
X1463Y263D02*
X1489Y263D01*
X1510Y263D02*
X1536Y263D01*
X553Y262D02*
X570Y262D01*
X609Y262D02*
X626Y262D01*
X1463Y262D02*
X1488Y262D01*
X1512Y262D02*
X1536Y262D01*
X553Y261D02*
X570Y261D01*
X609Y261D02*
X626Y261D01*
X1463Y261D02*
X1486Y261D01*
X1513Y261D02*
X1536Y261D01*
X553Y260D02*
X570Y260D01*
X610Y260D02*
X626Y260D01*
X1463Y260D02*
X1485Y260D01*
X1514Y260D02*
X1536Y260D01*
X553Y259D02*
X569Y259D01*
X610Y259D02*
X626Y259D01*
X1463Y259D02*
X1484Y259D01*
X1515Y259D02*
X1536Y259D01*
X553Y258D02*
X569Y258D01*
X610Y258D02*
X626Y258D01*
X1463Y258D02*
X1484Y258D01*
X1516Y258D02*
X1536Y258D01*
X553Y257D02*
X569Y257D01*
X610Y257D02*
X626Y257D01*
X1463Y257D02*
X1483Y257D01*
X1517Y257D02*
X1536Y257D01*
X553Y256D02*
X569Y256D01*
X610Y256D02*
X626Y256D01*
X1463Y256D02*
X1482Y256D01*
X1517Y256D02*
X1536Y256D01*
X553Y255D02*
X569Y255D01*
X610Y255D02*
X626Y255D01*
X1463Y255D02*
X1482Y255D01*
X1518Y255D02*
X1536Y255D01*
X553Y254D02*
X569Y254D01*
X610Y254D02*
X626Y254D01*
X1463Y254D02*
X1481Y254D01*
X1518Y254D02*
X1536Y254D01*
X553Y253D02*
X569Y253D01*
X610Y253D02*
X626Y253D01*
X1463Y253D02*
X1481Y253D01*
X1519Y253D02*
X1536Y253D01*
X553Y252D02*
X569Y252D01*
X610Y252D02*
X626Y252D01*
X1463Y252D02*
X1480Y252D01*
X1519Y252D02*
X1536Y252D01*
X553Y251D02*
X570Y251D01*
X610Y251D02*
X626Y251D01*
X1463Y251D02*
X1480Y251D01*
X1519Y251D02*
X1536Y251D01*
X553Y250D02*
X570Y250D01*
X609Y250D02*
X626Y250D01*
X1463Y250D02*
X1480Y250D01*
X1520Y250D02*
X1536Y250D01*
X553Y249D02*
X570Y249D01*
X609Y249D02*
X626Y249D01*
X1463Y249D02*
X1480Y249D01*
X1520Y249D02*
X1536Y249D01*
X553Y248D02*
X571Y248D01*
X609Y248D02*
X626Y248D01*
X1463Y248D02*
X1479Y248D01*
X1520Y248D02*
X1536Y248D01*
X553Y247D02*
X571Y247D01*
X608Y247D02*
X626Y247D01*
X1463Y247D02*
X1479Y247D01*
X1520Y247D02*
X1536Y247D01*
X553Y246D02*
X572Y246D01*
X608Y246D02*
X626Y246D01*
X1463Y246D02*
X1479Y246D01*
X1520Y246D02*
X1536Y246D01*
X553Y245D02*
X572Y245D01*
X607Y245D02*
X626Y245D01*
X1463Y245D02*
X1479Y245D01*
X1520Y245D02*
X1536Y245D01*
X553Y244D02*
X573Y244D01*
X606Y244D02*
X626Y244D01*
X1463Y244D02*
X1479Y244D01*
X1520Y244D02*
X1536Y244D01*
X553Y243D02*
X574Y243D01*
X605Y243D02*
X626Y243D01*
X1463Y243D02*
X1479Y243D01*
X1520Y243D02*
X1536Y243D01*
X553Y242D02*
X575Y242D01*
X605Y242D02*
X626Y242D01*
X1463Y242D02*
X1480Y242D01*
X1520Y242D02*
X1536Y242D01*
X553Y241D02*
X576Y241D01*
X604Y241D02*
X626Y241D01*
X1463Y241D02*
X1480Y241D01*
X1520Y241D02*
X1536Y241D01*
X553Y240D02*
X577Y240D01*
X602Y240D02*
X626Y240D01*
X1463Y240D02*
X1480Y240D01*
X1519Y240D02*
X1536Y240D01*
X553Y239D02*
X578Y239D01*
X601Y239D02*
X626Y239D01*
X1463Y239D02*
X1480Y239D01*
X1519Y239D02*
X1536Y239D01*
X553Y238D02*
X580Y238D01*
X599Y238D02*
X626Y238D01*
X1463Y238D02*
X1481Y238D01*
X1519Y238D02*
X1536Y238D01*
X553Y237D02*
X582Y237D01*
X597Y237D02*
X626Y237D01*
X1463Y237D02*
X1481Y237D01*
X1518Y237D02*
X1536Y237D01*
X553Y236D02*
X586Y236D01*
X593Y236D02*
X626Y236D01*
X1463Y236D02*
X1482Y236D01*
X1518Y236D02*
X1536Y236D01*
X553Y235D02*
X626Y235D01*
X1463Y235D02*
X1482Y235D01*
X1517Y235D02*
X1536Y235D01*
X553Y234D02*
X626Y234D01*
X1463Y234D02*
X1483Y234D01*
X1516Y234D02*
X1536Y234D01*
X553Y233D02*
X626Y233D01*
X1463Y233D02*
X1484Y233D01*
X1516Y233D02*
X1536Y233D01*
X553Y232D02*
X626Y232D01*
X1463Y232D02*
X1485Y232D01*
X1515Y232D02*
X1536Y232D01*
X553Y231D02*
X626Y231D01*
X1463Y231D02*
X1486Y231D01*
X1514Y231D02*
X1536Y231D01*
X553Y230D02*
X626Y230D01*
X1463Y230D02*
X1487Y230D01*
X1512Y230D02*
X1536Y230D01*
X553Y229D02*
X626Y229D01*
X1463Y229D02*
X1488Y229D01*
X1511Y229D02*
X1536Y229D01*
X553Y228D02*
X626Y228D01*
X1463Y228D02*
X1490Y228D01*
X1509Y228D02*
X1536Y228D01*
X553Y227D02*
X626Y227D01*
X1463Y227D02*
X1492Y227D01*
X1507Y227D02*
X1536Y227D01*
X553Y226D02*
X626Y226D01*
X1463Y226D02*
X1496Y226D01*
X1504Y226D02*
X1536Y226D01*
X553Y225D02*
X626Y225D01*
X1463Y225D02*
X1536Y225D01*
X553Y224D02*
X626Y224D01*
X1463Y224D02*
X1536Y224D01*
X553Y223D02*
X626Y223D01*
X1463Y223D02*
X1536Y223D01*
X553Y222D02*
X626Y222D01*
X1463Y222D02*
X1536Y222D01*
X553Y221D02*
X626Y221D01*
X1463Y221D02*
X1536Y221D01*
X553Y220D02*
X626Y220D01*
X1463Y220D02*
X1536Y220D01*
X553Y219D02*
X626Y219D01*
X1463Y219D02*
X1536Y219D01*
X1463Y218D02*
X1536Y218D01*
X1463Y217D02*
X1536Y217D01*
X1463Y216D02*
X1536Y216D01*
X1463Y215D02*
X1536Y215D01*
X1463Y214D02*
X1536Y214D01*
X1463Y213D02*
X1536Y213D01*
X1463Y212D02*
X1536Y212D01*
X1463Y211D02*
X1536Y211D01*
X1463Y210D02*
X1536Y210D01*
X1463Y209D02*
X1536Y209D01*
X335Y166D02*
X372Y166D01*
X429Y166D02*
X453Y166D01*
X479Y166D02*
X525Y166D01*
X335Y165D02*
X375Y165D01*
X426Y165D02*
X454Y165D01*
X479Y165D02*
X526Y165D01*
X335Y164D02*
X377Y164D01*
X424Y164D02*
X455Y164D01*
X479Y164D02*
X527Y164D01*
X335Y163D02*
X378Y163D01*
X423Y163D02*
X455Y163D01*
X479Y163D02*
X528Y163D01*
X335Y162D02*
X379Y162D01*
X422Y162D02*
X456Y162D01*
X479Y162D02*
X528Y162D01*
X335Y161D02*
X380Y161D01*
X421Y161D02*
X456Y161D01*
X479Y161D02*
X528Y161D01*
X335Y160D02*
X381Y160D01*
X420Y160D02*
X455Y160D01*
X479Y160D02*
X528Y160D01*
X335Y159D02*
X381Y159D01*
X420Y159D02*
X455Y159D01*
X479Y159D02*
X527Y159D01*
X335Y158D02*
X382Y158D01*
X419Y158D02*
X454Y158D01*
X479Y158D02*
X526Y158D01*
X335Y157D02*
X382Y157D01*
X419Y157D02*
X453Y157D01*
X479Y157D02*
X525Y157D01*
X335Y156D02*
X344Y156D01*
X371Y156D02*
X383Y156D01*
X418Y156D02*
X430Y156D01*
X479Y156D02*
X488Y156D01*
X1570Y156D02*
X1608Y156D01*
X1642Y156D02*
X1691Y156D01*
X1736Y156D02*
X1760Y156D01*
X335Y155D02*
X344Y155D01*
X373Y155D02*
X383Y155D01*
X418Y155D02*
X428Y155D01*
X479Y155D02*
X488Y155D01*
X1570Y155D02*
X1610Y155D01*
X1642Y155D02*
X1691Y155D01*
X1734Y155D02*
X1762Y155D01*
X335Y154D02*
X344Y154D01*
X373Y154D02*
X383Y154D01*
X417Y154D02*
X428Y154D01*
X479Y154D02*
X488Y154D01*
X1570Y154D02*
X1612Y154D01*
X1642Y154D02*
X1691Y154D01*
X1732Y154D02*
X1762Y154D01*
X335Y153D02*
X344Y153D01*
X374Y153D02*
X383Y153D01*
X417Y153D02*
X427Y153D01*
X479Y153D02*
X488Y153D01*
X1570Y153D02*
X1613Y153D01*
X1642Y153D02*
X1691Y153D01*
X1730Y153D02*
X1763Y153D01*
X335Y152D02*
X344Y152D01*
X374Y152D02*
X383Y152D01*
X416Y152D02*
X427Y152D01*
X479Y152D02*
X488Y152D01*
X1570Y152D02*
X1614Y152D01*
X1642Y152D02*
X1691Y152D01*
X1729Y152D02*
X1763Y152D01*
X335Y151D02*
X344Y151D01*
X374Y151D02*
X383Y151D01*
X416Y151D02*
X426Y151D01*
X479Y151D02*
X488Y151D01*
X1570Y151D02*
X1615Y151D01*
X1642Y151D02*
X1691Y151D01*
X1729Y151D02*
X1763Y151D01*
X335Y150D02*
X344Y150D01*
X374Y150D02*
X383Y150D01*
X415Y150D02*
X426Y150D01*
X479Y150D02*
X488Y150D01*
X1570Y150D02*
X1616Y150D01*
X1642Y150D02*
X1691Y150D01*
X1728Y150D02*
X1763Y150D01*
X335Y149D02*
X344Y149D01*
X374Y149D02*
X383Y149D01*
X415Y149D02*
X425Y149D01*
X479Y149D02*
X488Y149D01*
X1570Y149D02*
X1616Y149D01*
X1642Y149D02*
X1691Y149D01*
X1727Y149D02*
X1762Y149D01*
X335Y148D02*
X344Y148D01*
X374Y148D02*
X383Y148D01*
X414Y148D02*
X425Y148D01*
X479Y148D02*
X488Y148D01*
X1570Y148D02*
X1617Y148D01*
X1642Y148D02*
X1691Y148D01*
X1727Y148D02*
X1762Y148D01*
X335Y147D02*
X344Y147D01*
X374Y147D02*
X383Y147D01*
X414Y147D02*
X424Y147D01*
X479Y147D02*
X488Y147D01*
X1570Y147D02*
X1618Y147D01*
X1642Y147D02*
X1691Y147D01*
X1726Y147D02*
X1760Y147D01*
X335Y146D02*
X344Y146D01*
X374Y146D02*
X383Y146D01*
X413Y146D02*
X424Y146D01*
X479Y146D02*
X488Y146D01*
X1570Y146D02*
X1579Y146D01*
X1606Y146D02*
X1618Y146D01*
X1642Y146D02*
X1651Y146D01*
X1662Y146D02*
X1671Y146D01*
X1682Y146D02*
X1691Y146D01*
X1726Y146D02*
X1737Y146D01*
X335Y145D02*
X344Y145D01*
X374Y145D02*
X383Y145D01*
X413Y145D02*
X423Y145D01*
X479Y145D02*
X488Y145D01*
X1570Y145D02*
X1579Y145D01*
X1608Y145D02*
X1618Y145D01*
X1642Y145D02*
X1651Y145D01*
X1662Y145D02*
X1671Y145D01*
X1682Y145D02*
X1691Y145D01*
X1725Y145D02*
X1736Y145D01*
X335Y144D02*
X344Y144D01*
X374Y144D02*
X383Y144D01*
X412Y144D02*
X423Y144D01*
X479Y144D02*
X488Y144D01*
X1570Y144D02*
X1579Y144D01*
X1609Y144D02*
X1618Y144D01*
X1642Y144D02*
X1651Y144D01*
X1662Y144D02*
X1671Y144D01*
X1682Y144D02*
X1691Y144D01*
X1725Y144D02*
X1735Y144D01*
X335Y143D02*
X344Y143D01*
X374Y143D02*
X383Y143D01*
X412Y143D02*
X422Y143D01*
X479Y143D02*
X488Y143D01*
X1570Y143D02*
X1579Y143D01*
X1609Y143D02*
X1618Y143D01*
X1642Y143D02*
X1651Y143D01*
X1662Y143D02*
X1671Y143D01*
X1682Y143D02*
X1691Y143D01*
X1724Y143D02*
X1735Y143D01*
X335Y142D02*
X344Y142D01*
X374Y142D02*
X383Y142D01*
X411Y142D02*
X422Y142D01*
X479Y142D02*
X488Y142D01*
X1570Y142D02*
X1579Y142D01*
X1609Y142D02*
X1619Y142D01*
X1642Y142D02*
X1651Y142D01*
X1662Y142D02*
X1671Y142D01*
X1682Y142D02*
X1691Y142D01*
X1724Y142D02*
X1734Y142D01*
X335Y141D02*
X344Y141D01*
X374Y141D02*
X383Y141D01*
X411Y141D02*
X421Y141D01*
X479Y141D02*
X513Y141D01*
X1570Y141D02*
X1579Y141D01*
X1609Y141D02*
X1619Y141D01*
X1643Y141D02*
X1651Y141D01*
X1662Y141D02*
X1671Y141D01*
X1682Y141D02*
X1690Y141D01*
X1723Y141D02*
X1734Y141D01*
X335Y140D02*
X344Y140D01*
X374Y140D02*
X383Y140D01*
X410Y140D02*
X421Y140D01*
X479Y140D02*
X516Y140D01*
X1570Y140D02*
X1579Y140D01*
X1609Y140D02*
X1619Y140D01*
X1643Y140D02*
X1650Y140D01*
X1662Y140D02*
X1671Y140D01*
X1683Y140D02*
X1690Y140D01*
X1723Y140D02*
X1733Y140D01*
X335Y139D02*
X344Y139D01*
X374Y139D02*
X383Y139D01*
X410Y139D02*
X420Y139D01*
X479Y139D02*
X517Y139D01*
X1570Y139D02*
X1579Y139D01*
X1609Y139D02*
X1619Y139D01*
X1644Y139D02*
X1649Y139D01*
X1662Y139D02*
X1671Y139D01*
X1684Y139D02*
X1689Y139D01*
X1722Y139D02*
X1733Y139D01*
X335Y138D02*
X344Y138D01*
X374Y138D02*
X383Y138D01*
X409Y138D02*
X420Y138D01*
X479Y138D02*
X518Y138D01*
X1570Y138D02*
X1579Y138D01*
X1609Y138D02*
X1619Y138D01*
X1662Y138D02*
X1671Y138D01*
X1722Y138D02*
X1732Y138D01*
X335Y137D02*
X344Y137D01*
X374Y137D02*
X383Y137D01*
X409Y137D02*
X419Y137D01*
X479Y137D02*
X518Y137D01*
X1570Y137D02*
X1579Y137D01*
X1609Y137D02*
X1619Y137D01*
X1662Y137D02*
X1671Y137D01*
X1721Y137D02*
X1732Y137D01*
X335Y136D02*
X344Y136D01*
X374Y136D02*
X383Y136D01*
X408Y136D02*
X419Y136D01*
X479Y136D02*
X518Y136D01*
X1570Y136D02*
X1579Y136D01*
X1609Y136D02*
X1619Y136D01*
X1662Y136D02*
X1671Y136D01*
X1721Y136D02*
X1731Y136D01*
X335Y135D02*
X344Y135D01*
X374Y135D02*
X383Y135D01*
X408Y135D02*
X418Y135D01*
X479Y135D02*
X518Y135D01*
X1570Y135D02*
X1579Y135D01*
X1609Y135D02*
X1618Y135D01*
X1662Y135D02*
X1671Y135D01*
X1720Y135D02*
X1731Y135D01*
X335Y134D02*
X344Y134D01*
X374Y134D02*
X383Y134D01*
X408Y134D02*
X418Y134D01*
X479Y134D02*
X517Y134D01*
X1570Y134D02*
X1579Y134D01*
X1609Y134D02*
X1618Y134D01*
X1662Y134D02*
X1671Y134D01*
X1720Y134D02*
X1730Y134D01*
X335Y133D02*
X344Y133D01*
X374Y133D02*
X383Y133D01*
X408Y133D02*
X417Y133D01*
X479Y133D02*
X517Y133D01*
X1570Y133D02*
X1579Y133D01*
X1608Y133D02*
X1618Y133D01*
X1662Y133D02*
X1671Y133D01*
X1719Y133D02*
X1730Y133D01*
X335Y132D02*
X344Y132D01*
X374Y132D02*
X383Y132D01*
X407Y132D02*
X417Y132D01*
X479Y132D02*
X516Y132D01*
X1570Y132D02*
X1579Y132D01*
X1607Y132D02*
X1618Y132D01*
X1662Y132D02*
X1671Y132D01*
X1719Y132D02*
X1729Y132D01*
X335Y131D02*
X344Y131D01*
X373Y131D02*
X383Y131D01*
X407Y131D02*
X416Y131D01*
X479Y131D02*
X513Y131D01*
X1570Y131D02*
X1618Y131D01*
X1662Y131D02*
X1671Y131D01*
X1718Y131D02*
X1729Y131D01*
X335Y130D02*
X344Y130D01*
X373Y130D02*
X383Y130D01*
X407Y130D02*
X416Y130D01*
X479Y130D02*
X488Y130D01*
X1570Y130D02*
X1617Y130D01*
X1662Y130D02*
X1671Y130D01*
X1718Y130D02*
X1728Y130D01*
X335Y129D02*
X344Y129D01*
X371Y129D02*
X383Y129D01*
X407Y129D02*
X416Y129D01*
X479Y129D02*
X488Y129D01*
X1570Y129D02*
X1617Y129D01*
X1662Y129D02*
X1671Y129D01*
X1717Y129D02*
X1728Y129D01*
X335Y128D02*
X382Y128D01*
X407Y128D02*
X416Y128D01*
X479Y128D02*
X488Y128D01*
X1570Y128D02*
X1616Y128D01*
X1662Y128D02*
X1671Y128D01*
X1717Y128D02*
X1727Y128D01*
X335Y127D02*
X382Y127D01*
X407Y127D02*
X416Y127D01*
X479Y127D02*
X488Y127D01*
X1570Y127D02*
X1615Y127D01*
X1662Y127D02*
X1671Y127D01*
X1716Y127D02*
X1727Y127D01*
X335Y126D02*
X381Y126D01*
X407Y126D02*
X416Y126D01*
X479Y126D02*
X488Y126D01*
X1570Y126D02*
X1614Y126D01*
X1662Y126D02*
X1671Y126D01*
X1716Y126D02*
X1726Y126D01*
X335Y125D02*
X381Y125D01*
X407Y125D02*
X416Y125D01*
X479Y125D02*
X488Y125D01*
X1570Y125D02*
X1613Y125D01*
X1662Y125D02*
X1671Y125D01*
X1716Y125D02*
X1726Y125D01*
X335Y124D02*
X380Y124D01*
X407Y124D02*
X416Y124D01*
X479Y124D02*
X488Y124D01*
X1570Y124D02*
X1612Y124D01*
X1662Y124D02*
X1671Y124D01*
X1715Y124D02*
X1725Y124D01*
X335Y123D02*
X379Y123D01*
X407Y123D02*
X417Y123D01*
X479Y123D02*
X488Y123D01*
X1570Y123D02*
X1611Y123D01*
X1662Y123D02*
X1671Y123D01*
X1715Y123D02*
X1725Y123D01*
X335Y122D02*
X378Y122D01*
X408Y122D02*
X417Y122D01*
X479Y122D02*
X488Y122D01*
X1570Y122D02*
X1609Y122D01*
X1662Y122D02*
X1671Y122D01*
X1715Y122D02*
X1724Y122D01*
X335Y121D02*
X377Y121D01*
X408Y121D02*
X418Y121D01*
X479Y121D02*
X488Y121D01*
X1570Y121D02*
X1579Y121D01*
X1586Y121D02*
X1598Y121D01*
X1662Y121D02*
X1671Y121D01*
X1715Y121D02*
X1724Y121D01*
X335Y120D02*
X375Y120D01*
X408Y120D02*
X418Y120D01*
X479Y120D02*
X488Y120D01*
X1570Y120D02*
X1579Y120D01*
X1587Y120D02*
X1598Y120D01*
X1662Y120D02*
X1671Y120D01*
X1714Y120D02*
X1724Y120D01*
X335Y119D02*
X373Y119D01*
X409Y119D02*
X419Y119D01*
X479Y119D02*
X488Y119D01*
X1570Y119D02*
X1579Y119D01*
X1588Y119D02*
X1599Y119D01*
X1662Y119D02*
X1671Y119D01*
X1714Y119D02*
X1724Y119D01*
X335Y118D02*
X344Y118D01*
X409Y118D02*
X419Y118D01*
X479Y118D02*
X488Y118D01*
X1570Y118D02*
X1579Y118D01*
X1589Y118D02*
X1599Y118D01*
X1662Y118D02*
X1671Y118D01*
X1714Y118D02*
X1723Y118D01*
X335Y117D02*
X344Y117D01*
X409Y117D02*
X420Y117D01*
X479Y117D02*
X488Y117D01*
X1570Y117D02*
X1579Y117D01*
X1589Y117D02*
X1600Y117D01*
X1662Y117D02*
X1671Y117D01*
X1714Y117D02*
X1724Y117D01*
X335Y116D02*
X344Y116D01*
X410Y116D02*
X420Y116D01*
X479Y116D02*
X488Y116D01*
X1570Y116D02*
X1579Y116D01*
X1590Y116D02*
X1601Y116D01*
X1662Y116D02*
X1671Y116D01*
X1714Y116D02*
X1724Y116D01*
X335Y115D02*
X344Y115D01*
X410Y115D02*
X421Y115D01*
X479Y115D02*
X488Y115D01*
X1570Y115D02*
X1579Y115D01*
X1590Y115D02*
X1601Y115D01*
X1662Y115D02*
X1671Y115D01*
X1715Y115D02*
X1724Y115D01*
X335Y114D02*
X344Y114D01*
X411Y114D02*
X421Y114D01*
X479Y114D02*
X488Y114D01*
X1570Y114D02*
X1579Y114D01*
X1591Y114D02*
X1602Y114D01*
X1662Y114D02*
X1671Y114D01*
X1715Y114D02*
X1724Y114D01*
X335Y113D02*
X344Y113D01*
X411Y113D02*
X422Y113D01*
X479Y113D02*
X488Y113D01*
X1570Y113D02*
X1579Y113D01*
X1591Y113D02*
X1602Y113D01*
X1662Y113D02*
X1671Y113D01*
X1715Y113D02*
X1724Y113D01*
X335Y112D02*
X344Y112D01*
X412Y112D02*
X422Y112D01*
X479Y112D02*
X488Y112D01*
X1570Y112D02*
X1579Y112D01*
X1592Y112D02*
X1603Y112D01*
X1662Y112D02*
X1671Y112D01*
X1715Y112D02*
X1725Y112D01*
X335Y111D02*
X344Y111D01*
X412Y111D02*
X423Y111D01*
X479Y111D02*
X488Y111D01*
X1570Y111D02*
X1579Y111D01*
X1593Y111D02*
X1603Y111D01*
X1662Y111D02*
X1671Y111D01*
X1715Y111D02*
X1725Y111D01*
X335Y110D02*
X344Y110D01*
X413Y110D02*
X423Y110D01*
X479Y110D02*
X488Y110D01*
X1570Y110D02*
X1579Y110D01*
X1593Y110D02*
X1604Y110D01*
X1662Y110D02*
X1671Y110D01*
X1716Y110D02*
X1726Y110D01*
X335Y109D02*
X344Y109D01*
X413Y109D02*
X424Y109D01*
X479Y109D02*
X488Y109D01*
X1570Y109D02*
X1579Y109D01*
X1594Y109D02*
X1605Y109D01*
X1662Y109D02*
X1671Y109D01*
X1716Y109D02*
X1726Y109D01*
X335Y108D02*
X344Y108D01*
X414Y108D02*
X424Y108D01*
X479Y108D02*
X488Y108D01*
X1570Y108D02*
X1579Y108D01*
X1594Y108D02*
X1605Y108D01*
X1662Y108D02*
X1671Y108D01*
X1716Y108D02*
X1727Y108D01*
X335Y107D02*
X344Y107D01*
X414Y107D02*
X425Y107D01*
X479Y107D02*
X488Y107D01*
X1570Y107D02*
X1579Y107D01*
X1595Y107D02*
X1606Y107D01*
X1662Y107D02*
X1671Y107D01*
X1717Y107D02*
X1727Y107D01*
X335Y106D02*
X344Y106D01*
X415Y106D02*
X425Y106D01*
X479Y106D02*
X488Y106D01*
X1570Y106D02*
X1579Y106D01*
X1596Y106D02*
X1606Y106D01*
X1662Y106D02*
X1671Y106D01*
X1717Y106D02*
X1728Y106D01*
X335Y105D02*
X344Y105D01*
X415Y105D02*
X426Y105D01*
X479Y105D02*
X488Y105D01*
X1570Y105D02*
X1579Y105D01*
X1596Y105D02*
X1607Y105D01*
X1662Y105D02*
X1671Y105D01*
X1718Y105D02*
X1728Y105D01*
X335Y104D02*
X344Y104D01*
X416Y104D02*
X426Y104D01*
X479Y104D02*
X488Y104D01*
X1570Y104D02*
X1579Y104D01*
X1597Y104D02*
X1608Y104D01*
X1662Y104D02*
X1671Y104D01*
X1718Y104D02*
X1729Y104D01*
X335Y103D02*
X344Y103D01*
X416Y103D02*
X427Y103D01*
X479Y103D02*
X488Y103D01*
X1570Y103D02*
X1579Y103D01*
X1597Y103D02*
X1608Y103D01*
X1662Y103D02*
X1671Y103D01*
X1719Y103D02*
X1729Y103D01*
X335Y102D02*
X344Y102D01*
X417Y102D02*
X427Y102D01*
X479Y102D02*
X488Y102D01*
X1570Y102D02*
X1579Y102D01*
X1598Y102D02*
X1609Y102D01*
X1662Y102D02*
X1671Y102D01*
X1719Y102D02*
X1730Y102D01*
X335Y101D02*
X344Y101D01*
X417Y101D02*
X428Y101D01*
X479Y101D02*
X488Y101D01*
X1570Y101D02*
X1579Y101D01*
X1598Y101D02*
X1609Y101D01*
X1662Y101D02*
X1671Y101D01*
X1720Y101D02*
X1730Y101D01*
X335Y100D02*
X344Y100D01*
X418Y100D02*
X429Y100D01*
X479Y100D02*
X488Y100D01*
X1570Y100D02*
X1579Y100D01*
X1599Y100D02*
X1610Y100D01*
X1662Y100D02*
X1671Y100D01*
X1720Y100D02*
X1731Y100D01*
X335Y99D02*
X344Y99D01*
X418Y99D02*
X430Y99D01*
X479Y99D02*
X488Y99D01*
X1570Y99D02*
X1579Y99D01*
X1600Y99D02*
X1610Y99D01*
X1662Y99D02*
X1671Y99D01*
X1721Y99D02*
X1731Y99D01*
X335Y98D02*
X344Y98D01*
X419Y98D02*
X453Y98D01*
X479Y98D02*
X488Y98D01*
X1570Y98D02*
X1579Y98D01*
X1600Y98D02*
X1611Y98D01*
X1662Y98D02*
X1671Y98D01*
X1721Y98D02*
X1732Y98D01*
X335Y97D02*
X344Y97D01*
X419Y97D02*
X454Y97D01*
X479Y97D02*
X488Y97D01*
X1570Y97D02*
X1579Y97D01*
X1601Y97D02*
X1612Y97D01*
X1662Y97D02*
X1671Y97D01*
X1722Y97D02*
X1732Y97D01*
X335Y96D02*
X344Y96D01*
X420Y96D02*
X455Y96D01*
X479Y96D02*
X488Y96D01*
X1570Y96D02*
X1579Y96D01*
X1601Y96D02*
X1612Y96D01*
X1662Y96D02*
X1671Y96D01*
X1722Y96D02*
X1733Y96D01*
X335Y95D02*
X344Y95D01*
X421Y95D02*
X455Y95D01*
X479Y95D02*
X488Y95D01*
X1570Y95D02*
X1579Y95D01*
X1602Y95D02*
X1613Y95D01*
X1662Y95D02*
X1671Y95D01*
X1723Y95D02*
X1733Y95D01*
X335Y94D02*
X344Y94D01*
X421Y94D02*
X456Y94D01*
X479Y94D02*
X488Y94D01*
X1570Y94D02*
X1579Y94D01*
X1603Y94D02*
X1613Y94D01*
X1662Y94D02*
X1671Y94D01*
X1723Y94D02*
X1734Y94D01*
X335Y93D02*
X344Y93D01*
X423Y93D02*
X456Y93D01*
X479Y93D02*
X488Y93D01*
X1570Y93D02*
X1579Y93D01*
X1603Y93D02*
X1614Y93D01*
X1662Y93D02*
X1671Y93D01*
X1724Y93D02*
X1734Y93D01*
X335Y92D02*
X343Y92D01*
X424Y92D02*
X455Y92D01*
X479Y92D02*
X488Y92D01*
X1570Y92D02*
X1579Y92D01*
X1604Y92D02*
X1615Y92D01*
X1662Y92D02*
X1671Y92D01*
X1724Y92D02*
X1735Y92D01*
X335Y91D02*
X343Y91D01*
X425Y91D02*
X455Y91D01*
X480Y91D02*
X487Y91D01*
X1570Y91D02*
X1579Y91D01*
X1604Y91D02*
X1615Y91D01*
X1662Y91D02*
X1671Y91D01*
X1725Y91D02*
X1735Y91D01*
X336Y90D02*
X342Y90D01*
X427Y90D02*
X454Y90D01*
X481Y90D02*
X487Y90D01*
X1570Y90D02*
X1579Y90D01*
X1605Y90D02*
X1616Y90D01*
X1662Y90D02*
X1671Y90D01*
X1725Y90D02*
X1736Y90D01*
X338Y89D02*
X340Y89D01*
X430Y89D02*
X452Y89D01*
X482Y89D02*
X485Y89D01*
X1570Y89D02*
X1579Y89D01*
X1605Y89D02*
X1616Y89D01*
X1662Y89D02*
X1671Y89D01*
X1726Y89D02*
X1738Y89D01*
X1570Y88D02*
X1579Y88D01*
X1606Y88D02*
X1617Y88D01*
X1662Y88D02*
X1671Y88D01*
X1726Y88D02*
X1760Y88D01*
X1570Y87D02*
X1579Y87D01*
X1607Y87D02*
X1617Y87D01*
X1662Y87D02*
X1671Y87D01*
X1727Y87D02*
X1762Y87D01*
X1570Y86D02*
X1579Y86D01*
X1607Y86D02*
X1618Y86D01*
X1662Y86D02*
X1671Y86D01*
X1728Y86D02*
X1762Y86D01*
X1570Y85D02*
X1579Y85D01*
X1608Y85D02*
X1618Y85D01*
X1662Y85D02*
X1671Y85D01*
X1728Y85D02*
X1763Y85D01*
X1570Y84D02*
X1579Y84D01*
X1608Y84D02*
X1619Y84D01*
X1662Y84D02*
X1671Y84D01*
X1729Y84D02*
X1763Y84D01*
X1570Y83D02*
X1579Y83D01*
X1609Y83D02*
X1618Y83D01*
X1662Y83D02*
X1671Y83D01*
X1730Y83D02*
X1763Y83D01*
X1570Y82D02*
X1579Y82D01*
X1610Y82D02*
X1618Y82D01*
X1662Y82D02*
X1671Y82D01*
X1731Y82D02*
X1763Y82D01*
X1571Y81D02*
X1578Y81D01*
X1610Y81D02*
X1618Y81D01*
X1663Y81D02*
X1670Y81D01*
X1732Y81D02*
X1762Y81D01*
X1571Y80D02*
X1577Y80D01*
X1611Y80D02*
X1617Y80D01*
X1664Y80D02*
X1669Y80D01*
X1734Y80D02*
X1761Y80D01*
X1573Y79D02*
X1576Y79D01*
X1613Y79D02*
X1615Y79D01*
X1665Y79D02*
X1668Y79D01*
X1737Y79D02*
X1760Y79D01*
D02*
G04 End of Copper1*
M02*