; NON-PLATED HOLES START AT T1
; THROUGH (PLATED) HOLES START AT T100
M48
INCH
T100C0.031496
T101C0.035000
T102C0.031497
T103C0.032000
T104C0.040639
T105C0.040000
%
T100
X007602Y008251
X002002Y005551
X003002Y008251
X006402Y013051
X020002Y017251
X007602Y012151
X001902Y009351
X011502Y002551
X003902Y006751
T101
X010602Y015951
X009402Y015951
X001402Y016851
X010602Y018851
X009402Y011951
X010602Y011951
X001402Y017851
X014602Y018851
X005402Y017851
X005402Y016851
T102
X009302Y018851
X008317Y018851
T103
X001387Y013816
X000887Y013066
X003902Y013051
X004902Y013051
X001887Y013066
X004402Y013801
T104
X019002Y020451
X009002Y020451
X007002Y020451
X006002Y021451
X010002Y021451
X016002Y020451
X017002Y021451
X015002Y020451
X002002Y021451
X003002Y020451
X001002Y021451
X006002Y020451
X014002Y021451
X019002Y021451
X007002Y021451
X012002Y020451
X013002Y020451
X020002Y020451
X012002Y021451
X011002Y021451
X004002Y020451
X003002Y021451
X005002Y020451
X001002Y020451
X018002Y021451
X008002Y020451
X015002Y021451
X004002Y021451
X017002Y020451
X011002Y020451
X010002Y020451
X014002Y020451
X020002Y021451
X009002Y021451
X005002Y021451
X008002Y021451
X013002Y021451
X002002Y020451
X018002Y020451
X016002Y021451
T105
X019902Y005451
X019902Y007451
X015004Y002451
X005902Y002551
X020002Y008451
X016004Y002351
X020002Y006451
X018004Y002351
X002902Y002651
X004902Y002651
X003902Y002551
X017004Y002451
T00
M30
