G04 MADE WITH FRITZING*
G04 WWW.FRITZING.ORG*
G04 DOUBLE SIDED*
G04 HOLES PLATED*
G04 CONTOUR ON CENTER OF CONTOUR VECTOR*
%ASAXBY*%
%FSLAX23Y23*%
%MOIN*%
%OFA0B0*%
%SFA1.0B1.0*%
%ADD10C,0.075000*%
%ADD11C,0.094488*%
%ADD12C,0.075361*%
%ADD13C,0.062992*%
%ADD14C,0.074000*%
%ADD15R,0.062992X0.062992*%
%ADD16C,0.024000*%
%ADD17R,0.001000X0.001000*%
%LNCOPPER0*%
G90*
G70*
G54D10*
X1090Y1885D03*
X1490Y1885D03*
G54D11*
X2010Y1705D03*
X300Y885D03*
X640Y1305D03*
X190Y975D03*
X760Y885D03*
X760Y1215D03*
X390Y775D03*
X1380Y255D03*
X210Y665D03*
G54D12*
X100Y2045D03*
X200Y2045D03*
X300Y2045D03*
X400Y2045D03*
X500Y2045D03*
X600Y2045D03*
X700Y2045D03*
X800Y2045D03*
X900Y2045D03*
X1000Y2045D03*
X1100Y2045D03*
X1200Y2045D03*
X1300Y2045D03*
X1400Y2045D03*
X1500Y2045D03*
X1600Y2045D03*
X1700Y2045D03*
X1800Y2045D03*
X1900Y2045D03*
X2000Y2045D03*
X2000Y2145D03*
X1900Y2145D03*
X1800Y2145D03*
X1700Y2145D03*
X1600Y2145D03*
X1500Y2145D03*
X1400Y2145D03*
X1300Y2145D03*
X1200Y2145D03*
X1100Y2145D03*
X1000Y2145D03*
X900Y2145D03*
X800Y2145D03*
X700Y2145D03*
X600Y2145D03*
X500Y2145D03*
X400Y2145D03*
X300Y2145D03*
X200Y2145D03*
X100Y2145D03*
G54D13*
X930Y1885D03*
X832Y1885D03*
G54D10*
X1060Y1595D03*
X1060Y1195D03*
X940Y1595D03*
X940Y1195D03*
X140Y1685D03*
X540Y1685D03*
X140Y1785D03*
X540Y1785D03*
G54D14*
X1920Y1175D03*
X1910Y1075D03*
X1920Y975D03*
X1910Y875D03*
X590Y255D03*
X490Y265D03*
X390Y255D03*
X290Y265D03*
X1500Y245D03*
X1600Y235D03*
X1700Y245D03*
X1800Y235D03*
X390Y1305D03*
X440Y1380D03*
X490Y1305D03*
X89Y1307D03*
X139Y1382D03*
X189Y1307D03*
G54D15*
X930Y1885D03*
G54D16*
X2060Y1075D02*
X2060Y145D01*
D02*
X1941Y1075D02*
X2060Y1075D01*
D02*
X2060Y145D02*
X1600Y145D01*
D02*
X1600Y145D02*
X1600Y204D01*
D02*
X760Y1685D02*
X569Y1685D01*
D02*
X760Y1242D02*
X760Y1685D01*
D02*
X590Y346D02*
X589Y1034D01*
D02*
X589Y1034D02*
X280Y1034D01*
D02*
X1600Y346D02*
X590Y346D01*
D02*
X280Y1034D02*
X280Y1380D01*
D02*
X1600Y266D02*
X1600Y346D01*
D02*
X280Y1380D02*
X413Y1380D01*
D02*
X140Y1657D02*
X139Y1409D01*
D02*
X413Y1380D02*
X166Y1382D01*
D02*
X1499Y214D02*
X1491Y75D01*
D02*
X1491Y75D02*
X2111Y75D01*
D02*
X2111Y75D02*
X2111Y1175D01*
D02*
X1491Y75D02*
X490Y83D01*
D02*
X2111Y1175D02*
X1951Y1175D01*
D02*
X490Y83D02*
X490Y234D01*
D02*
X2010Y1175D02*
X2010Y1678D01*
D02*
X1951Y1175D02*
X2010Y1175D01*
D02*
X838Y1785D02*
X569Y1785D01*
D02*
X389Y1115D02*
X838Y1115D01*
D02*
X838Y1115D02*
X838Y1785D01*
D02*
X390Y1278D02*
X389Y1115D01*
D02*
X89Y885D02*
X273Y885D01*
D02*
X89Y1280D02*
X89Y885D01*
D02*
X613Y1305D02*
X517Y1305D01*
D02*
X189Y1280D02*
X190Y1002D01*
D02*
X390Y1116D02*
X390Y1278D01*
D02*
X838Y444D02*
X839Y1115D01*
D02*
X839Y1115D02*
X390Y1116D01*
D02*
X1800Y444D02*
X838Y444D01*
D02*
X1800Y266D02*
X1800Y444D01*
D02*
X760Y396D02*
X760Y858D01*
D02*
X1701Y396D02*
X760Y396D01*
D02*
X1700Y276D02*
X1701Y396D01*
D02*
X2003Y235D02*
X1832Y235D01*
D02*
X2003Y975D02*
X2003Y235D01*
D02*
X1951Y975D02*
X2003Y975D01*
D02*
X1910Y444D02*
X1800Y444D01*
D02*
X1910Y844D02*
X1910Y444D01*
D02*
X390Y286D02*
X390Y748D01*
D02*
X621Y255D02*
X1353Y255D01*
D02*
X203Y265D02*
X210Y638D01*
D02*
X259Y265D02*
X203Y265D01*
G54D17*
X1883Y1212D02*
X1956Y1212D01*
X1883Y1211D02*
X1956Y1211D01*
X1883Y1210D02*
X1956Y1210D01*
X1883Y1209D02*
X1956Y1209D01*
X1883Y1208D02*
X1956Y1208D01*
X1883Y1207D02*
X1956Y1207D01*
X1883Y1206D02*
X1956Y1206D01*
X1883Y1205D02*
X1956Y1205D01*
X1883Y1204D02*
X1956Y1204D01*
X1883Y1203D02*
X1956Y1203D01*
X1883Y1202D02*
X1956Y1202D01*
X1883Y1201D02*
X1956Y1201D01*
X1883Y1200D02*
X1956Y1200D01*
X1883Y1199D02*
X1956Y1199D01*
X1883Y1198D02*
X1956Y1198D01*
X1883Y1197D02*
X1956Y1197D01*
X1883Y1196D02*
X1956Y1196D01*
X1883Y1195D02*
X1914Y1195D01*
X1925Y1195D02*
X1956Y1195D01*
X1883Y1194D02*
X1911Y1194D01*
X1928Y1194D02*
X1956Y1194D01*
X1883Y1193D02*
X1909Y1193D01*
X1930Y1193D02*
X1956Y1193D01*
X1883Y1192D02*
X1908Y1192D01*
X1931Y1192D02*
X1956Y1192D01*
X1883Y1191D02*
X1906Y1191D01*
X1933Y1191D02*
X1956Y1191D01*
X1883Y1190D02*
X1905Y1190D01*
X1934Y1190D02*
X1956Y1190D01*
X1883Y1189D02*
X1904Y1189D01*
X1935Y1189D02*
X1956Y1189D01*
X1883Y1188D02*
X1903Y1188D01*
X1935Y1188D02*
X1956Y1188D01*
X1883Y1187D02*
X1903Y1187D01*
X1936Y1187D02*
X1956Y1187D01*
X1883Y1186D02*
X1902Y1186D01*
X1937Y1186D02*
X1956Y1186D01*
X1883Y1185D02*
X1901Y1185D01*
X1937Y1185D02*
X1956Y1185D01*
X1883Y1184D02*
X1901Y1184D01*
X1938Y1184D02*
X1956Y1184D01*
X1883Y1183D02*
X1900Y1183D01*
X1938Y1183D02*
X1956Y1183D01*
X1883Y1182D02*
X1900Y1182D01*
X1939Y1182D02*
X1956Y1182D01*
X1883Y1181D02*
X1900Y1181D01*
X1939Y1181D02*
X1956Y1181D01*
X1883Y1180D02*
X1899Y1180D01*
X1939Y1180D02*
X1956Y1180D01*
X1883Y1179D02*
X1899Y1179D01*
X1940Y1179D02*
X1956Y1179D01*
X1883Y1178D02*
X1899Y1178D01*
X1940Y1178D02*
X1956Y1178D01*
X1883Y1177D02*
X1899Y1177D01*
X1940Y1177D02*
X1956Y1177D01*
X1883Y1176D02*
X1899Y1176D01*
X1940Y1176D02*
X1956Y1176D01*
X1883Y1175D02*
X1899Y1175D01*
X1940Y1175D02*
X1956Y1175D01*
X1883Y1174D02*
X1899Y1174D01*
X1940Y1174D02*
X1956Y1174D01*
X1883Y1173D02*
X1899Y1173D01*
X1940Y1173D02*
X1956Y1173D01*
X1883Y1172D02*
X1899Y1172D01*
X1940Y1172D02*
X1956Y1172D01*
X1883Y1171D02*
X1899Y1171D01*
X1939Y1171D02*
X1956Y1171D01*
X1883Y1170D02*
X1900Y1170D01*
X1939Y1170D02*
X1956Y1170D01*
X1883Y1169D02*
X1900Y1169D01*
X1939Y1169D02*
X1956Y1169D01*
X1883Y1168D02*
X1900Y1168D01*
X1938Y1168D02*
X1956Y1168D01*
X1883Y1167D02*
X1901Y1167D01*
X1938Y1167D02*
X1956Y1167D01*
X1883Y1166D02*
X1901Y1166D01*
X1937Y1166D02*
X1956Y1166D01*
X1883Y1165D02*
X1902Y1165D01*
X1937Y1165D02*
X1956Y1165D01*
X1883Y1164D02*
X1903Y1164D01*
X1936Y1164D02*
X1956Y1164D01*
X1883Y1163D02*
X1904Y1163D01*
X1935Y1163D02*
X1956Y1163D01*
X1883Y1162D02*
X1904Y1162D01*
X1934Y1162D02*
X1956Y1162D01*
X1883Y1161D02*
X1905Y1161D01*
X1933Y1161D02*
X1956Y1161D01*
X1883Y1160D02*
X1907Y1160D01*
X1932Y1160D02*
X1956Y1160D01*
X1883Y1159D02*
X1908Y1159D01*
X1931Y1159D02*
X1956Y1159D01*
X1883Y1158D02*
X1910Y1158D01*
X1929Y1158D02*
X1956Y1158D01*
X1883Y1157D02*
X1912Y1157D01*
X1927Y1157D02*
X1956Y1157D01*
X1883Y1156D02*
X1915Y1156D01*
X1924Y1156D02*
X1956Y1156D01*
X1883Y1155D02*
X1956Y1155D01*
X1883Y1154D02*
X1956Y1154D01*
X1883Y1153D02*
X1956Y1153D01*
X1883Y1152D02*
X1956Y1152D01*
X1883Y1151D02*
X1956Y1151D01*
X1883Y1150D02*
X1956Y1150D01*
X1883Y1149D02*
X1956Y1149D01*
X1883Y1148D02*
X1956Y1148D01*
X1883Y1147D02*
X1956Y1147D01*
X1883Y1146D02*
X1956Y1146D01*
X1883Y1145D02*
X1956Y1145D01*
X1883Y1144D02*
X1956Y1144D01*
X1883Y1143D02*
X1956Y1143D01*
X1883Y1142D02*
X1956Y1142D01*
X1883Y1141D02*
X1956Y1141D01*
X1883Y1140D02*
X1956Y1140D01*
X1883Y1139D02*
X1956Y1139D01*
X553Y292D02*
X626Y292D01*
X553Y291D02*
X626Y291D01*
X553Y290D02*
X626Y290D01*
X553Y289D02*
X626Y289D01*
X553Y288D02*
X626Y288D01*
X553Y287D02*
X626Y287D01*
X553Y286D02*
X626Y286D01*
X553Y285D02*
X626Y285D01*
X553Y284D02*
X626Y284D01*
X553Y283D02*
X626Y283D01*
X553Y282D02*
X626Y282D01*
X1463Y282D02*
X1536Y282D01*
X553Y281D02*
X626Y281D01*
X1463Y281D02*
X1536Y281D01*
X553Y280D02*
X626Y280D01*
X1463Y280D02*
X1536Y280D01*
X553Y279D02*
X626Y279D01*
X1463Y279D02*
X1536Y279D01*
X553Y278D02*
X626Y278D01*
X1463Y278D02*
X1536Y278D01*
X553Y277D02*
X626Y277D01*
X1463Y277D02*
X1536Y277D01*
X553Y276D02*
X626Y276D01*
X1463Y276D02*
X1536Y276D01*
X553Y275D02*
X584Y275D01*
X595Y275D02*
X626Y275D01*
X1463Y275D02*
X1536Y275D01*
X553Y274D02*
X581Y274D01*
X598Y274D02*
X626Y274D01*
X1463Y274D02*
X1536Y274D01*
X553Y273D02*
X579Y273D01*
X600Y273D02*
X626Y273D01*
X1463Y273D02*
X1536Y273D01*
X553Y272D02*
X578Y272D01*
X602Y272D02*
X626Y272D01*
X1463Y272D02*
X1536Y272D01*
X553Y271D02*
X576Y271D01*
X603Y271D02*
X626Y271D01*
X1463Y271D02*
X1536Y271D01*
X553Y270D02*
X575Y270D01*
X604Y270D02*
X626Y270D01*
X1463Y270D02*
X1536Y270D01*
X553Y269D02*
X574Y269D01*
X605Y269D02*
X626Y269D01*
X1463Y269D02*
X1536Y269D01*
X553Y268D02*
X573Y268D01*
X606Y268D02*
X626Y268D01*
X1463Y268D02*
X1536Y268D01*
X553Y267D02*
X573Y267D01*
X607Y267D02*
X626Y267D01*
X1463Y267D02*
X1536Y267D01*
X553Y266D02*
X572Y266D01*
X607Y266D02*
X626Y266D01*
X1463Y266D02*
X1536Y266D01*
X553Y265D02*
X572Y265D01*
X608Y265D02*
X626Y265D01*
X1463Y265D02*
X1494Y265D01*
X1505Y265D02*
X1536Y265D01*
X553Y264D02*
X571Y264D01*
X608Y264D02*
X626Y264D01*
X1463Y264D02*
X1491Y264D01*
X1508Y264D02*
X1536Y264D01*
X553Y263D02*
X571Y263D01*
X609Y263D02*
X626Y263D01*
X1463Y263D02*
X1489Y263D01*
X1510Y263D02*
X1536Y263D01*
X553Y262D02*
X570Y262D01*
X609Y262D02*
X626Y262D01*
X1463Y262D02*
X1488Y262D01*
X1512Y262D02*
X1536Y262D01*
X553Y261D02*
X570Y261D01*
X609Y261D02*
X626Y261D01*
X1463Y261D02*
X1486Y261D01*
X1513Y261D02*
X1536Y261D01*
X553Y260D02*
X570Y260D01*
X610Y260D02*
X626Y260D01*
X1463Y260D02*
X1485Y260D01*
X1514Y260D02*
X1536Y260D01*
X553Y259D02*
X569Y259D01*
X610Y259D02*
X626Y259D01*
X1463Y259D02*
X1484Y259D01*
X1515Y259D02*
X1536Y259D01*
X553Y258D02*
X569Y258D01*
X610Y258D02*
X626Y258D01*
X1463Y258D02*
X1484Y258D01*
X1516Y258D02*
X1536Y258D01*
X553Y257D02*
X569Y257D01*
X610Y257D02*
X626Y257D01*
X1463Y257D02*
X1483Y257D01*
X1517Y257D02*
X1536Y257D01*
X553Y256D02*
X569Y256D01*
X610Y256D02*
X626Y256D01*
X1463Y256D02*
X1482Y256D01*
X1517Y256D02*
X1536Y256D01*
X553Y255D02*
X569Y255D01*
X610Y255D02*
X626Y255D01*
X1463Y255D02*
X1482Y255D01*
X1518Y255D02*
X1536Y255D01*
X553Y254D02*
X569Y254D01*
X610Y254D02*
X626Y254D01*
X1463Y254D02*
X1481Y254D01*
X1518Y254D02*
X1536Y254D01*
X553Y253D02*
X569Y253D01*
X610Y253D02*
X626Y253D01*
X1463Y253D02*
X1481Y253D01*
X1519Y253D02*
X1536Y253D01*
X553Y252D02*
X569Y252D01*
X610Y252D02*
X626Y252D01*
X1463Y252D02*
X1480Y252D01*
X1519Y252D02*
X1536Y252D01*
X553Y251D02*
X570Y251D01*
X610Y251D02*
X626Y251D01*
X1463Y251D02*
X1480Y251D01*
X1519Y251D02*
X1536Y251D01*
X553Y250D02*
X570Y250D01*
X609Y250D02*
X626Y250D01*
X1463Y250D02*
X1480Y250D01*
X1520Y250D02*
X1536Y250D01*
X553Y249D02*
X570Y249D01*
X609Y249D02*
X626Y249D01*
X1463Y249D02*
X1480Y249D01*
X1520Y249D02*
X1536Y249D01*
X553Y248D02*
X571Y248D01*
X609Y248D02*
X626Y248D01*
X1463Y248D02*
X1479Y248D01*
X1520Y248D02*
X1536Y248D01*
X553Y247D02*
X571Y247D01*
X608Y247D02*
X626Y247D01*
X1463Y247D02*
X1479Y247D01*
X1520Y247D02*
X1536Y247D01*
X553Y246D02*
X572Y246D01*
X608Y246D02*
X626Y246D01*
X1463Y246D02*
X1479Y246D01*
X1520Y246D02*
X1536Y246D01*
X553Y245D02*
X572Y245D01*
X607Y245D02*
X626Y245D01*
X1463Y245D02*
X1479Y245D01*
X1520Y245D02*
X1536Y245D01*
X553Y244D02*
X573Y244D01*
X606Y244D02*
X626Y244D01*
X1463Y244D02*
X1479Y244D01*
X1520Y244D02*
X1536Y244D01*
X553Y243D02*
X574Y243D01*
X605Y243D02*
X626Y243D01*
X1463Y243D02*
X1479Y243D01*
X1520Y243D02*
X1536Y243D01*
X553Y242D02*
X575Y242D01*
X605Y242D02*
X626Y242D01*
X1463Y242D02*
X1480Y242D01*
X1520Y242D02*
X1536Y242D01*
X553Y241D02*
X576Y241D01*
X604Y241D02*
X626Y241D01*
X1463Y241D02*
X1480Y241D01*
X1520Y241D02*
X1536Y241D01*
X553Y240D02*
X577Y240D01*
X602Y240D02*
X626Y240D01*
X1463Y240D02*
X1480Y240D01*
X1519Y240D02*
X1536Y240D01*
X553Y239D02*
X578Y239D01*
X601Y239D02*
X626Y239D01*
X1463Y239D02*
X1480Y239D01*
X1519Y239D02*
X1536Y239D01*
X553Y238D02*
X580Y238D01*
X599Y238D02*
X626Y238D01*
X1463Y238D02*
X1481Y238D01*
X1519Y238D02*
X1536Y238D01*
X553Y237D02*
X582Y237D01*
X597Y237D02*
X626Y237D01*
X1463Y237D02*
X1481Y237D01*
X1518Y237D02*
X1536Y237D01*
X553Y236D02*
X586Y236D01*
X593Y236D02*
X626Y236D01*
X1463Y236D02*
X1482Y236D01*
X1518Y236D02*
X1536Y236D01*
X553Y235D02*
X626Y235D01*
X1463Y235D02*
X1482Y235D01*
X1517Y235D02*
X1536Y235D01*
X553Y234D02*
X626Y234D01*
X1463Y234D02*
X1483Y234D01*
X1516Y234D02*
X1536Y234D01*
X553Y233D02*
X626Y233D01*
X1463Y233D02*
X1484Y233D01*
X1516Y233D02*
X1536Y233D01*
X553Y232D02*
X626Y232D01*
X1463Y232D02*
X1485Y232D01*
X1515Y232D02*
X1536Y232D01*
X553Y231D02*
X626Y231D01*
X1463Y231D02*
X1486Y231D01*
X1514Y231D02*
X1536Y231D01*
X553Y230D02*
X626Y230D01*
X1463Y230D02*
X1487Y230D01*
X1512Y230D02*
X1536Y230D01*
X553Y229D02*
X626Y229D01*
X1463Y229D02*
X1488Y229D01*
X1511Y229D02*
X1536Y229D01*
X553Y228D02*
X626Y228D01*
X1463Y228D02*
X1490Y228D01*
X1509Y228D02*
X1536Y228D01*
X553Y227D02*
X626Y227D01*
X1463Y227D02*
X1492Y227D01*
X1507Y227D02*
X1536Y227D01*
X553Y226D02*
X626Y226D01*
X1463Y226D02*
X1496Y226D01*
X1504Y226D02*
X1536Y226D01*
X553Y225D02*
X626Y225D01*
X1463Y225D02*
X1536Y225D01*
X553Y224D02*
X626Y224D01*
X1463Y224D02*
X1536Y224D01*
X553Y223D02*
X626Y223D01*
X1463Y223D02*
X1536Y223D01*
X553Y222D02*
X626Y222D01*
X1463Y222D02*
X1536Y222D01*
X553Y221D02*
X626Y221D01*
X1463Y221D02*
X1536Y221D01*
X553Y220D02*
X626Y220D01*
X1463Y220D02*
X1536Y220D01*
X553Y219D02*
X626Y219D01*
X1463Y219D02*
X1536Y219D01*
X1463Y218D02*
X1536Y218D01*
X1463Y217D02*
X1536Y217D01*
X1463Y216D02*
X1536Y216D01*
X1463Y215D02*
X1536Y215D01*
X1463Y214D02*
X1536Y214D01*
X1463Y213D02*
X1536Y213D01*
X1463Y212D02*
X1536Y212D01*
X1463Y211D02*
X1536Y211D01*
X1463Y210D02*
X1536Y210D01*
X1463Y209D02*
X1536Y209D01*
D02*
G04 End of Copper0*
M02*