G04 MADE WITH FRITZING*
G04 WWW.FRITZING.ORG*
G04 DOUBLE SIDED*
G04 HOLES PLATED*
G04 CONTOUR ON CENTER OF CONTOUR VECTOR*
%ASAXBY*%
%FSLAX23Y23*%
%MOIN*%
%OFA0B0*%
%SFA1.0B1.0*%
%ADD10C,0.104488*%
%ADD11C,0.085361*%
%ADD12C,0.072992*%
%ADD13C,0.085000*%
%ADD14C,0.084000*%
%ADD15R,0.072992X0.072992*%
%ADD16R,0.001000X0.001000*%
%LNMASK1*%
G90*
G70*
G54D10*
X2000Y1725D03*
X300Y825D03*
X640Y1305D03*
X190Y935D03*
X760Y825D03*
X760Y1215D03*
X390Y675D03*
X1150Y255D03*
X200Y555D03*
G54D11*
X100Y2045D03*
X200Y2045D03*
X300Y2045D03*
X400Y2045D03*
X500Y2045D03*
X600Y2045D03*
X700Y2045D03*
X800Y2045D03*
X900Y2045D03*
X1000Y2045D03*
X1100Y2045D03*
X1200Y2045D03*
X1300Y2045D03*
X1400Y2045D03*
X1500Y2045D03*
X1600Y2045D03*
X1700Y2045D03*
X1800Y2045D03*
X1900Y2045D03*
X2000Y2045D03*
X2000Y2145D03*
X1900Y2145D03*
X1800Y2145D03*
X1700Y2145D03*
X1600Y2145D03*
X1500Y2145D03*
X1400Y2145D03*
X1300Y2145D03*
X1200Y2145D03*
X1100Y2145D03*
X1000Y2145D03*
X900Y2145D03*
X800Y2145D03*
X700Y2145D03*
X600Y2145D03*
X500Y2145D03*
X400Y2145D03*
X300Y2145D03*
X200Y2145D03*
X100Y2145D03*
G54D12*
X930Y1885D03*
X832Y1885D03*
G54D13*
X1060Y1595D03*
X1060Y1195D03*
X940Y1595D03*
X940Y1195D03*
X140Y1685D03*
X540Y1685D03*
X140Y1785D03*
X540Y1785D03*
X1060Y1885D03*
X1460Y1885D03*
G54D14*
X2000Y845D03*
X1990Y745D03*
X2000Y645D03*
X1990Y545D03*
X2000Y845D03*
X1990Y745D03*
X2000Y645D03*
X1990Y545D03*
X590Y255D03*
X490Y265D03*
X390Y255D03*
X290Y265D03*
X590Y255D03*
X490Y265D03*
X390Y255D03*
X290Y265D03*
X1500Y245D03*
X1600Y235D03*
X1700Y245D03*
X1800Y235D03*
X1500Y245D03*
X1600Y235D03*
X1700Y245D03*
X1800Y235D03*
X390Y1305D03*
X440Y1380D03*
X490Y1305D03*
X390Y1305D03*
X440Y1380D03*
X490Y1305D03*
X89Y1307D03*
X139Y1382D03*
X189Y1307D03*
X89Y1307D03*
X139Y1382D03*
X189Y1307D03*
G54D15*
X930Y1885D03*
G54D16*
X1958Y887D02*
X2041Y887D01*
X1958Y886D02*
X2041Y886D01*
X1958Y885D02*
X2041Y885D01*
X1958Y884D02*
X2041Y884D01*
X1958Y883D02*
X2041Y883D01*
X1958Y882D02*
X2041Y882D01*
X1958Y881D02*
X2041Y881D01*
X1958Y880D02*
X2041Y880D01*
X1958Y879D02*
X2041Y879D01*
X1958Y878D02*
X2041Y878D01*
X1958Y877D02*
X2041Y877D01*
X1958Y876D02*
X2041Y876D01*
X1958Y875D02*
X2041Y875D01*
X1958Y874D02*
X2041Y874D01*
X1958Y873D02*
X2041Y873D01*
X1958Y872D02*
X2041Y872D01*
X1958Y871D02*
X2041Y871D01*
X1958Y870D02*
X2041Y870D01*
X1958Y869D02*
X2041Y869D01*
X1958Y868D02*
X2041Y868D01*
X1958Y867D02*
X2041Y867D01*
X1958Y866D02*
X2041Y866D01*
X1958Y865D02*
X2041Y865D01*
X1958Y864D02*
X2041Y864D01*
X1958Y863D02*
X2041Y863D01*
X1958Y862D02*
X2041Y862D01*
X1958Y861D02*
X2041Y861D01*
X1958Y860D02*
X1995Y860D01*
X2004Y860D02*
X2041Y860D01*
X1958Y859D02*
X1992Y859D01*
X2007Y859D02*
X2041Y859D01*
X1958Y858D02*
X1990Y858D01*
X2008Y858D02*
X2041Y858D01*
X1958Y857D02*
X1989Y857D01*
X2010Y857D02*
X2041Y857D01*
X1958Y856D02*
X1988Y856D01*
X2011Y856D02*
X2041Y856D01*
X1958Y855D02*
X1987Y855D01*
X2012Y855D02*
X2041Y855D01*
X1958Y854D02*
X1986Y854D01*
X2012Y854D02*
X2041Y854D01*
X1958Y853D02*
X1986Y853D01*
X2013Y853D02*
X2041Y853D01*
X1958Y852D02*
X1985Y852D01*
X2014Y852D02*
X2041Y852D01*
X1958Y851D02*
X1985Y851D01*
X2014Y851D02*
X2041Y851D01*
X1958Y850D02*
X1985Y850D01*
X2014Y850D02*
X2041Y850D01*
X1958Y849D02*
X1984Y849D01*
X2015Y849D02*
X2041Y849D01*
X1958Y848D02*
X1984Y848D01*
X2015Y848D02*
X2041Y848D01*
X1958Y847D02*
X1984Y847D01*
X2015Y847D02*
X2041Y847D01*
X1958Y846D02*
X1984Y846D01*
X2015Y846D02*
X2041Y846D01*
X1958Y845D02*
X1984Y845D01*
X2015Y845D02*
X2041Y845D01*
X1958Y844D02*
X1984Y844D01*
X2015Y844D02*
X2041Y844D01*
X1958Y843D02*
X1984Y843D01*
X2015Y843D02*
X2041Y843D01*
X1958Y842D02*
X1984Y842D01*
X2014Y842D02*
X2041Y842D01*
X1958Y841D02*
X1985Y841D01*
X2014Y841D02*
X2041Y841D01*
X1958Y840D02*
X1985Y840D01*
X2014Y840D02*
X2041Y840D01*
X1958Y839D02*
X1985Y839D01*
X2013Y839D02*
X2041Y839D01*
X1958Y838D02*
X1986Y838D01*
X2013Y838D02*
X2041Y838D01*
X1958Y837D02*
X1987Y837D01*
X2012Y837D02*
X2041Y837D01*
X1958Y836D02*
X1987Y836D01*
X2011Y836D02*
X2041Y836D01*
X1958Y835D02*
X1988Y835D01*
X2010Y835D02*
X2041Y835D01*
X1958Y834D02*
X1989Y834D01*
X2009Y834D02*
X2041Y834D01*
X1958Y833D02*
X1991Y833D01*
X2008Y833D02*
X2041Y833D01*
X1958Y832D02*
X1993Y832D01*
X2006Y832D02*
X2041Y832D01*
X1958Y831D02*
X1995Y831D01*
X2003Y831D02*
X2041Y831D01*
X1958Y830D02*
X2041Y830D01*
X1958Y829D02*
X2041Y829D01*
X1958Y828D02*
X2041Y828D01*
X1958Y827D02*
X2041Y827D01*
X1958Y826D02*
X2041Y826D01*
X1958Y825D02*
X2041Y825D01*
X1958Y824D02*
X2041Y824D01*
X1958Y823D02*
X2041Y823D01*
X1958Y822D02*
X2041Y822D01*
X1958Y821D02*
X2041Y821D01*
X1958Y820D02*
X2041Y820D01*
X1958Y819D02*
X2041Y819D01*
X1958Y818D02*
X2041Y818D01*
X1958Y817D02*
X2041Y817D01*
X1958Y816D02*
X2041Y816D01*
X1958Y815D02*
X2041Y815D01*
X1958Y814D02*
X2041Y814D01*
X1958Y813D02*
X2041Y813D01*
X1958Y812D02*
X2041Y812D01*
X1958Y811D02*
X2041Y811D01*
X1958Y810D02*
X2041Y810D01*
X1958Y809D02*
X2041Y809D01*
X1958Y808D02*
X2041Y808D01*
X1958Y807D02*
X2041Y807D01*
X1958Y806D02*
X2041Y806D01*
X1958Y805D02*
X2041Y805D01*
X1958Y804D02*
X2041Y804D01*
X548Y297D02*
X631Y297D01*
X548Y296D02*
X631Y296D01*
X548Y295D02*
X631Y295D01*
X548Y294D02*
X631Y294D01*
X548Y293D02*
X631Y293D01*
X548Y292D02*
X631Y292D01*
X548Y291D02*
X631Y291D01*
X548Y290D02*
X631Y290D01*
X548Y289D02*
X631Y289D01*
X548Y288D02*
X631Y288D01*
X548Y287D02*
X631Y287D01*
X1458Y287D02*
X1541Y287D01*
X548Y286D02*
X631Y286D01*
X1458Y286D02*
X1541Y286D01*
X548Y285D02*
X631Y285D01*
X1458Y285D02*
X1541Y285D01*
X548Y284D02*
X631Y284D01*
X1458Y284D02*
X1541Y284D01*
X548Y283D02*
X631Y283D01*
X1458Y283D02*
X1541Y283D01*
X548Y282D02*
X631Y282D01*
X1458Y282D02*
X1541Y282D01*
X548Y281D02*
X631Y281D01*
X1458Y281D02*
X1541Y281D01*
X548Y280D02*
X631Y280D01*
X1458Y280D02*
X1541Y280D01*
X548Y279D02*
X631Y279D01*
X1458Y279D02*
X1541Y279D01*
X548Y278D02*
X631Y278D01*
X1458Y278D02*
X1541Y278D01*
X548Y277D02*
X631Y277D01*
X1458Y277D02*
X1541Y277D01*
X548Y276D02*
X631Y276D01*
X1458Y276D02*
X1541Y276D01*
X548Y275D02*
X631Y275D01*
X1458Y275D02*
X1541Y275D01*
X548Y274D02*
X631Y274D01*
X1458Y274D02*
X1541Y274D01*
X548Y273D02*
X631Y273D01*
X1458Y273D02*
X1541Y273D01*
X548Y272D02*
X631Y272D01*
X1458Y272D02*
X1541Y272D01*
X548Y271D02*
X631Y271D01*
X1458Y271D02*
X1541Y271D01*
X548Y270D02*
X585Y270D01*
X594Y270D02*
X631Y270D01*
X1458Y270D02*
X1541Y270D01*
X548Y269D02*
X582Y269D01*
X597Y269D02*
X631Y269D01*
X1458Y269D02*
X1541Y269D01*
X548Y268D02*
X581Y268D01*
X599Y268D02*
X631Y268D01*
X1458Y268D02*
X1541Y268D01*
X548Y267D02*
X579Y267D01*
X600Y267D02*
X631Y267D01*
X1458Y267D02*
X1541Y267D01*
X548Y266D02*
X578Y266D01*
X601Y266D02*
X631Y266D01*
X1458Y266D02*
X1541Y266D01*
X548Y265D02*
X577Y265D01*
X602Y265D02*
X631Y265D01*
X1458Y265D02*
X1541Y265D01*
X548Y264D02*
X577Y264D01*
X603Y264D02*
X631Y264D01*
X1458Y264D02*
X1541Y264D01*
X548Y263D02*
X576Y263D01*
X603Y263D02*
X631Y263D01*
X1458Y263D02*
X1541Y263D01*
X548Y262D02*
X575Y262D01*
X604Y262D02*
X631Y262D01*
X1458Y262D02*
X1541Y262D01*
X548Y261D02*
X575Y261D01*
X604Y261D02*
X631Y261D01*
X1458Y261D02*
X1541Y261D01*
X548Y260D02*
X575Y260D01*
X604Y260D02*
X631Y260D01*
X1458Y260D02*
X1495Y260D01*
X1505Y260D02*
X1541Y260D01*
X548Y259D02*
X574Y259D01*
X605Y259D02*
X631Y259D01*
X1458Y259D02*
X1492Y259D01*
X1507Y259D02*
X1541Y259D01*
X548Y258D02*
X574Y258D01*
X605Y258D02*
X631Y258D01*
X1458Y258D02*
X1491Y258D01*
X1509Y258D02*
X1541Y258D01*
X548Y257D02*
X574Y257D01*
X605Y257D02*
X631Y257D01*
X1458Y257D02*
X1489Y257D01*
X1510Y257D02*
X1541Y257D01*
X548Y256D02*
X574Y256D01*
X605Y256D02*
X631Y256D01*
X1458Y256D02*
X1488Y256D01*
X1511Y256D02*
X1541Y256D01*
X548Y255D02*
X574Y255D01*
X605Y255D02*
X631Y255D01*
X1458Y255D02*
X1488Y255D01*
X1512Y255D02*
X1541Y255D01*
X548Y254D02*
X574Y254D01*
X605Y254D02*
X631Y254D01*
X1458Y254D02*
X1487Y254D01*
X1513Y254D02*
X1541Y254D01*
X548Y253D02*
X574Y253D01*
X605Y253D02*
X631Y253D01*
X1458Y253D02*
X1486Y253D01*
X1513Y253D02*
X1541Y253D01*
X548Y252D02*
X575Y252D01*
X605Y252D02*
X631Y252D01*
X1458Y252D02*
X1486Y252D01*
X1514Y252D02*
X1541Y252D01*
X548Y251D02*
X575Y251D01*
X604Y251D02*
X631Y251D01*
X1458Y251D02*
X1485Y251D01*
X1514Y251D02*
X1541Y251D01*
X548Y250D02*
X575Y250D01*
X604Y250D02*
X631Y250D01*
X1458Y250D02*
X1485Y250D01*
X1515Y250D02*
X1541Y250D01*
X548Y249D02*
X576Y249D01*
X604Y249D02*
X631Y249D01*
X1458Y249D02*
X1485Y249D01*
X1515Y249D02*
X1541Y249D01*
X548Y248D02*
X576Y248D01*
X603Y248D02*
X631Y248D01*
X1458Y248D02*
X1484Y248D01*
X1515Y248D02*
X1541Y248D01*
X548Y247D02*
X577Y247D01*
X602Y247D02*
X631Y247D01*
X1458Y247D02*
X1484Y247D01*
X1515Y247D02*
X1541Y247D01*
X548Y246D02*
X578Y246D01*
X602Y246D02*
X631Y246D01*
X1458Y246D02*
X1484Y246D01*
X1515Y246D02*
X1541Y246D01*
X548Y245D02*
X579Y245D01*
X601Y245D02*
X631Y245D01*
X1458Y245D02*
X1484Y245D01*
X1515Y245D02*
X1541Y245D01*
X548Y244D02*
X580Y244D01*
X599Y244D02*
X631Y244D01*
X1458Y244D02*
X1484Y244D01*
X1515Y244D02*
X1541Y244D01*
X548Y243D02*
X581Y243D01*
X598Y243D02*
X631Y243D01*
X1458Y243D02*
X1484Y243D01*
X1515Y243D02*
X1541Y243D01*
X548Y242D02*
X583Y242D01*
X596Y242D02*
X631Y242D01*
X1458Y242D02*
X1485Y242D01*
X1515Y242D02*
X1541Y242D01*
X548Y241D02*
X586Y241D01*
X593Y241D02*
X631Y241D01*
X1458Y241D02*
X1485Y241D01*
X1514Y241D02*
X1541Y241D01*
X548Y240D02*
X631Y240D01*
X1458Y240D02*
X1485Y240D01*
X1514Y240D02*
X1541Y240D01*
X548Y239D02*
X631Y239D01*
X1458Y239D02*
X1486Y239D01*
X1514Y239D02*
X1541Y239D01*
X548Y238D02*
X631Y238D01*
X1458Y238D02*
X1486Y238D01*
X1513Y238D02*
X1541Y238D01*
X548Y237D02*
X631Y237D01*
X1458Y237D02*
X1487Y237D01*
X1512Y237D02*
X1541Y237D01*
X548Y236D02*
X631Y236D01*
X1458Y236D02*
X1488Y236D01*
X1512Y236D02*
X1541Y236D01*
X548Y235D02*
X631Y235D01*
X1458Y235D02*
X1489Y235D01*
X1511Y235D02*
X1541Y235D01*
X548Y234D02*
X631Y234D01*
X1458Y234D02*
X1490Y234D01*
X1510Y234D02*
X1541Y234D01*
X548Y233D02*
X631Y233D01*
X1458Y233D02*
X1491Y233D01*
X1508Y233D02*
X1541Y233D01*
X548Y232D02*
X631Y232D01*
X1458Y232D02*
X1493Y232D01*
X1506Y232D02*
X1541Y232D01*
X548Y231D02*
X631Y231D01*
X1458Y231D02*
X1496Y231D01*
X1504Y231D02*
X1541Y231D01*
X548Y230D02*
X631Y230D01*
X1458Y230D02*
X1541Y230D01*
X548Y229D02*
X631Y229D01*
X1458Y229D02*
X1541Y229D01*
X548Y228D02*
X631Y228D01*
X1458Y228D02*
X1541Y228D01*
X548Y227D02*
X631Y227D01*
X1458Y227D02*
X1541Y227D01*
X548Y226D02*
X631Y226D01*
X1458Y226D02*
X1541Y226D01*
X548Y225D02*
X631Y225D01*
X1458Y225D02*
X1541Y225D01*
X548Y224D02*
X631Y224D01*
X1458Y224D02*
X1541Y224D01*
X548Y223D02*
X631Y223D01*
X1458Y223D02*
X1541Y223D01*
X548Y222D02*
X631Y222D01*
X1458Y222D02*
X1541Y222D01*
X548Y221D02*
X631Y221D01*
X1458Y221D02*
X1541Y221D01*
X548Y220D02*
X631Y220D01*
X1458Y220D02*
X1541Y220D01*
X548Y219D02*
X631Y219D01*
X1458Y219D02*
X1541Y219D01*
X548Y218D02*
X631Y218D01*
X1458Y218D02*
X1541Y218D01*
X548Y217D02*
X631Y217D01*
X1458Y217D02*
X1541Y217D01*
X548Y216D02*
X631Y216D01*
X1458Y216D02*
X1541Y216D01*
X548Y215D02*
X631Y215D01*
X1458Y215D02*
X1541Y215D01*
X548Y214D02*
X631Y214D01*
X1458Y214D02*
X1541Y214D01*
X1458Y213D02*
X1541Y213D01*
X1458Y212D02*
X1541Y212D01*
X1458Y211D02*
X1541Y211D01*
X1458Y210D02*
X1541Y210D01*
X1458Y209D02*
X1541Y209D01*
X1458Y208D02*
X1541Y208D01*
X1458Y207D02*
X1541Y207D01*
X1458Y206D02*
X1541Y206D01*
X1458Y205D02*
X1541Y205D01*
X1458Y204D02*
X1541Y204D01*
D02*
G04 End of Mask1*
M02*