G04 MADE WITH FRITZING*
G04 WWW.FRITZING.ORG*
G04 DOUBLE SIDED*
G04 HOLES PLATED*
G04 CONTOUR ON CENTER OF CONTOUR VECTOR*
%ASAXBY*%
%FSLAX23Y23*%
%MOIN*%
%OFA0B0*%
%SFA1.0B1.0*%
%ADD10C,0.085000*%
%ADD11C,0.104488*%
%ADD12C,0.085361*%
%ADD13C,0.072992*%
%ADD14C,0.084000*%
%ADD15R,0.072992X0.084803*%
%ADD16R,0.072992X0.072992*%
%ADD17R,0.001000X0.001000*%
%LNMASK1*%
G90*
G70*
G54D10*
X1090Y1885D03*
X1490Y1885D03*
G54D11*
X2010Y1705D03*
X300Y885D03*
X640Y1305D03*
X190Y975D03*
X760Y885D03*
X760Y1215D03*
X390Y775D03*
X1380Y255D03*
X210Y665D03*
G54D12*
X100Y2045D03*
X200Y2045D03*
X300Y2045D03*
X400Y2045D03*
X500Y2045D03*
X600Y2045D03*
X700Y2045D03*
X800Y2045D03*
X900Y2045D03*
X1000Y2045D03*
X1100Y2045D03*
X1200Y2045D03*
X1300Y2045D03*
X1400Y2045D03*
X1500Y2045D03*
X1600Y2045D03*
X1700Y2045D03*
X1800Y2045D03*
X1900Y2045D03*
X2000Y2045D03*
X2000Y2145D03*
X1900Y2145D03*
X1800Y2145D03*
X1700Y2145D03*
X1600Y2145D03*
X1500Y2145D03*
X1400Y2145D03*
X1300Y2145D03*
X1200Y2145D03*
X1100Y2145D03*
X1000Y2145D03*
X900Y2145D03*
X800Y2145D03*
X700Y2145D03*
X600Y2145D03*
X500Y2145D03*
X400Y2145D03*
X300Y2145D03*
X200Y2145D03*
X100Y2145D03*
G54D13*
X930Y1885D03*
X832Y1885D03*
G54D10*
X1060Y1595D03*
X1060Y1195D03*
X940Y1595D03*
X940Y1195D03*
X140Y1685D03*
X540Y1685D03*
X140Y1785D03*
X540Y1785D03*
G54D14*
X1920Y1175D03*
X1910Y1075D03*
X1920Y975D03*
X1910Y875D03*
X1920Y1175D03*
X1910Y1075D03*
X1920Y975D03*
X1910Y875D03*
X1500Y245D03*
X1600Y235D03*
X1700Y245D03*
X1800Y235D03*
X1500Y245D03*
X1600Y235D03*
X1700Y245D03*
X1800Y235D03*
X390Y1305D03*
X440Y1380D03*
X490Y1305D03*
X390Y1305D03*
X440Y1380D03*
X490Y1305D03*
X89Y1307D03*
X139Y1382D03*
X189Y1307D03*
X89Y1307D03*
X139Y1382D03*
X189Y1307D03*
X590Y255D03*
X490Y265D03*
X390Y255D03*
X290Y265D03*
X590Y255D03*
X490Y265D03*
X390Y255D03*
X290Y265D03*
G54D15*
X1238Y1825D03*
X1360Y1825D03*
G54D16*
X930Y1885D03*
G54D17*
X1878Y1217D02*
X1961Y1217D01*
X1878Y1216D02*
X1961Y1216D01*
X1878Y1215D02*
X1961Y1215D01*
X1878Y1214D02*
X1961Y1214D01*
X1878Y1213D02*
X1961Y1213D01*
X1878Y1212D02*
X1961Y1212D01*
X1878Y1211D02*
X1961Y1211D01*
X1878Y1210D02*
X1961Y1210D01*
X1878Y1209D02*
X1961Y1209D01*
X1878Y1208D02*
X1961Y1208D01*
X1878Y1207D02*
X1961Y1207D01*
X1878Y1206D02*
X1961Y1206D01*
X1878Y1205D02*
X1961Y1205D01*
X1878Y1204D02*
X1961Y1204D01*
X1878Y1203D02*
X1961Y1203D01*
X1878Y1202D02*
X1961Y1202D01*
X1878Y1201D02*
X1961Y1201D01*
X1878Y1200D02*
X1961Y1200D01*
X1878Y1199D02*
X1961Y1199D01*
X1878Y1198D02*
X1961Y1198D01*
X1878Y1197D02*
X1961Y1197D01*
X1878Y1196D02*
X1961Y1196D01*
X1878Y1195D02*
X1961Y1195D01*
X1878Y1194D02*
X1961Y1194D01*
X1878Y1193D02*
X1961Y1193D01*
X1878Y1192D02*
X1961Y1192D01*
X1878Y1191D02*
X1961Y1191D01*
X1878Y1190D02*
X1915Y1190D01*
X1924Y1190D02*
X1961Y1190D01*
X1878Y1189D02*
X1912Y1189D01*
X1927Y1189D02*
X1961Y1189D01*
X1878Y1188D02*
X1910Y1188D01*
X1928Y1188D02*
X1961Y1188D01*
X1878Y1187D02*
X1909Y1187D01*
X1930Y1187D02*
X1961Y1187D01*
X1878Y1186D02*
X1908Y1186D01*
X1931Y1186D02*
X1961Y1186D01*
X1878Y1185D02*
X1907Y1185D01*
X1932Y1185D02*
X1961Y1185D01*
X1878Y1184D02*
X1906Y1184D01*
X1932Y1184D02*
X1961Y1184D01*
X1878Y1183D02*
X1906Y1183D01*
X1933Y1183D02*
X1961Y1183D01*
X1878Y1182D02*
X1905Y1182D01*
X1934Y1182D02*
X1961Y1182D01*
X1878Y1181D02*
X1905Y1181D01*
X1934Y1181D02*
X1961Y1181D01*
X1878Y1180D02*
X1905Y1180D01*
X1934Y1180D02*
X1961Y1180D01*
X1878Y1179D02*
X1904Y1179D01*
X1935Y1179D02*
X1961Y1179D01*
X1878Y1178D02*
X1904Y1178D01*
X1935Y1178D02*
X1961Y1178D01*
X1878Y1177D02*
X1904Y1177D01*
X1935Y1177D02*
X1961Y1177D01*
X1878Y1176D02*
X1904Y1176D01*
X1935Y1176D02*
X1961Y1176D01*
X1878Y1175D02*
X1904Y1175D01*
X1935Y1175D02*
X1961Y1175D01*
X1878Y1174D02*
X1904Y1174D01*
X1935Y1174D02*
X1961Y1174D01*
X1878Y1173D02*
X1904Y1173D01*
X1935Y1173D02*
X1961Y1173D01*
X1878Y1172D02*
X1904Y1172D01*
X1934Y1172D02*
X1961Y1172D01*
X1878Y1171D02*
X1905Y1171D01*
X1934Y1171D02*
X1961Y1171D01*
X1878Y1170D02*
X1905Y1170D01*
X1934Y1170D02*
X1961Y1170D01*
X1878Y1169D02*
X1905Y1169D01*
X1933Y1169D02*
X1961Y1169D01*
X1878Y1168D02*
X1906Y1168D01*
X1933Y1168D02*
X1961Y1168D01*
X1878Y1167D02*
X1907Y1167D01*
X1932Y1167D02*
X1961Y1167D01*
X1878Y1166D02*
X1907Y1166D01*
X1931Y1166D02*
X1961Y1166D01*
X1878Y1165D02*
X1908Y1165D01*
X1930Y1165D02*
X1961Y1165D01*
X1878Y1164D02*
X1909Y1164D01*
X1929Y1164D02*
X1961Y1164D01*
X1878Y1163D02*
X1911Y1163D01*
X1928Y1163D02*
X1961Y1163D01*
X1878Y1162D02*
X1913Y1162D01*
X1926Y1162D02*
X1961Y1162D01*
X1878Y1161D02*
X1915Y1161D01*
X1923Y1161D02*
X1961Y1161D01*
X1878Y1160D02*
X1961Y1160D01*
X1878Y1159D02*
X1961Y1159D01*
X1878Y1158D02*
X1961Y1158D01*
X1878Y1157D02*
X1961Y1157D01*
X1878Y1156D02*
X1961Y1156D01*
X1878Y1155D02*
X1961Y1155D01*
X1878Y1154D02*
X1961Y1154D01*
X1878Y1153D02*
X1961Y1153D01*
X1878Y1152D02*
X1961Y1152D01*
X1878Y1151D02*
X1961Y1151D01*
X1878Y1150D02*
X1961Y1150D01*
X1878Y1149D02*
X1961Y1149D01*
X1878Y1148D02*
X1961Y1148D01*
X1878Y1147D02*
X1961Y1147D01*
X1878Y1146D02*
X1961Y1146D01*
X1878Y1145D02*
X1961Y1145D01*
X1878Y1144D02*
X1961Y1144D01*
X1878Y1143D02*
X1961Y1143D01*
X1878Y1142D02*
X1961Y1142D01*
X1878Y1141D02*
X1961Y1141D01*
X1878Y1140D02*
X1961Y1140D01*
X1878Y1139D02*
X1961Y1139D01*
X1878Y1138D02*
X1961Y1138D01*
X1878Y1137D02*
X1961Y1137D01*
X1878Y1136D02*
X1961Y1136D01*
X1878Y1135D02*
X1961Y1135D01*
X1878Y1134D02*
X1961Y1134D01*
X548Y297D02*
X631Y297D01*
X548Y296D02*
X631Y296D01*
X548Y295D02*
X631Y295D01*
X548Y294D02*
X631Y294D01*
X548Y293D02*
X631Y293D01*
X548Y292D02*
X631Y292D01*
X548Y291D02*
X631Y291D01*
X548Y290D02*
X631Y290D01*
X548Y289D02*
X631Y289D01*
X548Y288D02*
X631Y288D01*
X548Y287D02*
X631Y287D01*
X1458Y287D02*
X1541Y287D01*
X548Y286D02*
X631Y286D01*
X1458Y286D02*
X1541Y286D01*
X548Y285D02*
X631Y285D01*
X1458Y285D02*
X1541Y285D01*
X548Y284D02*
X631Y284D01*
X1458Y284D02*
X1541Y284D01*
X548Y283D02*
X631Y283D01*
X1458Y283D02*
X1541Y283D01*
X548Y282D02*
X631Y282D01*
X1458Y282D02*
X1541Y282D01*
X548Y281D02*
X631Y281D01*
X1458Y281D02*
X1541Y281D01*
X548Y280D02*
X631Y280D01*
X1458Y280D02*
X1541Y280D01*
X548Y279D02*
X631Y279D01*
X1458Y279D02*
X1541Y279D01*
X548Y278D02*
X631Y278D01*
X1458Y278D02*
X1541Y278D01*
X548Y277D02*
X631Y277D01*
X1458Y277D02*
X1541Y277D01*
X548Y276D02*
X631Y276D01*
X1458Y276D02*
X1541Y276D01*
X548Y275D02*
X631Y275D01*
X1458Y275D02*
X1541Y275D01*
X548Y274D02*
X631Y274D01*
X1458Y274D02*
X1541Y274D01*
X548Y273D02*
X631Y273D01*
X1458Y273D02*
X1541Y273D01*
X548Y272D02*
X631Y272D01*
X1458Y272D02*
X1541Y272D01*
X548Y271D02*
X631Y271D01*
X1458Y271D02*
X1541Y271D01*
X548Y270D02*
X585Y270D01*
X594Y270D02*
X631Y270D01*
X1458Y270D02*
X1541Y270D01*
X548Y269D02*
X582Y269D01*
X597Y269D02*
X631Y269D01*
X1458Y269D02*
X1541Y269D01*
X548Y268D02*
X581Y268D01*
X599Y268D02*
X631Y268D01*
X1458Y268D02*
X1541Y268D01*
X548Y267D02*
X579Y267D01*
X600Y267D02*
X631Y267D01*
X1458Y267D02*
X1541Y267D01*
X548Y266D02*
X578Y266D01*
X601Y266D02*
X631Y266D01*
X1458Y266D02*
X1541Y266D01*
X548Y265D02*
X577Y265D01*
X602Y265D02*
X631Y265D01*
X1458Y265D02*
X1541Y265D01*
X548Y264D02*
X577Y264D01*
X603Y264D02*
X631Y264D01*
X1458Y264D02*
X1541Y264D01*
X548Y263D02*
X576Y263D01*
X603Y263D02*
X631Y263D01*
X1458Y263D02*
X1541Y263D01*
X548Y262D02*
X575Y262D01*
X604Y262D02*
X631Y262D01*
X1458Y262D02*
X1541Y262D01*
X548Y261D02*
X575Y261D01*
X604Y261D02*
X631Y261D01*
X1458Y261D02*
X1541Y261D01*
X548Y260D02*
X575Y260D01*
X604Y260D02*
X631Y260D01*
X1458Y260D02*
X1495Y260D01*
X1505Y260D02*
X1541Y260D01*
X548Y259D02*
X574Y259D01*
X605Y259D02*
X631Y259D01*
X1458Y259D02*
X1492Y259D01*
X1507Y259D02*
X1541Y259D01*
X548Y258D02*
X574Y258D01*
X605Y258D02*
X631Y258D01*
X1458Y258D02*
X1491Y258D01*
X1509Y258D02*
X1541Y258D01*
X548Y257D02*
X574Y257D01*
X605Y257D02*
X631Y257D01*
X1458Y257D02*
X1489Y257D01*
X1510Y257D02*
X1541Y257D01*
X548Y256D02*
X574Y256D01*
X605Y256D02*
X631Y256D01*
X1458Y256D02*
X1488Y256D01*
X1511Y256D02*
X1541Y256D01*
X548Y255D02*
X574Y255D01*
X605Y255D02*
X631Y255D01*
X1458Y255D02*
X1488Y255D01*
X1512Y255D02*
X1541Y255D01*
X548Y254D02*
X574Y254D01*
X605Y254D02*
X631Y254D01*
X1458Y254D02*
X1487Y254D01*
X1513Y254D02*
X1541Y254D01*
X548Y253D02*
X574Y253D01*
X605Y253D02*
X631Y253D01*
X1458Y253D02*
X1486Y253D01*
X1513Y253D02*
X1541Y253D01*
X548Y252D02*
X575Y252D01*
X605Y252D02*
X631Y252D01*
X1458Y252D02*
X1486Y252D01*
X1514Y252D02*
X1541Y252D01*
X548Y251D02*
X575Y251D01*
X604Y251D02*
X631Y251D01*
X1458Y251D02*
X1485Y251D01*
X1514Y251D02*
X1541Y251D01*
X548Y250D02*
X575Y250D01*
X604Y250D02*
X631Y250D01*
X1458Y250D02*
X1485Y250D01*
X1515Y250D02*
X1541Y250D01*
X548Y249D02*
X576Y249D01*
X604Y249D02*
X631Y249D01*
X1458Y249D02*
X1485Y249D01*
X1515Y249D02*
X1541Y249D01*
X548Y248D02*
X576Y248D01*
X603Y248D02*
X631Y248D01*
X1458Y248D02*
X1484Y248D01*
X1515Y248D02*
X1541Y248D01*
X548Y247D02*
X577Y247D01*
X602Y247D02*
X631Y247D01*
X1458Y247D02*
X1484Y247D01*
X1515Y247D02*
X1541Y247D01*
X548Y246D02*
X578Y246D01*
X602Y246D02*
X631Y246D01*
X1458Y246D02*
X1484Y246D01*
X1515Y246D02*
X1541Y246D01*
X548Y245D02*
X579Y245D01*
X601Y245D02*
X631Y245D01*
X1458Y245D02*
X1484Y245D01*
X1515Y245D02*
X1541Y245D01*
X548Y244D02*
X580Y244D01*
X599Y244D02*
X631Y244D01*
X1458Y244D02*
X1484Y244D01*
X1515Y244D02*
X1541Y244D01*
X548Y243D02*
X581Y243D01*
X598Y243D02*
X631Y243D01*
X1458Y243D02*
X1484Y243D01*
X1515Y243D02*
X1541Y243D01*
X548Y242D02*
X583Y242D01*
X596Y242D02*
X631Y242D01*
X1458Y242D02*
X1485Y242D01*
X1515Y242D02*
X1541Y242D01*
X548Y241D02*
X586Y241D01*
X593Y241D02*
X631Y241D01*
X1458Y241D02*
X1485Y241D01*
X1514Y241D02*
X1541Y241D01*
X548Y240D02*
X631Y240D01*
X1458Y240D02*
X1485Y240D01*
X1514Y240D02*
X1541Y240D01*
X548Y239D02*
X631Y239D01*
X1458Y239D02*
X1486Y239D01*
X1514Y239D02*
X1541Y239D01*
X548Y238D02*
X631Y238D01*
X1458Y238D02*
X1486Y238D01*
X1513Y238D02*
X1541Y238D01*
X548Y237D02*
X631Y237D01*
X1458Y237D02*
X1487Y237D01*
X1512Y237D02*
X1541Y237D01*
X548Y236D02*
X631Y236D01*
X1458Y236D02*
X1488Y236D01*
X1512Y236D02*
X1541Y236D01*
X548Y235D02*
X631Y235D01*
X1458Y235D02*
X1489Y235D01*
X1511Y235D02*
X1541Y235D01*
X548Y234D02*
X631Y234D01*
X1458Y234D02*
X1490Y234D01*
X1510Y234D02*
X1541Y234D01*
X548Y233D02*
X631Y233D01*
X1458Y233D02*
X1491Y233D01*
X1508Y233D02*
X1541Y233D01*
X548Y232D02*
X631Y232D01*
X1458Y232D02*
X1493Y232D01*
X1506Y232D02*
X1541Y232D01*
X548Y231D02*
X631Y231D01*
X1458Y231D02*
X1496Y231D01*
X1504Y231D02*
X1541Y231D01*
X548Y230D02*
X631Y230D01*
X1458Y230D02*
X1541Y230D01*
X548Y229D02*
X631Y229D01*
X1458Y229D02*
X1541Y229D01*
X548Y228D02*
X631Y228D01*
X1458Y228D02*
X1541Y228D01*
X548Y227D02*
X631Y227D01*
X1458Y227D02*
X1541Y227D01*
X548Y226D02*
X631Y226D01*
X1458Y226D02*
X1541Y226D01*
X548Y225D02*
X631Y225D01*
X1458Y225D02*
X1541Y225D01*
X548Y224D02*
X631Y224D01*
X1458Y224D02*
X1541Y224D01*
X548Y223D02*
X631Y223D01*
X1458Y223D02*
X1541Y223D01*
X548Y222D02*
X631Y222D01*
X1458Y222D02*
X1541Y222D01*
X548Y221D02*
X631Y221D01*
X1458Y221D02*
X1541Y221D01*
X548Y220D02*
X631Y220D01*
X1458Y220D02*
X1541Y220D01*
X548Y219D02*
X631Y219D01*
X1458Y219D02*
X1541Y219D01*
X548Y218D02*
X631Y218D01*
X1458Y218D02*
X1541Y218D01*
X548Y217D02*
X631Y217D01*
X1458Y217D02*
X1541Y217D01*
X548Y216D02*
X631Y216D01*
X1458Y216D02*
X1541Y216D01*
X548Y215D02*
X631Y215D01*
X1458Y215D02*
X1541Y215D01*
X548Y214D02*
X631Y214D01*
X1458Y214D02*
X1541Y214D01*
X1458Y213D02*
X1541Y213D01*
X1458Y212D02*
X1541Y212D01*
X1458Y211D02*
X1541Y211D01*
X1458Y210D02*
X1541Y210D01*
X1458Y209D02*
X1541Y209D01*
X1458Y208D02*
X1541Y208D01*
X1458Y207D02*
X1541Y207D01*
X1458Y206D02*
X1541Y206D01*
X1458Y205D02*
X1541Y205D01*
X1458Y204D02*
X1541Y204D01*
D02*
G04 End of Mask1*
M02*