; NON-PLATED HOLES START AT T1
; THROUGH (PLATED) HOLES START AT T100
M48
INCH
T100C0.040000
T101C0.031496
T102C0.035000
T103C0.031497
T104C0.032000
T105C0.040639
%
T100
X019202Y011751
X018004Y002351
X002902Y002651
X004902Y002651
X019202Y009751
X003902Y002551
X017004Y002451
X019102Y008751
X019102Y010751
X005902Y002551
X015004Y002451
X016004Y002351
T101
X006402Y013051
X001902Y009751
X020102Y017051
X003902Y007751
X007602Y012151
X003002Y008851
X013802Y002551
X007602Y008851
X002102Y006651
T102
X005402Y017851
X009402Y015951
X010902Y018851
X009402Y011951
X005402Y016851
X014902Y018851
X001402Y017851
X010602Y015951
X010602Y011951
X001402Y016851
T103
X008317Y018851
X009302Y018851
T104
X004902Y013051
X000887Y013066
X001387Y013816
X003902Y013051
X004402Y013801
X001887Y013066
T105
X020002Y021451
X015002Y021451
X001002Y020451
X017002Y020451
X014002Y020451
X003002Y020451
X003002Y021451
X017002Y021451
X011002Y020451
X009002Y021451
X006002Y021451
X005002Y020451
X014002Y021451
X007002Y020451
X012002Y020451
X002002Y020451
X016002Y020451
X016002Y021451
X012002Y021451
X002002Y021451
X007002Y021451
X010002Y021451
X018002Y021451
X008002Y021451
X011002Y021451
X004002Y020451
X010002Y020451
X009002Y020451
X006002Y020451
X019002Y021451
X015002Y020451
X008002Y020451
X013002Y021451
X001002Y021451
X018002Y020451
X020002Y020451
X013002Y020451
X004002Y021451
X005002Y021451
X019002Y020451
T00
M30
